<?xml version="1.0" encoding="UTF-8"?>
<svg xmlns="http://www.w3.org/2000/svg" xmlns:xlink="http://www.w3.org/1999/xlink" version="1.1" viewBox="0 0 1920 1080">
  <!-- Generator: Adobe Illustrator 29.8.1, SVG Export Plug-In . SVG Version: 2.1.1 Build 2)  -->
  <defs>
    <style>
      .st0 {
        filter: url(#drop-shadow-3);
      }

      .st1 {
        filter: url(#drop-shadow-9);
      }

      .st2 {
        filter: url(#drop-shadow-7);
      }

      .st3 {
        filter: url(#drop-shadow-5);
      }

      .st4, .st5, .st6 {
        fill: #fff;
      }

      .st4, .st7 {
        clip-rule: evenodd;
      }

      .st5, .st8 {
        fill-rule: evenodd;
      }

      .st9 {
        fill: url(#Dégradé_sans_nom_4);
      }

      .st10 {
        fill: url(#Dégradé_sans_nom_2);
      }

      .st11 {
        fill: url(#Dégradé_sans_nom_3);
      }

      .st12 {
        fill: #6c00e0;
      }

      .st8 {
        fill: url(#Dégradé_sans_nom_21);
      }

      .st13 {
        isolation: isolate;
      }

      .st14 {
        clip-path: url(#clippath-1);
      }

      .st15 {
        clip-path: url(#clippath-2);
      }

      .st16 {
        opacity: .39;
      }

      .st17 {
        opacity: .1;
      }

      .st18 {
        fill: url(#Dégradé_sans_nom_23);
      }

      .st19 {
        fill: #ebedee;
      }

      .st20 {
        stroke: url(#Degradado_sin_nombre_2);
        stroke-width: .19px;
      }

      .st20, .st21 {
        fill: none;
        mix-blend-mode: luminosity;
        stroke-miterlimit: 10;
      }

      .st7 {
        fill: url(#Dégradé_sans_nom_22);
      }

      .st21 {
        stroke: url(#Degradado_sin_nombre_21);
        stroke-width: 4.59px;
      }

      .st22 {
        display: none;
      }

      .st23 {
        clip-path: url(#clippath);
      }
    </style>
    <radialGradient id="Dégradé_sans_nom_3" data-name="Dégradé sans nom 3" cx="997.17" cy="-321.5" fx="997.17" fy="-321.5" r="2059.37" gradientUnits="userSpaceOnUse">
      <stop offset=".03" stop-color="#6c00e0"/>
      <stop offset=".53" stop-color="#200393"/>
      <stop offset="1" stop-color="#51b7b0"/>
    </radialGradient>
    <linearGradient id="Dégradé_sans_nom_4" data-name="Dégradé sans nom 4" x1="-341.31" y1="-407.83" x2="1461.98" y2="905.17" gradientUnits="userSpaceOnUse">
      <stop offset=".25" stop-color="#51b7b0"/>
      <stop offset=".35" stop-color="#4b8b9d"/>
      <stop offset=".48" stop-color="#465a8a"/>
      <stop offset=".6" stop-color="#41347a"/>
      <stop offset=".71" stop-color="#3e196f"/>
      <stop offset=".8" stop-color="#3c0868"/>
      <stop offset=".88" stop-color="#3c0366"/>
    </linearGradient>
    <linearGradient id="Degradado_sin_nombre_2" data-name="Degradado sin nombre 2" x1="798.77" y1="514.36" x2="1151.15" y2="514.36" gradientTransform="translate(1469 -441.5) rotate(90)" gradientUnits="userSpaceOnUse">
      <stop offset="0" stop-color="#feffff"/>
      <stop offset=".5" stop-color="#000" stop-opacity="0"/>
      <stop offset="1" stop-color="#feffff"/>
    </linearGradient>
    <linearGradient id="Degradado_sin_nombre_21" data-name="Degradado sin nombre 2" x1="954.64" y1="656.44" x2="954.64" y2="410.49" gradientTransform="matrix(1,0,0,1,0,0)" xlink:href="#Degradado_sin_nombre_2"/>
    <filter id="drop-shadow-1" filterUnits="userSpaceOnUse">
      <feOffset dx="1.15" dy="16.05"/>
      <feGaussianBlur result="blur" stdDeviation="10.32"/>
      <feFlood flood-color="#200393" flood-opacity=".74"/>
      <feComposite in2="blur" operator="in"/>
      <feComposite in="SourceGraphic"/>
    </filter>
    <filter id="drop-shadow-3" x="732.28" y="752.28" width="105" height="81" filterUnits="userSpaceOnUse">
      <feOffset dx=".55" dy="7.63"/>
      <feGaussianBlur result="blur1" stdDeviation="4.91"/>
      <feFlood flood-color="#200393" flood-opacity=".74"/>
      <feComposite in2="blur1" operator="in"/>
      <feComposite in="SourceGraphic"/>
    </filter>
    <filter id="drop-shadow-5" x="853.28" y="752.28" width="104" height="81" filterUnits="userSpaceOnUse">
      <feOffset dx=".55" dy="7.63"/>
      <feGaussianBlur result="blur2" stdDeviation="4.91"/>
      <feFlood flood-color="#200393" flood-opacity=".74"/>
      <feComposite in2="blur2" operator="in"/>
      <feComposite in="SourceGraphic"/>
    </filter>
    <filter id="drop-shadow-7" x="971.28" y="751.28" width="89" height="82" filterUnits="userSpaceOnUse">
      <feOffset dx=".55" dy="7.63"/>
      <feGaussianBlur result="blur3" stdDeviation="4.91"/>
      <feFlood flood-color="#200393" flood-opacity=".74"/>
      <feComposite in2="blur3" operator="in"/>
      <feComposite in="SourceGraphic"/>
    </filter>
    <filter id="drop-shadow-9" x="1078.28" y="752.28" width="95" height="81" filterUnits="userSpaceOnUse">
      <feOffset dx=".55" dy="7.63"/>
      <feGaussianBlur result="blur4" stdDeviation="4.91"/>
      <feFlood flood-color="#200393" flood-opacity=".74"/>
      <feComposite in2="blur4" operator="in"/>
      <feComposite in="SourceGraphic"/>
    </filter>
    <clipPath id="clippath">
      <path class="st4" d="M826.99,120.64c26.3,0,47.62,21.32,47.62,47.62s-21.32,47.62-47.62,47.62-47.62-21.32-47.62-47.62,21.32-47.62,47.62-47.62M826.99,98.22c38.68,0,70.04,31.36,70.04,70.03s-31.36,70.04-70.04,70.04-70.03-31.36-70.03-70.04,31.36-70.03,70.03-70.03Z"/>
    </clipPath>
    <clipPath id="clippath-1">
      <path class="st4" d="M826.99,168.26c38.68,0,70.04,31.36,70.04,70.04h-22.41c0-26.3-21.32-47.62-47.62-47.62v-22.41Z"/>
    </clipPath>
    <linearGradient id="Dégradé_sans_nom_2" data-name="Dégradé sans nom 2" x1="473.89" y1="1090.08" x2="1240.86" y2="578.6" gradientTransform="translate(764.75 -489.22) rotate(59.65) scale(1.08) skewX(-5.1)" gradientUnits="userSpaceOnUse">
      <stop offset="0" stop-color="#fff"/>
      <stop offset="1" stop-color="#2d0691"/>
    </linearGradient>
    <linearGradient id="Dégradé_sans_nom_21" data-name="Dégradé sans nom 2" x1="1714.42" y1="2.98" x2="1994.55" y2="2.98" gradientTransform="matrix(1,0,0,1,0,0)" xlink:href="#Dégradé_sans_nom_2"/>
    <linearGradient id="Dégradé_sans_nom_22" data-name="Dégradé sans nom 2" x1="1714.42" y1="2.98" x2="1994.55" y2="2.98" gradientTransform="matrix(1,0,0,1,0,0)" xlink:href="#Dégradé_sans_nom_2"/>
    <clipPath id="clippath-2">
      <path class="st7" d="M1854.48-92.27c52.6,0,95.25,42.64,95.25,95.25s-42.64,95.25-95.25,95.25-95.25-42.65-95.25-95.25,42.64-95.25,95.25-95.25M1854.48-137.09c77.36,0,140.07,62.71,140.07,140.07s-62.71,140.07-140.07,140.07-140.07-62.71-140.07-140.07,62.71-140.07,140.07-140.07Z"/>
    </clipPath>
    <linearGradient id="Dégradé_sans_nom_23" data-name="Dégradé sans nom 2" x1="1714.42" y1="2.98" x2="1994.55" y2="2.98" gradientTransform="matrix(1,0,0,1,0,0)" xlink:href="#Dégradé_sans_nom_2"/>
  </defs>
  <g class="st13">
    <g id="Layer_1">
      <rect class="st11" x="158.47" y="1.49" width="1615.53" height="1077.02"/>
      <rect class="st9" x="0" y="-9.6" width="1920" height="1098.54"/>
      <g>
        <g>
          <g>
            <circle class="st20" cx="954.64" cy="533.46" r="176.09"/>
            <path class="st21" d="M1326.39,532.3c0,205.31-166.44,89.06-371.74,89.06s-371.74,116.25-371.74-89.06,166.44-83.85,371.74-83.85,371.74-121.46,371.74,83.85Z"/>
          </g>
          <text/>
        </g>
        <g class="st22">
          <g>
            <g>
              <g class="st0">
                <path class="st19" d="M765.85,808.78c-3.58,0-6.74-.99-9.48-2.96-2.74-1.97-4.87-4.76-6.39-8.36-1.52-3.6-2.28-7.82-2.28-12.67s.76-9.07,2.28-12.67c1.52-3.6,3.65-6.39,6.39-8.36,2.74-1.97,5.9-2.96,9.48-2.96s6.79.99,9.51,2.96c2.72,1.97,4.83,4.76,6.35,8.36,1.52,3.6,2.28,7.82,2.28,12.67s-.76,9.07-2.28,12.67c-1.52,3.6-3.63,6.38-6.35,8.36-2.72,1.97-5.89,2.96-9.51,2.96ZM765.85,807.49c3.35,0,6.28-.93,8.8-2.79,2.51-1.86,4.47-4.48,5.88-7.88,1.4-3.4,2.11-7.41,2.11-12.02s-.7-8.68-2.11-12.06c-1.4-3.37-3.36-5.99-5.88-7.85-2.51-1.86-5.45-2.79-8.8-2.79s-6.23.93-8.76,2.79c-2.54,1.86-4.51,4.47-5.91,7.85-1.4,3.37-2.11,7.39-2.11,12.06s.7,8.63,2.11,12.02c1.4,3.4,3.37,6.02,5.91,7.88,2.54,1.86,5.46,2.79,8.76,2.79Z"/>
                <path class="st19" d="M804.91,808.78c-3.58,0-6.83-.63-9.75-1.9-2.92-1.27-5.11-2.88-6.56-4.82l.88-.88c1.31,1.77,3.34,3.26,6.08,4.48,2.74,1.22,5.85,1.83,9.34,1.83,4.71,0,8.28-1.09,10.7-3.26,2.42-2.17,3.63-5.07,3.63-8.7s-1.23-6.52-3.7-8.7c-2.47-2.17-6.31-3.26-11.51-3.26h-2.45v-1.02l15.76-20.72.14.48h-27.38v-1.29h28.74v1.02l-15.76,20.72-.14-.48h1.02c5.61,0,9.79,1.22,12.53,3.67,2.74,2.45,4.11,5.64,4.11,9.58,0,2.63-.6,4.94-1.8,6.93-1.2,1.99-2.97,3.54-5.3,4.65-2.33,1.11-5.2,1.67-8.59,1.67Z"/>
              </g>
              <g>
                <rect class="st12" x="753.66" y="829.38" width="67.69" height="19.63"/>
                <g>
                  <path class="st19" d="M774.21,843.21v-7.24h2.74c.77,0,1.43.16,2.01.47.57.31,1.02.74,1.33,1.29.32.54.48,1.17.48,1.86s-.16,1.32-.48,1.86c-.32.54-.76.97-1.33,1.29-.57.31-1.24.47-2.01.47h-2.74ZM774.41,843.01h2.51c.74,0,1.38-.15,1.92-.45.54-.3.97-.7,1.26-1.22.3-.51.44-1.1.44-1.76s-.15-1.25-.44-1.76c-.3-.51-.72-.92-1.26-1.22-.54-.3-1.19-.44-1.92-.44h-2.51v6.85Z"/>
                  <path class="st19" d="M781.36,843.21l3.36-7.24h.21l3.36,7.24h-.24l-3.28-7.08h.1l-3.28,7.08h-.24ZM782.47,841.02l.1-.2h4.5l.1.2h-4.71Z"/>
                  <path class="st19" d="M791.03,843.21v-2.53l.05.15-3-4.86h.24l2.86,4.62h-.08l2.86-4.62h.24l-3,4.86.05-.15v2.53h-.21Z"/>
                  <path class="st19" d="M797.27,843.24c-.52,0-1.02-.1-1.48-.29-.47-.19-.82-.44-1.06-.73l.14-.13c.23.27.56.5.99.68.43.19.9.28,1.4.28s.95-.07,1.29-.22.58-.34.75-.58c.16-.25.24-.52.24-.81,0-.34-.08-.62-.25-.83-.17-.21-.39-.38-.66-.5-.28-.12-.58-.22-.9-.3-.32-.08-.65-.16-.98-.24-.33-.08-.63-.19-.91-.33s-.5-.32-.66-.55-.25-.54-.25-.92c0-.32.08-.61.25-.89.17-.28.43-.5.79-.67.35-.17.82-.26,1.38-.26.39,0,.77.06,1.14.18.38.12.69.28.96.48l-.11.17c-.29-.21-.61-.37-.96-.48-.35-.1-.69-.16-1.01-.16-.5,0-.92.07-1.25.22s-.58.34-.73.59c-.16.24-.24.52-.24.82,0,.35.08.63.25.84.17.21.39.38.66.5.28.12.58.22.91.3.33.08.65.16.98.25.32.09.62.2.9.33s.5.32.66.54.25.53.25.9c0,.32-.09.61-.26.89-.17.28-.44.5-.81.67s-.83.25-1.41.25Z"/>
                </g>
              </g>
            </g>
            <g>
              <g class="st3">
                <path class="st19" d="M870.43,808.58v-1.02l20.58-20.86c2.04-2.04,3.58-3.83,4.62-5.37,1.04-1.54,1.74-2.98,2.11-4.31.36-1.33.54-2.66.54-3.97,0-3.35-1.13-6.01-3.4-7.98-2.27-1.97-5.55-2.96-9.85-2.96-3.26,0-6.09.48-8.49,1.43-2.4.95-4.46,2.4-6.18,4.35l-.95-.95c1.77-1.99,3.95-3.51,6.56-4.55,2.6-1.04,5.63-1.56,9.07-1.56,2.99,0,5.58.49,7.78,1.46,2.2.97,3.88,2.37,5.06,4.18,1.18,1.81,1.77,3.99,1.77,6.52,0,1.5-.22,2.97-.65,4.42-.43,1.45-1.19,2.99-2.28,4.62-1.09,1.63-2.67,3.49-4.75,5.57l-19.97,20.24-.82-.54h31.05v1.29h-31.79Z"/>
                <path class="st19" d="M908.13,808.58v-1.02l20.58-20.86c2.04-2.04,3.58-3.83,4.62-5.37,1.04-1.54,1.74-2.98,2.11-4.31.36-1.33.54-2.66.54-3.97,0-3.35-1.13-6.01-3.4-7.98-2.27-1.97-5.55-2.96-9.85-2.96-3.26,0-6.09.48-8.49,1.43-2.4.95-4.46,2.4-6.18,4.35l-.95-.95c1.77-1.99,3.95-3.51,6.56-4.55,2.6-1.04,5.63-1.56,9.07-1.56,2.99,0,5.58.49,7.78,1.46,2.2.97,3.88,2.37,5.06,4.18,1.18,1.81,1.77,3.99,1.77,6.52,0,1.5-.22,2.97-.65,4.42-.43,1.45-1.19,2.99-2.28,4.62-1.09,1.63-2.67,3.49-4.75,5.57l-19.97,20.24-.82-.54h31.05v1.29h-31.79Z"/>
              </g>
              <g>
                <rect class="st12" x="870.74" y="829.38" width="67.69" height="19.63"/>
                <g>
                  <path class="st19" d="M886.43,843.42v-7.24h.21v7.24h-.21ZM886.59,839.84v-.2h5.38v.2h-5.38ZM891.92,843.42v-7.24h.21v7.24h-.21Z"/>
                  <path class="st19" d="M897.82,843.45c-.53,0-1.02-.09-1.47-.27-.45-.18-.84-.44-1.18-.77-.33-.33-.59-.72-.78-1.16s-.28-.92-.28-1.45.09-1.01.28-1.45.45-.83.78-1.16c.33-.33.73-.59,1.18-.77.45-.18.94-.27,1.47-.27s1.02.09,1.47.27c.45.18.84.44,1.18.77.33.33.59.72.78,1.16s.28.92.28,1.45-.09,1.01-.28,1.45-.45.83-.78,1.16c-.33.33-.73.59-1.18.77-.45.18-.94.27-1.47.27ZM897.82,843.26c.5,0,.96-.09,1.39-.26.43-.17.8-.42,1.12-.73.32-.31.56-.68.74-1.1s.26-.87.26-1.37-.09-.95-.26-1.37c-.18-.42-.42-.78-.74-1.1-.32-.31-.69-.56-1.12-.73-.43-.17-.89-.26-1.39-.26s-.96.09-1.39.26c-.43.17-.8.42-1.12.73-.32.31-.56.68-.74,1.1-.18.42-.26.87-.26,1.37s.09.95.26,1.37.42.78.74,1.1c.32.31.69.56,1.12.73.43.17.89.26,1.39.26Z"/>
                  <path class="st19" d="M906.25,843.45c-.86,0-1.54-.25-2.04-.77s-.75-1.28-.75-2.3v-4.21h.21v4.2c0,.96.23,1.69.68,2.16.45.48,1.09.71,1.91.71s1.46-.24,1.91-.71c.45-.48.68-1.2.68-2.16v-4.2h.21v4.21c0,1.02-.25,1.79-.75,2.3s-1.18.77-2.04.77Z"/>
                  <path class="st19" d="M911.74,843.42v-7.24h2.45c.89,0,1.59.21,2.09.62.5.42.76,1,.76,1.75,0,.5-.11.92-.34,1.28-.23.36-.55.63-.98.82-.42.19-.93.29-1.53.29h-2.34l.09-.09v2.58h-.21ZM911.94,840.83l-.09-.08h2.36c.85,0,1.5-.19,1.94-.57s.67-.92.67-1.61-.22-1.23-.67-1.61c-.45-.38-1.1-.57-1.94-.57h-2.36l.09-.08v4.53ZM916.88,843.42l-1.89-2.63h.26l1.89,2.63h-.26Z"/>
                  <path class="st19" d="M920.91,843.45c-.52,0-1.02-.1-1.48-.29-.46-.19-.82-.44-1.06-.73l.15-.13c.23.27.56.5.99.68.43.19.9.28,1.4.28s.95-.07,1.29-.22c.33-.14.58-.34.74-.58.16-.25.24-.52.24-.81,0-.34-.08-.62-.25-.83-.17-.21-.39-.38-.66-.5-.28-.12-.58-.22-.9-.3-.33-.08-.65-.16-.98-.24-.33-.08-.63-.19-.9-.33-.28-.13-.5-.32-.66-.55-.17-.23-.25-.54-.25-.92,0-.32.08-.61.25-.89.17-.28.43-.5.79-.67.36-.17.82-.26,1.38-.26.39,0,.77.06,1.14.18.38.12.69.28.96.48l-.11.17c-.29-.21-.61-.37-.96-.48s-.69-.16-1.01-.16c-.5,0-.92.07-1.25.22s-.58.34-.73.59c-.16.24-.24.52-.24.82,0,.35.08.63.25.84.17.21.39.38.66.5.28.12.58.22.91.3.33.08.65.16.98.25.32.09.62.2.9.33.28.13.5.32.66.54.17.23.25.53.25.9,0,.32-.09.61-.26.89-.17.28-.44.5-.81.67s-.83.25-1.41.25Z"/>
                </g>
              </g>
            </g>
            <g>
              <g class="st2">
                <path class="st19" d="M999.05,808.58v-46.81l.61.54h-12.84v-1.29h13.52v47.55h-1.29Z"/>
                <path class="st19" d="M1027.72,808.78c-3.49,0-6.69-.63-9.61-1.9-2.92-1.27-5.11-2.88-6.56-4.82l.88-.88c1.31,1.77,3.33,3.26,6.05,4.48,2.72,1.22,5.8,1.83,9.24,1.83,4.89,0,8.53-1.16,10.9-3.46,2.38-2.31,3.57-5.23,3.57-8.76,0-2.58-.58-4.8-1.73-6.66-1.16-1.86-3.09-3.27-5.81-4.25-2.72-.97-6.43-1.46-11.14-1.46h-8.97l2.51-21.87h24.12v1.29h-23.37l.48-.54-2.38,20.52-.41-.68h8.29c4.89,0,8.77.55,11.65,1.66,2.88,1.11,4.95,2.68,6.22,4.72,1.27,2.04,1.9,4.46,1.9,7.27,0,2.54-.59,4.83-1.77,6.89-1.18,2.06-2.93,3.68-5.26,4.86-2.33,1.18-5.26,1.77-8.8,1.77Z"/>
              </g>
              <g>
                <rect class="st12" x="987.65" y="829.38" width="67.69" height="19.63"/>
                <g>
                  <path class="st19" d="M1000.07,843.21v-7.24h.18l3.45,6.02h-.09l3.43-6.02h.18v7.24h-.21v-6.94h.08l-3.38,5.92h-.12l-3.39-5.92h.09v6.94h-.21Z"/>
                  <path class="st19" d="M1009.96,843.21v-7.24h.21v7.24h-.21Z"/>
                  <path class="st19" d="M1012.92,843.21v-7.24h.18l5.42,7h-.11v-7h.21v7.24h-.18l-5.42-7h.11v7h-.21Z"/>
                  <path class="st19" d="M1024.09,843.24c-.86,0-1.54-.25-2.04-.77s-.75-1.28-.75-2.3v-4.21h.21v4.2c0,.96.23,1.69.68,2.16.45.48,1.09.71,1.91.71s1.46-.24,1.91-.71c.45-.48.68-1.2.68-2.16v-4.2h.21v4.21c0,1.02-.25,1.79-.75,2.3s-1.18.77-2.04.77Z"/>
                  <path class="st19" d="M1030.77,843.21v-7.04h-2.69v-.2h5.59v.2h-2.69v7.04h-.21Z"/>
                  <path class="st19" d="M1035.09,843.21v-7.24h4.67v.2h-4.46v6.85h4.61v.2h-4.82ZM1035.24,839.63v-.2h4.04v.2h-4.04Z"/>
                  <path class="st19" d="M1043.77,843.24c-.52,0-1.02-.1-1.48-.29-.46-.19-.82-.44-1.06-.73l.15-.13c.23.27.56.5.99.68.43.19.9.28,1.4.28s.95-.07,1.29-.22c.33-.14.58-.34.74-.58.16-.25.24-.52.24-.81,0-.34-.08-.62-.25-.83-.17-.21-.39-.38-.66-.5-.28-.12-.58-.22-.9-.3-.33-.08-.65-.16-.98-.24-.33-.08-.63-.19-.9-.33-.28-.13-.5-.32-.66-.55-.17-.23-.25-.54-.25-.92,0-.32.08-.61.25-.89.17-.28.43-.5.79-.67.36-.17.82-.26,1.38-.26.39,0,.77.06,1.14.18.38.12.69.28.96.48l-.11.17c-.29-.21-.61-.37-.96-.48s-.69-.16-1.01-.16c-.5,0-.92.07-1.25.22s-.58.34-.73.59c-.16.24-.24.52-.24.82,0,.35.08.63.25.84.17.21.39.38.66.5.28.12.58.22.91.3.33.08.65.16.98.25.32.09.62.2.9.33.28.13.5.32.66.54.17.23.25.53.25.9,0,.32-.09.61-.26.89-.17.28-.44.5-.81.67s-.83.25-1.41.25Z"/>
                </g>
              </g>
            </g>
            <g>
              <g class="st1">
                <path class="st19" d="M1105.53,808.79v-46.81l.61.54h-12.84v-1.29h13.52v47.55h-1.29Z"/>
                <path class="st19" d="M1138,809c-3.58,0-6.74-.99-9.48-2.96-2.74-1.97-4.87-4.76-6.38-8.36-1.52-3.6-2.28-7.82-2.28-12.67s.76-9.07,2.28-12.67c1.52-3.6,3.64-6.39,6.38-8.36,2.74-1.97,5.9-2.96,9.48-2.96s6.79.99,9.51,2.96c2.72,1.97,4.83,4.76,6.35,8.36,1.52,3.6,2.28,7.82,2.28,12.67s-.76,9.07-2.28,12.67c-1.52,3.6-3.63,6.38-6.35,8.36-2.72,1.97-5.89,2.96-9.51,2.96ZM1138,807.71c3.35,0,6.28-.93,8.8-2.79,2.51-1.86,4.47-4.48,5.88-7.88,1.4-3.4,2.11-7.41,2.11-12.02s-.7-8.68-2.11-12.06c-1.4-3.37-3.36-5.99-5.88-7.85-2.51-1.86-5.45-2.79-8.8-2.79s-6.23.93-8.76,2.79c-2.54,1.86-4.51,4.47-5.91,7.85-1.4,3.37-2.11,7.39-2.11,12.06s.7,8.63,2.11,12.02c1.4,3.4,3.37,6.02,5.91,7.88,2.54,1.86,5.46,2.79,8.76,2.79Z"/>
              </g>
              <g>
                <rect class="st12" x="1093.48" y="829.38" width="67.69" height="19.63"/>
                <g>
                  <path class="st19" d="M1105.02,843.24c-.52,0-1.02-.1-1.48-.29-.46-.19-.82-.44-1.06-.73l.15-.13c.23.27.56.5.99.68.43.19.9.28,1.4.28s.95-.07,1.29-.22c.33-.14.58-.34.74-.58.16-.25.24-.52.24-.81,0-.34-.08-.62-.25-.83-.17-.21-.39-.38-.66-.5-.28-.12-.58-.22-.9-.3-.33-.08-.65-.16-.98-.24-.33-.08-.63-.19-.9-.33-.28-.13-.5-.32-.66-.55-.17-.23-.25-.54-.25-.92,0-.32.08-.61.25-.89.17-.28.43-.5.79-.67.36-.17.82-.26,1.38-.26.39,0,.77.06,1.14.18.38.12.69.28.96.48l-.11.17c-.29-.21-.61-.37-.96-.48s-.69-.16-1.01-.16c-.5,0-.92.07-1.25.22s-.58.34-.73.59c-.16.24-.24.52-.24.82,0,.35.08.63.25.84.17.21.39.38.66.5.28.12.58.22.91.3.33.08.65.16.98.25.32.09.62.2.9.33.28.13.5.32.66.54.17.23.25.53.25.9,0,.32-.09.61-.26.89-.17.28-.44.5-.81.67s-.83.25-1.41.25Z"/>
                  <path class="st19" d="M1109.47,843.21v-7.24h4.67v.2h-4.46v6.85h4.61v.2h-4.82ZM1109.62,839.63v-.2h4.04v.2h-4.04Z"/>
                  <path class="st19" d="M1119.27,843.24c-.53,0-1.02-.09-1.47-.27-.45-.18-.84-.44-1.18-.77-.33-.33-.59-.72-.78-1.16s-.28-.92-.28-1.45.09-1.01.28-1.45.45-.83.78-1.16c.33-.33.73-.59,1.18-.77.45-.18.94-.27,1.47-.27.48,0,.93.08,1.36.23s.8.38,1.11.69l-.12.14c-.33-.32-.69-.54-1.09-.67-.39-.13-.81-.2-1.25-.2-.5,0-.96.09-1.39.26-.43.18-.8.42-1.12.73-.32.31-.56.68-.74,1.1-.18.42-.26.87-.26,1.36s.09.94.26,1.36c.18.42.42.78.74,1.1.32.31.69.56,1.12.73.43.18.89.26,1.39.26.44,0,.86-.07,1.25-.2.39-.13.75-.36,1.09-.68l.12.14c-.31.31-.68.54-1.11.7-.43.16-.88.23-1.36.23Z"/>
                  <path class="st19" d="M1126.17,843.24c-.53,0-1.02-.09-1.47-.27-.45-.18-.84-.44-1.18-.77-.33-.33-.59-.72-.78-1.16s-.28-.92-.28-1.45.09-1.01.28-1.45.45-.83.78-1.16c.33-.33.73-.59,1.18-.77.45-.18.94-.27,1.47-.27s1.02.09,1.47.27c.45.18.84.44,1.18.77.33.33.59.72.78,1.16s.28.92.28,1.45-.09,1.01-.28,1.45-.45.83-.78,1.16c-.33.33-.73.59-1.18.77-.45.18-.94.27-1.47.27ZM1126.17,843.04c.5,0,.96-.09,1.39-.26.43-.17.8-.42,1.12-.73.32-.31.56-.68.74-1.1s.26-.87.26-1.37-.09-.95-.26-1.37c-.18-.42-.42-.78-.74-1.1-.32-.31-.69-.56-1.12-.73-.43-.17-.89-.26-1.39-.26s-.96.09-1.39.26c-.43.17-.8.42-1.12.73-.32.31-.56.68-.74,1.1-.18.42-.26.87-.26,1.37s.09.95.26,1.37.42.78.74,1.1c.32.31.69.56,1.12.73.43.17.89.26,1.39.26Z"/>
                  <path class="st19" d="M1131.87,843.21v-7.24h.18l5.42,7h-.11v-7h.21v7.24h-.18l-5.42-7h.11v7h-.21Z"/>
                  <path class="st19" d="M1140.31,843.21v-7.24h2.74c.77,0,1.43.16,2.01.47.57.31,1.02.74,1.33,1.29.32.54.48,1.17.48,1.86s-.16,1.32-.48,1.86-.76.97-1.33,1.29-1.24.47-2.01.47h-2.74ZM1140.51,843.01h2.51c.74,0,1.38-.15,1.92-.45.54-.3.97-.7,1.26-1.22.3-.51.44-1.1.44-1.76s-.15-1.25-.44-1.76c-.3-.51-.72-.92-1.26-1.22-.54-.3-1.19-.44-1.92-.44h-2.51v6.85Z"/>
                  <path class="st19" d="M1150.62,843.24c-.52,0-1.02-.1-1.48-.29-.46-.19-.82-.44-1.06-.73l.15-.13c.23.27.56.5.99.68.43.19.9.28,1.4.28s.95-.07,1.29-.22c.33-.14.58-.34.74-.58.16-.25.24-.52.24-.81,0-.34-.08-.62-.25-.83-.17-.21-.39-.38-.66-.5-.28-.12-.58-.22-.9-.3-.33-.08-.65-.16-.98-.24-.33-.08-.63-.19-.9-.33-.28-.13-.5-.32-.66-.55-.17-.23-.25-.54-.25-.92,0-.32.08-.61.25-.89.17-.28.43-.5.79-.67.36-.17.82-.26,1.38-.26.39,0,.77.06,1.14.18.38.12.69.28.96.48l-.11.17c-.29-.21-.61-.37-.96-.48s-.69-.16-1.01-.16c-.5,0-.92.07-1.25.22s-.58.34-.73.59c-.16.24-.24.52-.24.82,0,.35.08.63.25.84.17.21.39.38.66.5.28.12.58.22.91.3.33.08.65.16.98.25.32.09.62.2.9.33.28.13.5.32.66.54.17.23.25.53.25.9,0,.32-.09.61-.26.89-.17.28-.44.5-.81.67s-.83.25-1.41.25Z"/>
                </g>
              </g>
            </g>
          </g>
          <g>
            <path class="st6" d="M762.65,886.06v-6.03h.17v5.87h3.59v.16h-3.77Z"/>
            <path class="st6" d="M769.97,886.08c-.44,0-.85-.08-1.23-.23-.38-.15-.7-.37-.98-.64-.28-.28-.5-.6-.65-.96-.16-.37-.23-.77-.23-1.21s.08-.84.23-1.21c.15-.37.37-.69.65-.96.28-.28.61-.49.98-.64.38-.15.79-.23,1.23-.23s.85.08,1.23.23c.38.15.7.37.98.64.28.28.5.6.65.96.16.37.23.77.23,1.21s-.08.84-.23,1.21c-.15.37-.37.69-.65.96-.28.28-.61.49-.98.64-.38.15-.79.23-1.23.23ZM769.97,885.92c.41,0,.8-.07,1.15-.22.36-.14.67-.35.93-.61.26-.26.47-.57.62-.91s.22-.73.22-1.14-.07-.79-.22-1.14-.35-.65-.62-.91c-.26-.26-.57-.46-.93-.61-.36-.14-.74-.22-1.15-.22s-.8.07-1.15.22c-.36.14-.67.35-.93.61-.26.26-.47.57-.62.91s-.22.73-.22,1.14.07.79.22,1.14.35.65.62.91c.26.26.57.46.93.61.36.14.74.22,1.15.22Z"/>
            <path class="st6" d="M774.72,886.06v-6.03h2.04c.74,0,1.32.17,1.74.52.42.35.63.83.63,1.46,0,.41-.09.77-.28,1.06-.19.3-.46.52-.81.68-.35.16-.78.24-1.27.24h-1.95l.08-.08v2.15h-.17ZM774.89,883.89l-.08-.07h1.96c.71,0,1.25-.16,1.62-.48.37-.32.56-.77.56-1.34s-.19-1.03-.56-1.34c-.37-.32-.91-.47-1.62-.47h-1.96l.08-.07v3.77ZM779,886.06l-1.58-2.19h.22l1.58,2.19h-.22Z"/>
            <path class="st6" d="M780.89,886.06v-6.03h3.89v.16h-3.71v5.7h3.84v.16h-4.02ZM781.02,883.08v-.16h3.37v.16h-3.37Z"/>
            <path class="st6" d="M786.65,886.06v-6.03h.15l2.87,5.01h-.08l2.86-5.01h.15v6.03h-.17v-5.78h.07l-2.82,4.93h-.1l-2.83-4.93h.08v5.78h-.17Z"/>
            <path class="st6" d="M797.04,886.06v-6.03h.17v6.03h-.17Z"/>
            <path class="st6" d="M799.5,886.06v-6.03h2.04c.49,0,.92.08,1.27.24.35.16.62.38.81.68.19.29.28.65.28,1.07s-.09.77-.28,1.06c-.19.3-.46.52-.81.68-.35.16-.78.24-1.27.24h-1.95l.08-.08v2.15h-.17ZM799.67,883.89l-.08-.07h1.96c.71,0,1.25-.16,1.62-.48.37-.32.56-.77.56-1.34s-.19-1.03-.56-1.34c-.37-.32-.91-.47-1.62-.47h-1.96l.08-.07v3.77Z"/>
            <path class="st6" d="M807.09,886.08c-.44,0-.85-.08-1.24-.24-.39-.16-.68-.36-.88-.61l.12-.11c.19.22.46.41.82.57.36.15.75.23,1.17.23s.79-.06,1.07-.18c.28-.12.49-.28.62-.49s.2-.43.2-.68c0-.29-.07-.52-.21-.69-.14-.17-.32-.31-.55-.41-.23-.1-.48-.18-.75-.25s-.54-.13-.81-.2c-.27-.07-.52-.16-.75-.27-.23-.11-.41-.27-.55-.46s-.21-.45-.21-.77c0-.26.07-.51.21-.74.14-.23.36-.42.65-.56s.68-.22,1.15-.22c.32,0,.64.05.95.15s.58.23.8.4l-.09.14c-.24-.18-.51-.31-.8-.4-.29-.09-.57-.13-.84-.13-.42,0-.77.06-1.04.19-.28.12-.48.29-.61.49s-.2.43-.2.68c0,.29.07.53.21.7.14.18.32.31.55.41s.48.18.75.25c.27.07.54.13.81.21.27.07.52.16.75.28.23.11.41.26.55.45.14.19.21.44.21.75,0,.26-.07.51-.22.74-.14.23-.37.42-.67.56-.3.14-.69.21-1.17.21Z"/>
            <path class="st6" d="M813.07,886.08c-.72,0-1.29-.21-1.7-.64-.42-.43-.62-1.06-.62-1.91v-3.51h.17v3.5c0,.8.19,1.4.56,1.8.38.4.91.59,1.59.59s1.21-.2,1.59-.59c.38-.4.56-1,.56-1.8v-3.5h.17v3.51c0,.85-.21,1.49-.62,1.91-.42.42-.98.64-1.7.64Z"/>
            <path class="st6" d="M817.64,886.06v-6.03h.15l2.87,5.01h-.08l2.86-5.01h.15v6.03h-.17v-5.78h.07l-2.82,4.93h-.1l-2.83-4.93h.08v5.78h-.17Z"/>
            <path class="st6" d="M828.03,886.06v-6.03h2.28c.64,0,1.19.13,1.67.39.48.26.85.62,1.11,1.07.26.45.4.97.4,1.55s-.13,1.1-.4,1.55c-.26.45-.63.81-1.11,1.07-.48.26-1.03.39-1.67.39h-2.28ZM828.2,885.89h2.09c.61,0,1.15-.12,1.6-.37.45-.25.8-.58,1.05-1.01.25-.43.37-.92.37-1.47s-.12-1.04-.37-1.47c-.25-.43-.6-.77-1.05-1.01-.45-.25-.99-.37-1.6-.37h-2.09v5.7Z"/>
            <path class="st6" d="M837.6,886.08c-.44,0-.85-.08-1.23-.23-.38-.15-.7-.37-.98-.64-.28-.28-.5-.6-.65-.96-.16-.37-.23-.77-.23-1.21s.08-.84.23-1.21c.15-.37.37-.69.65-.96.28-.28.61-.49.98-.64.38-.15.79-.23,1.23-.23s.85.08,1.23.23c.38.15.7.37.98.64.28.28.5.6.65.96.16.37.23.77.23,1.21s-.08.84-.23,1.21c-.15.37-.37.69-.65.96-.28.28-.61.49-.98.64-.38.15-.79.23-1.23.23ZM837.6,885.92c.41,0,.8-.07,1.15-.22.36-.14.67-.35.93-.61.26-.26.47-.57.62-.91s.22-.73.22-1.14-.07-.79-.22-1.14-.35-.65-.62-.91c-.26-.26-.57-.46-.93-.61-.36-.14-.74-.22-1.15-.22s-.8.07-1.15.22c-.36.14-.67.35-.93.61-.26.26-.47.57-.62.91s-.22.73-.22,1.14.07.79.22,1.14.35.65.62.91c.26.26.57.46.93.61.36.14.74.22,1.15.22Z"/>
            <path class="st6" d="M842.35,886.06v-6.03h.17v5.87h3.59v.16h-3.77Z"/>
            <path class="st6" d="M849.67,886.08c-.44,0-.85-.08-1.23-.23-.38-.15-.7-.37-.98-.64-.28-.28-.5-.6-.65-.96-.16-.37-.23-.77-.23-1.21s.08-.84.23-1.21c.15-.37.37-.69.65-.96.28-.28.61-.49.98-.64.38-.15.79-.23,1.23-.23s.85.08,1.23.23c.38.15.7.37.98.64.28.28.5.6.65.96.16.37.23.77.23,1.21s-.08.84-.23,1.21c-.15.37-.37.69-.65.96-.28.28-.61.49-.98.64-.38.15-.79.23-1.23.23ZM849.67,885.92c.41,0,.8-.07,1.15-.22.36-.14.67-.35.93-.61.26-.26.47-.57.62-.91s.22-.73.22-1.14-.07-.79-.22-1.14-.35-.65-.62-.91c-.26-.26-.57-.46-.93-.61-.36-.14-.74-.22-1.15-.22s-.8.07-1.15.22c-.36.14-.67.35-.93.61-.26.26-.47.57-.62.91s-.22.73-.22,1.14.07.79.22,1.14.35.65.62.91c.26.26.57.46.93.61.36.14.74.22,1.15.22Z"/>
            <path class="st6" d="M854.42,886.06v-6.03h2.04c.74,0,1.32.17,1.74.52.42.35.63.83.63,1.46,0,.41-.1.77-.29,1.06s-.46.52-.81.68-.78.24-1.27.24h-1.95l.08-.08v2.15h-.17ZM854.59,883.89l-.08-.07h1.96c.71,0,1.25-.16,1.62-.48.37-.32.56-.77.56-1.34s-.19-1.03-.56-1.34c-.38-.32-.91-.47-1.62-.47h-1.96l.08-.07v3.77ZM858.7,886.06l-1.58-2.19h.21l1.58,2.19h-.22Z"/>
            <path class="st6" d="M864.22,886.08c-.44,0-.85-.08-1.24-.24-.39-.16-.68-.36-.88-.61l.12-.11c.19.22.46.41.82.57.36.15.75.23,1.17.23s.79-.06,1.07-.18c.28-.12.49-.28.62-.49s.2-.43.2-.68c0-.29-.07-.52-.21-.69-.14-.17-.32-.31-.55-.41s-.48-.18-.75-.25c-.27-.07-.54-.13-.81-.2-.27-.07-.52-.16-.75-.27-.23-.11-.41-.27-.55-.46s-.21-.45-.21-.77c0-.26.07-.51.21-.74.14-.23.36-.42.66-.56s.68-.22,1.15-.22c.32,0,.64.05.95.15.31.1.58.23.8.4l-.09.14c-.24-.18-.51-.31-.8-.4-.29-.09-.57-.13-.84-.13-.42,0-.77.06-1.04.19-.28.12-.48.29-.61.49-.13.2-.2.43-.2.68,0,.29.07.53.21.7.14.18.32.31.55.41s.48.18.75.25c.27.07.54.13.81.21.27.07.52.16.75.28.23.11.41.26.55.45s.21.44.21.75c0,.26-.07.51-.22.74-.14.23-.37.42-.67.56-.3.14-.7.21-1.17.21Z"/>
            <path class="st6" d="M867.92,886.06v-6.03h.17v6.03h-.17Z"/>
            <path class="st6" d="M871.51,886.06v-5.87h-2.24v-.16h4.65v.16h-2.24v5.87h-.17Z"/>
            <path class="st6" d="M876.19,886.06l2.8-6.03h.17l2.8,6.03h-.2l-2.73-5.89h.09l-2.73,5.89h-.2ZM877.11,884.24l.09-.16h3.75l.09.16h-3.92Z"/>
            <path class="st6" d="M883.19,886.06v-6.03h.15l2.87,5.01h-.08l2.86-5.01h.15v6.03h-.17v-5.78h.07l-2.82,4.93h-.1l-2.83-4.93h.08v5.78h-.17Z"/>
            <path class="st6" d="M891.43,886.06v-6.03h3.89v.16h-3.71v5.7h3.84v.16h-4.02ZM891.56,883.08v-.16h3.37v.16h-3.37Z"/>
            <path class="st6" d="M898.31,886.06v-5.87h-2.24v-.16h4.65v.16h-2.24v5.87h-.17Z"/>
            <path class="st6" d="M901.03,887.26l.27-1.28v.09c-.07,0-.13-.02-.17-.07s-.07-.1-.07-.16c0-.06.02-.12.07-.16s.1-.06.16-.06c.07,0,.12.02.16.07.04.05.06.1.06.15,0,.03,0,.06,0,.09,0,.03,0,.05-.01.08,0,.02-.01.05-.02.09l-.28,1.15h-.16Z"/>
            <path class="st6" d="M907.82,886.08c-.44,0-.85-.08-1.23-.23-.38-.15-.7-.37-.98-.64-.28-.28-.5-.6-.65-.96-.16-.37-.23-.77-.23-1.21s.08-.84.23-1.21c.16-.37.37-.69.65-.96.28-.28.61-.49.98-.64.38-.15.79-.23,1.23-.23.4,0,.77.06,1.13.19.36.13.66.32.92.58l-.1.12c-.28-.26-.58-.45-.9-.56-.33-.11-.68-.16-1.04-.16-.41,0-.8.07-1.15.22-.36.15-.67.35-.93.61-.26.26-.47.57-.62.91s-.22.72-.22,1.13.07.79.22,1.13.35.65.62.91c.26.26.57.47.93.61.36.15.74.22,1.15.22.37,0,.71-.06,1.04-.17.33-.11.63-.3.9-.56l.1.12c-.26.26-.57.45-.92.58-.36.13-.73.19-1.13.19Z"/>
            <path class="st6" d="M913.56,886.08c-.44,0-.85-.08-1.23-.23-.38-.15-.7-.37-.98-.64-.28-.28-.5-.6-.65-.96-.16-.37-.23-.77-.23-1.21s.08-.84.23-1.21c.16-.37.37-.69.65-.96.28-.28.61-.49.98-.64.38-.15.79-.23,1.23-.23s.85.08,1.23.23.7.37.98.64c.28.28.5.6.65.96.16.37.23.77.23,1.21s-.08.84-.23,1.21c-.16.37-.37.69-.65.96-.28.28-.61.49-.98.64s-.79.23-1.23.23ZM913.56,885.92c.41,0,.8-.07,1.15-.22.36-.14.67-.35.93-.61.26-.26.47-.57.62-.91s.22-.73.22-1.14-.07-.79-.22-1.14-.35-.65-.62-.91c-.26-.26-.57-.46-.93-.61-.36-.14-.74-.22-1.15-.22s-.8.07-1.15.22c-.36.14-.67.35-.93.61-.26.26-.47.57-.62.91s-.22.73-.22,1.14.07.79.22,1.14.35.65.62.91c.26.26.57.46.93.61.36.14.74.22,1.15.22Z"/>
            <path class="st6" d="M918.31,886.06v-6.03h.15l4.52,5.83h-.09v-5.83h.17v6.03h-.15l-4.51-5.83h.09v5.83h-.17Z"/>
            <path class="st6" d="M926.81,886.08c-.44,0-.85-.08-1.24-.24-.39-.16-.68-.36-.88-.61l.12-.11c.19.22.46.41.82.57.36.15.75.23,1.17.23s.79-.06,1.07-.18c.28-.12.49-.28.62-.49s.2-.43.2-.68c0-.29-.07-.52-.21-.69-.14-.17-.32-.31-.55-.41s-.48-.18-.75-.25c-.27-.07-.54-.13-.81-.2-.27-.07-.52-.16-.75-.27-.23-.11-.41-.27-.55-.46s-.21-.45-.21-.77c0-.26.07-.51.21-.74.14-.23.36-.42.66-.56s.68-.22,1.15-.22c.32,0,.64.05.95.15.31.1.58.23.8.4l-.09.14c-.24-.18-.51-.31-.8-.4-.29-.09-.57-.13-.84-.13-.42,0-.77.06-1.04.19-.28.12-.48.29-.61.49-.13.2-.2.43-.2.68,0,.29.07.53.21.7.14.18.32.31.55.41s.48.18.75.25c.27.07.54.13.81.21.27.07.52.16.75.28.23.11.41.26.55.45s.21.44.21.75c0,.26-.07.51-.22.74-.14.23-.37.42-.67.56-.3.14-.7.21-1.17.21Z"/>
            <path class="st6" d="M930.52,886.06v-6.03h3.89v.16h-3.71v5.7h3.84v.16h-4.02ZM930.65,883.08v-.16h3.37v.16h-3.37Z"/>
            <path class="st6" d="M938.69,886.08c-.44,0-.85-.08-1.23-.23-.38-.15-.7-.37-.98-.64-.28-.28-.5-.6-.65-.96-.16-.37-.23-.77-.23-1.21s.08-.84.23-1.21c.16-.37.37-.69.65-.96.28-.28.61-.49.98-.64.38-.15.79-.23,1.23-.23.4,0,.77.06,1.13.19.36.13.66.32.92.58l-.1.12c-.28-.26-.58-.45-.9-.56-.33-.11-.68-.16-1.04-.16-.41,0-.8.07-1.15.22-.36.15-.67.35-.93.61-.26.26-.47.57-.62.91s-.22.72-.22,1.13.07.79.22,1.13.35.65.62.91c.26.26.57.47.93.61.36.15.74.22,1.15.22.37,0,.71-.06,1.04-.17.33-.11.63-.3.9-.56l.1.12c-.26.26-.57.45-.92.58-.36.13-.73.19-1.13.19Z"/>
            <path class="st6" d="M943.31,886.06v-5.87h-2.24v-.16h4.65v.16h-2.24v5.87h-.17Z"/>
            <path class="st6" d="M946.91,886.06v-6.03h3.89v.16h-3.71v5.7h3.84v.16h-4.02ZM947.04,883.08v-.16h3.37v.16h-3.37Z"/>
            <path class="st6" d="M953.79,886.06v-5.87h-2.24v-.16h4.65v.16h-2.24v5.87h-.17Z"/>
            <path class="st6" d="M959.53,886.08c-.72,0-1.29-.21-1.7-.64-.42-.43-.62-1.06-.62-1.91v-3.51h.17v3.5c0,.8.19,1.4.56,1.8s.91.59,1.59.59,1.21-.2,1.59-.59c.38-.4.56-1,.56-1.8v-3.5h.17v3.51c0,.85-.21,1.49-.62,1.91-.42.42-.98.64-1.7.64Z"/>
            <path class="st6" d="M964.1,886.06v-6.03h3.89v.16h-3.71v5.7h3.84v.16h-4.02ZM964.23,883.08v-.16h3.37v.16h-3.37Z"/>
            <path class="st6" d="M969.85,886.06v-6.03h2.04c.74,0,1.32.17,1.74.52.42.35.63.83.63,1.46,0,.41-.09.77-.28,1.06s-.46.52-.81.68-.78.24-1.27.24h-1.95l.08-.08v2.15h-.17ZM970.02,883.89l-.08-.07h1.96c.71,0,1.25-.16,1.62-.48.37-.32.56-.77.56-1.34s-.19-1.03-.56-1.34c-.37-.32-.91-.47-1.62-.47h-1.96l.08-.07v3.77ZM974.13,886.06l-1.58-2.19h.21l1.58,2.19h-.22Z"/>
            <path class="st6" d="M977.11,886.06l2.8-6.03h.17l2.8,6.03h-.2l-2.73-5.89h.09l-2.73,5.89h-.2ZM978.03,884.24l.09-.16h3.75l.09.16h-3.92Z"/>
            <path class="st6" d="M984.1,886.06v-6.03h2.28c.64,0,1.19.13,1.67.39.48.26.85.62,1.11,1.07.26.45.4.97.4,1.55s-.13,1.1-.4,1.55c-.26.45-.63.81-1.11,1.07-.48.26-1.03.39-1.67.39h-2.28ZM984.28,885.89h2.09c.61,0,1.15-.12,1.6-.37s.8-.58,1.05-1.01c.25-.43.37-.92.37-1.47s-.12-1.04-.37-1.47-.6-.77-1.05-1.01-.99-.37-1.6-.37h-2.09v5.7Z"/>
            <path class="st6" d="M991.22,886.06v-6.03h.17v6.03h-.17Z"/>
            <path class="st6" d="M993.68,886.06v-6.03h2.04c.49,0,.92.08,1.27.24.35.16.62.38.81.68s.28.65.28,1.07-.09.77-.28,1.06-.46.52-.81.68-.78.24-1.27.24h-1.95l.08-.08v2.15h-.17ZM993.86,883.89l-.08-.07h1.96c.71,0,1.25-.16,1.62-.48.37-.32.56-.77.56-1.34s-.19-1.03-.56-1.34c-.37-.32-.91-.47-1.62-.47h-1.96l.08-.07v3.77Z"/>
            <path class="st6" d="M999.71,886.06v-6.03h.17v6.03h-.17Z"/>
            <path class="st6" d="M1003.65,886.08c-.44,0-.85-.08-1.24-.24-.39-.16-.68-.36-.88-.61l.12-.11c.19.22.46.41.82.57.36.15.75.23,1.17.23s.79-.06,1.07-.18c.28-.12.49-.28.62-.49s.2-.43.2-.68c0-.29-.07-.52-.21-.69-.14-.17-.32-.31-.55-.41s-.48-.18-.75-.25c-.27-.07-.54-.13-.81-.2-.27-.07-.52-.16-.75-.27-.23-.11-.41-.27-.55-.46s-.21-.45-.21-.77c0-.26.07-.51.21-.74.14-.23.36-.42.66-.56s.68-.22,1.15-.22c.32,0,.64.05.95.15.31.1.58.23.8.4l-.09.14c-.24-.18-.51-.31-.8-.4-.29-.09-.57-.13-.84-.13-.42,0-.77.06-1.04.19-.28.12-.48.29-.61.49-.13.2-.2.43-.2.68,0,.29.07.53.21.7.14.18.32.31.55.41s.48.18.75.25c.27.07.54.13.81.21.27.07.52.16.75.28.23.11.41.26.55.45s.21.44.21.75c0,.26-.07.51-.22.74-.14.23-.37.42-.67.56-.3.14-.7.21-1.17.21Z"/>
            <path class="st6" d="M1009.81,886.08c-.44,0-.85-.08-1.23-.23-.38-.15-.7-.37-.98-.64-.28-.28-.5-.6-.65-.96-.16-.37-.23-.77-.23-1.21s.08-.84.23-1.21c.16-.37.37-.69.65-.96.28-.28.61-.49.98-.64.38-.15.79-.23,1.23-.23.4,0,.77.06,1.13.19.36.13.66.32.92.58l-.1.12c-.28-.26-.58-.45-.9-.56-.33-.11-.68-.16-1.04-.16-.41,0-.8.07-1.15.22-.36.15-.67.35-.93.61-.26.26-.47.57-.62.91s-.22.72-.22,1.13.07.79.22,1.13.35.65.62.91c.26.26.57.47.93.61.36.15.74.22,1.15.22.37,0,.71-.06,1.04-.17.33-.11.63-.3.9-.56l.1.12c-.26.26-.57.45-.92.58-.36.13-.73.19-1.13.19Z"/>
            <path class="st6" d="M1013.4,886.06v-6.03h.17v6.03h-.17Z"/>
            <path class="st6" d="M1015.86,886.06v-6.03h.15l4.52,5.83h-.09v-5.83h.17v6.03h-.15l-4.51-5.83h.09v5.83h-.17Z"/>
            <path class="st6" d="M1025.37,886.08c-.45,0-.86-.08-1.24-.23s-.71-.37-.99-.64c-.28-.28-.5-.6-.65-.96-.16-.37-.23-.77-.23-1.21s.08-.84.23-1.21c.16-.37.37-.69.65-.96.28-.28.61-.49.99-.64s.79-.23,1.24-.23c.41,0,.79.06,1.15.19.36.13.67.32.93.58l-.1.12c-.28-.26-.58-.45-.91-.56s-.68-.16-1.06-.16c-.42,0-.81.07-1.17.22-.36.15-.67.35-.94.61-.27.26-.47.57-.62.91s-.22.72-.22,1.13.07.79.22,1.13.35.65.62.91c.27.26.58.47.94.61.36.15.75.22,1.17.22.38,0,.74-.06,1.07-.17.34-.11.64-.3.9-.57l.1.13c-.26.26-.57.45-.93.58-.36.13-.74.19-1.15.19ZM1027.45,885.31l-.16-.02v-2.19h.16v2.21Z"/>
            <path class="st6" d="M1031.71,886.06v-6.03h3.89v.16h-3.71v5.7h3.84v.16h-4.02ZM1031.84,883.08v-.16h3.37v.16h-3.37Z"/>
            <path class="st6" d="M1037.47,886.06v-6.03h.17v5.87h3.59v.16h-3.77Z"/>
            <path class="st6" d="M1042.47,886.06v-6.03h.17v6.03h-.17Z"/>
            <path class="st6" d="M1046.06,886.06v-5.87h-2.24v-.16h4.65v.16h-2.24v5.87h-.17Z"/>
            <path class="st6" d="M1048.78,887.26l.27-1.28v.09c-.07,0-.13-.02-.17-.07s-.07-.1-.07-.16c0-.06.02-.12.07-.16s.1-.06.16-.06c.07,0,.12.02.16.07.04.05.06.1.06.15,0,.03,0,.06,0,.09,0,.03,0,.05-.01.08,0,.02-.01.05-.02.09l-.28,1.15h-.16Z"/>
            <path class="st6" d="M1054.59,886.08c-.44,0-.85-.08-1.24-.24-.39-.16-.68-.36-.88-.61l.12-.11c.19.22.46.41.82.57.36.15.75.23,1.17.23s.79-.06,1.07-.18c.28-.12.49-.28.62-.49s.2-.43.2-.68c0-.29-.07-.52-.21-.69-.14-.17-.32-.31-.55-.41s-.48-.18-.75-.25c-.27-.07-.54-.13-.81-.2-.27-.07-.52-.16-.75-.27-.23-.11-.41-.27-.55-.46s-.21-.45-.21-.77c0-.26.07-.51.21-.74.14-.23.36-.42.66-.56s.68-.22,1.15-.22c.32,0,.64.05.95.15.31.1.58.23.8.4l-.09.14c-.24-.18-.51-.31-.8-.4-.29-.09-.57-.13-.84-.13-.42,0-.77.06-1.04.19-.28.12-.48.29-.61.49-.13.2-.2.43-.2.68,0,.29.07.53.21.7.14.18.32.31.55.41s.48.18.75.25c.27.07.54.13.81.21.27.07.52.16.75.28.23.11.41.26.55.45s.21.44.21.75c0,.26-.07.51-.22.74-.14.23-.37.42-.67.56-.3.14-.7.21-1.17.21Z"/>
            <path class="st6" d="M1058.3,886.06v-6.03h3.89v.16h-3.71v5.7h3.84v.16h-4.02ZM1058.43,883.08v-.16h3.37v.16h-3.37Z"/>
            <path class="st6" d="M1064.05,886.06v-6.03h2.28c.64,0,1.19.13,1.67.39.48.26.85.62,1.11,1.07.26.45.4.97.4,1.55s-.13,1.1-.4,1.55c-.26.45-.63.81-1.11,1.07-.48.26-1.03.39-1.67.39h-2.28ZM1064.23,885.89h2.09c.61,0,1.15-.12,1.6-.37s.8-.58,1.05-1.01c.25-.43.37-.92.37-1.47s-.12-1.04-.37-1.47-.6-.77-1.05-1.01-.99-.37-1.6-.37h-2.09v5.7Z"/>
            <path class="st6" d="M1073.32,886.06v-6.03h2.28c.64,0,1.19.13,1.67.39.48.26.85.62,1.11,1.07.26.45.4.97.4,1.55s-.13,1.1-.4,1.55c-.26.45-.63.81-1.11,1.07-.48.26-1.03.39-1.67.39h-2.28ZM1073.5,885.89h2.09c.61,0,1.15-.12,1.6-.37s.8-.58,1.05-1.01c.25-.43.37-.92.37-1.47s-.12-1.04-.37-1.47-.6-.77-1.05-1.01-.99-.37-1.6-.37h-2.09v5.7Z"/>
            <path class="st6" d="M1080.44,886.06v-6.03h.17v6.03h-.17Z"/>
            <path class="st6" d="M1081.84,886.06l2.8-6.03h.17l2.8,6.03h-.2l-2.73-5.89h.09l-2.73,5.89h-.2ZM1082.76,884.24l.09-.16h3.75l.09.16h-3.92Z"/>
            <path class="st6" d="M1088.83,886.06v-6.03h.15l2.87,5.01h-.08l2.86-5.01h.15v6.03h-.17v-5.78h.07l-2.82,4.93h-.1l-2.83-4.93h.08v5.78h-.17Z"/>
            <path class="st6" d="M1099.22,886.06v-6.03h.15l4.52,5.83h-.09v-5.83h.17v6.03h-.15l-4.51-5.83h.09v5.83h-.17Z"/>
            <path class="st6" d="M1108.71,886.08c-.44,0-.85-.08-1.23-.23-.38-.15-.7-.37-.98-.64-.28-.28-.5-.6-.65-.96-.16-.37-.23-.77-.23-1.21s.08-.84.23-1.21c.16-.37.37-.69.65-.96.28-.28.61-.49.98-.64.38-.15.79-.23,1.23-.23s.85.08,1.23.23.7.37.98.64c.28.28.5.6.65.96.16.37.23.77.23,1.21s-.08.84-.23,1.21c-.16.37-.37.69-.65.96-.28.28-.61.49-.98.64s-.79.23-1.23.23ZM1108.71,885.92c.41,0,.8-.07,1.15-.22.36-.14.67-.35.93-.61.26-.26.47-.57.62-.91s.22-.73.22-1.14-.07-.79-.22-1.14-.35-.65-.62-.91c-.26-.26-.57-.46-.93-.61-.36-.14-.74-.22-1.15-.22s-.8.07-1.15.22c-.36.14-.67.35-.93.61-.26.26-.47.57-.62.91s-.22.73-.22,1.14.07.79.22,1.14.35.65.62.91c.26.26.57.46.93.61.36.14.74.22,1.15.22Z"/>
            <path class="st6" d="M1113.46,886.06v-6.03h.15l4.52,5.83h-.09v-5.83h.17v6.03h-.15l-4.51-5.83h.09v5.83h-.17Z"/>
            <path class="st6" d="M1122.76,886.08c-.72,0-1.29-.21-1.7-.64-.42-.43-.62-1.06-.62-1.91v-3.51h.17v3.5c0,.8.19,1.4.56,1.8s.91.59,1.59.59,1.21-.2,1.59-.59c.38-.4.56-1,.56-1.8v-3.5h.17v3.51c0,.85-.21,1.49-.62,1.91-.42.42-.98.64-1.7.64Z"/>
            <path class="st6" d="M1127.33,886.06v-6.03h.15l2.87,5.01h-.08l2.86-5.01h.15v6.03h-.17v-5.78h.07l-2.82,4.93h-.1l-2.83-4.93h.08v5.78h-.17Z"/>
            <path class="st6" d="M1135.57,886.06v-6.03h.15l2.87,5.01h-.08l2.86-5.01h.15v6.03h-.17v-5.78h.07l-2.82,4.93h-.1l-2.83-4.93h.08v5.78h-.17Z"/>
            <path class="st6" d="M1145.07,886.06v-2.11l.04.13-2.5-4.05h.2l2.38,3.85h-.07l2.38-3.85h.2l-2.5,4.05.04-.13v2.11h-.17Z"/>
            <path class="st6" d="M847.38,903.29v-6.03h.15l4.51,5.83h-.09v-5.83h.17v6.03h-.15l-4.51-5.83h.09v5.83h-.17Z"/>
            <path class="st6" d="M854.41,903.29v-6.03h.17v6.03h-.17Z"/>
            <path class="st6" d="M856.88,903.29v-6.03h2.39c.62,0,1.11.13,1.48.38.36.25.55.64.55,1.14,0,.33-.08.61-.24.83-.16.22-.38.39-.67.5-.29.11-.62.16-.99.16l.15-.11c.46,0,.85.06,1.16.18.31.12.54.29.69.52s.23.51.23.85c0,.51-.18.9-.54,1.17-.36.27-.91.41-1.64.41h-2.56ZM857.05,903.12h2.42c.64,0,1.13-.11,1.47-.34.34-.23.5-.58.5-1.07s-.17-.84-.5-1.07c-.34-.22-.83-.34-1.47-.34h-2.46v-.16h2.29c.57,0,1.02-.12,1.34-.34.32-.23.48-.57.48-1.02s-.16-.79-.48-1.02c-.32-.23-.77-.34-1.34-.34h-2.25v5.7Z"/>
            <path class="st6" d="M863.32,903.29v-6.03h.17v6.03h-.17ZM863.45,900.31v-.16h4.48v.16h-4.48ZM867.89,903.29v-6.03h.17v6.03h-.17Z"/>
            <path class="st6" d="M872.5,903.29v-6.03h3.89v.16h-3.71v5.7h3.84v.16h-4.02ZM872.63,900.31v-.16h3.37v.16h-3.37Z"/>
            <path class="st6" d="M880.54,903.31c-.72,0-1.29-.21-1.7-.64-.42-.43-.62-1.06-.62-1.91v-3.51h.17v3.5c0,.8.19,1.4.56,1.8s.91.59,1.59.59,1.21-.2,1.59-.59c.38-.4.56-1,.56-1.8v-3.5h.17v3.51c0,.85-.21,1.49-.62,1.91-.42.42-.98.64-1.7.64Z"/>
            <path class="st6" d="M885.1,903.29v-6.03h.17v6.03h-.17Z"/>
            <path class="st6" d="M889.04,903.31c-.44,0-.85-.08-1.24-.24-.39-.16-.68-.36-.88-.61l.12-.11c.19.22.46.41.82.57.36.15.75.23,1.17.23s.79-.06,1.07-.18c.28-.12.49-.28.62-.49s.2-.43.2-.68c0-.29-.07-.52-.21-.69-.14-.17-.32-.31-.55-.41s-.48-.18-.75-.25c-.27-.07-.54-.13-.81-.2-.27-.07-.52-.16-.75-.27-.23-.11-.41-.27-.55-.46s-.21-.45-.21-.77c0-.26.07-.51.21-.74.14-.23.36-.42.66-.56s.68-.22,1.15-.22c.32,0,.64.05.95.15.31.1.58.23.8.4l-.09.14c-.24-.18-.51-.31-.8-.4-.29-.09-.57-.13-.84-.13-.42,0-.77.06-1.04.19-.28.12-.48.29-.61.49-.13.2-.2.43-.2.68,0,.29.07.53.21.7.14.18.32.31.55.41s.48.18.75.25c.27.07.54.13.81.21.27.07.52.16.75.28.23.11.41.26.55.45s.21.44.21.75c0,.26-.07.51-.22.74-.14.23-.37.42-.67.56-.3.14-.7.21-1.17.21Z"/>
            <path class="st6" d="M892.74,903.29v-6.03h.15l2.87,5.01h-.08l2.86-5.01h.15v6.03h-.17v-5.78h.07l-2.82,4.93h-.1l-2.83-4.93h.08v5.78h-.17Z"/>
            <path class="st6" d="M903.44,903.31c-.44,0-.85-.08-1.23-.23-.38-.15-.7-.37-.98-.64-.28-.28-.5-.6-.65-.96-.16-.37-.23-.77-.23-1.21s.08-.84.23-1.21c.16-.37.37-.69.65-.96.28-.28.61-.49.98-.64.38-.15.79-.23,1.23-.23s.85.08,1.23.23.7.37.98.64c.28.28.5.6.65.96.16.37.23.77.23,1.21s-.08.84-.23,1.21c-.16.37-.37.69-.65.96-.28.28-.61.49-.98.64s-.79.23-1.23.23ZM903.44,903.15c.41,0,.8-.07,1.15-.22.36-.14.67-.35.93-.61.26-.26.47-.57.62-.91s.22-.73.22-1.14-.07-.79-.22-1.14-.35-.65-.62-.91c-.26-.26-.57-.46-.93-.61-.36-.14-.74-.22-1.15-.22s-.8.07-1.15.22c-.36.14-.67.35-.93.61-.26.26-.47.57-.62.91s-.22.73-.22,1.14.07.79.22,1.14.35.65.62.91c.26.26.57.46.93.61.36.14.74.22,1.15.22Z"/>
            <path class="st6" d="M908.18,903.29v-6.03h2.28c.64,0,1.19.13,1.67.39.48.26.85.62,1.11,1.07.26.45.4.97.4,1.55s-.13,1.1-.4,1.55c-.26.45-.63.81-1.11,1.07-.48.26-1.03.39-1.67.39h-2.28ZM908.36,903.12h2.09c.61,0,1.15-.12,1.6-.37s.8-.58,1.05-1.01c.25-.43.37-.92.37-1.47s-.12-1.04-.37-1.47-.6-.77-1.05-1.01-.99-.37-1.6-.37h-2.09v5.7Z"/>
            <path class="st6" d="M918.58,903.29v-5.87h-2.24v-.16h4.65v.16h-2.24v5.87h-.17Z"/>
            <path class="st6" d="M922.18,903.29v-6.03h.17v6.03h-.17Z"/>
            <path class="st6" d="M924.64,903.29v-6.03h.15l4.52,5.83h-.09v-5.83h.17v6.03h-.15l-4.51-5.83h.09v5.83h-.17Z"/>
            <path class="st6" d="M934.13,903.31c-.44,0-.85-.08-1.23-.23-.38-.15-.7-.37-.98-.64-.28-.28-.5-.6-.65-.96-.16-.37-.23-.77-.23-1.21s.08-.84.23-1.21c.16-.37.37-.69.65-.96.28-.28.61-.49.98-.64.38-.15.79-.23,1.23-.23.4,0,.77.06,1.13.19.36.13.66.32.92.58l-.1.12c-.28-.26-.58-.45-.9-.56-.33-.11-.68-.16-1.04-.16-.41,0-.8.07-1.15.22-.36.15-.67.35-.93.61-.26.26-.47.57-.62.91s-.22.72-.22,1.13.07.79.22,1.13.35.65.62.91c.26.26.57.47.93.61.36.15.74.22,1.15.22.37,0,.71-.06,1.04-.17.33-.11.63-.3.9-.56l.1.12c-.26.26-.57.45-.92.58-.36.13-.73.19-1.13.19Z"/>
            <path class="st6" d="M937.71,903.29v-6.03h.17v6.03h-.17Z"/>
            <path class="st6" d="M940.18,903.29v-6.03h2.28c.64,0,1.19.13,1.67.39.48.26.85.62,1.11,1.07.26.45.4.97.4,1.55s-.13,1.1-.4,1.55c-.26.45-.63.81-1.11,1.07-.48.26-1.03.39-1.67.39h-2.28ZM940.35,903.12h2.09c.61,0,1.15-.12,1.6-.37s.8-.58,1.05-1.01c.25-.43.37-.92.37-1.47s-.12-1.04-.37-1.47-.6-.77-1.05-1.01-.99-.37-1.6-.37h-2.09v5.7Z"/>
            <path class="st6" d="M949.57,903.31c-.72,0-1.29-.21-1.7-.64-.42-.43-.62-1.06-.62-1.91v-3.51h.17v3.5c0,.8.19,1.4.56,1.8s.91.59,1.59.59,1.21-.2,1.59-.59c.38-.4.56-1,.56-1.8v-3.5h.17v3.51c0,.85-.21,1.49-.62,1.91-.42.42-.98.64-1.7.64Z"/>
            <path class="st6" d="M954.13,903.29v-6.03h.15l4.52,5.83h-.09v-5.83h.17v6.03h-.15l-4.51-5.83h.09v5.83h-.17Z"/>
            <path class="st6" d="M962.29,903.29v-5.87h-2.24v-.16h4.65v.16h-2.24v5.87h-.17Z"/>
            <path class="st6" d="M970.32,903.31c-.72,0-1.29-.21-1.7-.64-.42-.43-.62-1.06-.62-1.91v-3.51h.17v3.5c0,.8.19,1.4.56,1.8s.91.59,1.59.59,1.21-.2,1.59-.59c.38-.4.56-1,.56-1.8v-3.5h.17v3.51c0,.85-.21,1.49-.62,1.91-.42.42-.98.64-1.7.64Z"/>
            <path class="st6" d="M975.88,903.29v-5.87h-2.24v-.16h4.65v.16h-2.24v5.87h-.17Z"/>
            <path class="st6" d="M981.63,903.29v-6.03h.17v5.87h3.59v.16h-3.77Z"/>
            <path class="st6" d="M985.56,903.29l2.8-6.03h.17l2.8,6.03h-.2l-2.73-5.89h.09l-2.73,5.89h-.2ZM986.48,901.47l.09-.16h3.75l.09.16h-3.92Z"/>
            <path class="st6" d="M994.92,903.31c-.44,0-.85-.08-1.23-.23-.38-.15-.7-.37-.98-.64-.28-.28-.5-.6-.65-.96-.16-.37-.23-.77-.23-1.21s.08-.84.23-1.21c.16-.37.37-.69.65-.96.28-.28.61-.49.98-.64.38-.15.79-.23,1.23-.23s.85.08,1.23.23.7.37.98.64c.28.28.5.6.65.96.16.37.23.77.23,1.21s-.08.84-.23,1.21c-.16.37-.37.69-.65.96-.28.28-.61.49-.98.64s-.79.23-1.23.23ZM994.92,903.15c.41,0,.8-.07,1.15-.22.36-.14.67-.35.93-.61.26-.26.47-.57.62-.91s.22-.73.22-1.14-.07-.79-.22-1.14-.35-.65-.62-.91c-.26-.26-.57-.46-.93-.61-.36-.14-.74-.22-1.15-.22s-.8.07-1.15.22c-.36.14-.67.35-.93.61-.26.26-.47.57-.62.91s-.22.73-.22,1.14.07.79.22,1.14.35.65.62.91c.26.26.57.46.93.61.36.14.74.22,1.15.22Z"/>
            <path class="st6" d="M999.67,903.29v-6.03h2.04c.74,0,1.32.17,1.74.52.42.35.63.83.63,1.46,0,.41-.09.77-.28,1.06s-.46.52-.81.68-.78.24-1.27.24h-1.95l.08-.08v2.15h-.17ZM999.84,901.13l-.08-.07h1.96c.71,0,1.25-.16,1.62-.48.37-.32.56-.77.56-1.34s-.19-1.03-.56-1.34c-.37-.32-.91-.47-1.62-.47h-1.96l.08-.07v3.77ZM1003.95,903.29l-1.58-2.19h.21l1.58,2.19h-.22Z"/>
            <path class="st6" d="M1005.84,903.29v-6.03h3.89v.16h-3.71v5.7h3.84v.16h-4.02ZM1005.97,900.31v-.16h3.37v.16h-3.37Z"/>
            <path class="st6" d="M1011.59,903.29v-6.03h3.89v.16h-3.71v5.7h3.84v.16h-4.02ZM1011.72,900.31v-.16h3.37v.16h-3.37Z"/>
            <path class="st6" d="M1018.48,903.29v-5.87h-2.24v-.16h4.65v.16h-2.24v5.87h-.17Z"/>
            <path class="st6" d="M1024.23,903.29v-6.03h2.28c.64,0,1.19.13,1.67.39.48.26.85.62,1.11,1.07.26.45.4.97.4,1.55s-.13,1.1-.4,1.55c-.26.45-.63.81-1.11,1.07-.48.26-1.03.39-1.67.39h-2.28ZM1024.4,903.12h2.09c.61,0,1.15-.12,1.6-.37s.8-.58,1.05-1.01c.25-.43.37-.92.37-1.47s-.12-1.04-.37-1.47-.6-.77-1.05-1.01-.99-.37-1.6-.37h-2.09v5.7Z"/>
            <path class="st6" d="M1033.8,903.31c-.44,0-.85-.08-1.23-.23-.38-.15-.7-.37-.98-.64-.28-.28-.5-.6-.65-.96-.16-.37-.23-.77-.23-1.21s.08-.84.23-1.21c.16-.37.37-.69.65-.96.28-.28.61-.49.98-.64.38-.15.79-.23,1.23-.23s.85.08,1.23.23.7.37.98.64c.28.28.5.6.65.96.16.37.23.77.23,1.21s-.08.84-.23,1.21c-.16.37-.37.69-.65.96-.28.28-.61.49-.98.64s-.79.23-1.23.23ZM1033.8,903.15c.41,0,.8-.07,1.15-.22.36-.14.67-.35.93-.61.26-.26.47-.57.62-.91s.22-.73.22-1.14-.07-.79-.22-1.14-.35-.65-.62-.91c-.26-.26-.57-.46-.93-.61-.36-.14-.74-.22-1.15-.22s-.8.07-1.15.22c-.36.14-.67.35-.93.61-.26.26-.47.57-.62.91s-.22.73-.22,1.14.07.79.22,1.14.35.65.62.91c.26.26.57.46.93.61.36.14.74.22,1.15.22Z"/>
            <path class="st6" d="M1038.55,903.29v-6.03h.17v5.87h3.59v.16h-3.77Z"/>
            <path class="st6" d="M1045.87,903.31c-.44,0-.85-.08-1.23-.23-.38-.15-.7-.37-.98-.64-.28-.28-.5-.6-.65-.96-.16-.37-.23-.77-.23-1.21s.08-.84.23-1.21c.16-.37.37-.69.65-.96.28-.28.61-.49.98-.64.38-.15.79-.23,1.23-.23s.85.08,1.23.23.7.37.98.64c.28.28.5.6.65.96.16.37.23.77.23,1.21s-.08.84-.23,1.21c-.16.37-.37.69-.65.96-.28.28-.61.49-.98.64s-.79.23-1.23.23ZM1045.87,903.15c.41,0,.8-.07,1.15-.22.36-.14.67-.35.93-.61.26-.26.47-.57.62-.91s.22-.73.22-1.14-.07-.79-.22-1.14-.35-.65-.62-.91c-.26-.26-.57-.46-.93-.61-.36-.14-.74-.22-1.15-.22s-.8.07-1.15.22c-.36.14-.67.35-.93.61-.26.26-.47.57-.62.91s-.22.73-.22,1.14.07.79.22,1.14.35.65.62.91c.26.26.57.46.93.61.36.14.74.22,1.15.22Z"/>
            <path class="st6" d="M1050.62,903.29v-6.03h2.04c.74,0,1.32.17,1.74.52.42.35.63.83.63,1.46,0,.41-.09.77-.28,1.06s-.46.52-.81.68-.78.24-1.27.24h-1.95l.08-.08v2.15h-.17ZM1050.79,901.13l-.08-.07h1.96c.71,0,1.25-.16,1.62-.48.37-.32.56-.77.56-1.34s-.19-1.03-.56-1.34c-.37-.32-.91-.47-1.62-.47h-1.96l.08-.07v3.77ZM1054.9,903.29l-1.58-2.19h.21l1.58,2.19h-.22Z"/>
            <path class="st6" d="M1056.79,903.29v-6.03h3.89v.16h-3.71v5.7h3.84v.16h-4.02ZM1056.92,900.31v-.16h3.37v.16h-3.37Z"/>
            <path class="st6" d="M1062.27,903.31c-.06,0-.11-.02-.16-.07s-.07-.1-.07-.16c0-.06.02-.12.07-.16s.1-.06.16-.06c.06,0,.12.02.16.06s.06.1.06.16c0,.06-.02.11-.06.16s-.1.07-.16.07Z"/>
          </g>
        </g>
      </g>
      <g>
        <path class="st6" d="M601.97,555.12c0,4.41-1.4,7.76-4.19,10.06-2.79,2.3-5.95,3.45-9.47,3.45s-6.68-1.15-9.47-3.45c-2.79-2.3-4.19-5.65-4.19-10.06s1.4-7.76,4.19-10.06c2.79-2.3,5.95-3.45,9.47-3.45s6.68,1.15,9.47,3.45c2.79,2.3,4.19,5.65,4.19,10.06Z"/>
        <path class="st6" d="M638.1,555.12c0,4.41-1.4,7.76-4.19,10.06-2.79,2.3-5.95,3.45-9.47,3.45s-6.68-1.15-9.47-3.45c-2.79-2.3-4.19-5.65-4.19-10.06s1.4-7.76,4.19-10.06c2.79-2.3,5.95-3.45,9.47-3.45s6.68,1.15,9.47,3.45c2.79,2.3,4.19,5.65,4.19,10.06Z"/>
        <path class="st6" d="M674.23,555.12c0,4.41-1.4,7.76-4.19,10.06-2.79,2.3-5.95,3.45-9.47,3.45s-6.68-1.15-9.47-3.45c-2.79-2.3-4.19-5.65-4.19-10.06s1.4-7.76,4.19-10.06c2.79-2.3,5.95-3.45,9.47-3.45s6.68,1.15,9.47,3.45c2.79,2.3,4.19,5.65,4.19,10.06Z"/>
        <path class="st6" d="M687.44,456.58l20.56-3.82v93.99c1.37.39,3.13.79,5.29,1.17,2.15.39,4.35.59,6.61.59h1.47v18.21h-5.14c-3.43,0-6.68-.15-9.77-.44s-5.87-.66-8.37-1.1-4.68-.88-6.54-1.32c-1.86-.44-3.23-.81-4.11-1.1v-106.18Z"/>
        <path class="st6" d="M716.96,566.73v-18.21h63.15v18.21h-63.15Z"/>
        <path class="st6" d="M775.7,566.73v-18.21h63.15v18.21h-63.15Z"/>
        <path class="st6" d="M834.45,566.73v-18.21h63.15v18.21h-63.15Z"/>
        <path class="st6" d="M893.19,566.73v-18.21h63.15v18.21h-63.15Z"/>
        <path class="st6" d="M951.93,566.73v-18.21h63.15v18.21h-63.15Z"/>
        <path class="st6" d="M1010.67,566.73v-18.21h63.15v18.21h-63.15Z"/>
        <path class="st6" d="M1082.78,495.65l20.56-3.82v54.92c1.37.39,3.13.79,5.29,1.17,2.15.39,4.36.59,6.61.59h1.47v18.21h-5.14c-3.92,0-7.42-.37-10.5-1.1s-5.75-1.54-8-2.42c-2.06.88-4.8,1.69-8.22,2.42-3.43.73-6.85,1.1-10.28,1.1h-5.14v-18.21h1.47c2.25,0,4.45-.2,6.61-.59,2.15-.39,3.92-.78,5.29-1.17v-51.11ZM1102.46,586.11c0,2.94-.93,5.26-2.79,6.98-1.86,1.71-4.06,2.57-6.61,2.57s-4.75-.86-6.61-2.57c-1.86-1.71-2.79-4.04-2.79-6.98s.93-5.26,2.79-6.98c1.86-1.71,4.06-2.57,6.61-2.57s4.75.86,6.61,2.57c1.86,1.71,2.79,4.04,2.79,6.98Z"/>
        <path class="st6" d="M1146.22,562.76c-3.43.98-7.71,1.89-12.85,2.72-5.14.83-10.45,1.25-15.93,1.25h-5.14v-18.21h1.47c2.25,0,4.45-.2,6.61-.59,2.15-.39,3.92-.78,5.29-1.17v-51.11l20.56-3.82v70.93ZM1133.15,585.52c0,2.84-.86,5.07-2.57,6.68-1.71,1.62-3.8,2.42-6.24,2.42s-4.55-.81-6.32-2.42c-1.76-1.62-2.64-3.84-2.64-6.68s.88-4.92,2.64-6.54c1.76-1.62,3.87-2.42,6.32-2.42s4.53.81,6.24,2.42c1.71,1.62,2.57,3.79,2.57,6.54ZM1153.86,585.52c0,2.84-.86,5.07-2.57,6.68-1.71,1.62-3.79,2.42-6.24,2.42s-4.55-.81-6.31-2.42c-1.76-1.62-2.64-3.84-2.64-6.68s.88-4.92,2.64-6.54c1.76-1.62,3.87-2.42,6.31-2.42s4.53.81,6.24,2.42c1.71,1.62,2.57,3.79,2.57,6.54Z"/>
        <path class="st6" d="M1164.14,578.33c2.25.39,4.55.73,6.9,1.03s4.6.44,6.76.44,3.94-.22,5.65-.66c1.71-.44,3.23-1.23,4.55-2.35,1.32-1.13,2.35-2.67,3.08-4.63.73-1.96,1.1-4.5,1.1-7.64v-68.88l20.56-3.82v54.92c1.37.39,3.13.79,5.29,1.17,2.15.39,4.36.59,6.61.59h1.47v18.21h-3.67c-1.67,0-3.3-.05-4.92-.15-1.62-.1-3.21-.29-4.77-.59-.2,6.17-1.3,11.28-3.3,15.35-2.01,4.06-4.58,7.27-7.71,9.62-3.13,2.35-6.66,4.01-10.57,4.99-3.92.98-7.83,1.47-11.75,1.47-3.13,0-6.19-.2-9.18-.59-2.99-.39-5.9-.93-8.74-1.62l2.64-16.89Z"/>
        <path class="st6" d="M1221.71,566.73v-18.21h15.57c-1.47-2.54-2.6-5.41-3.38-8.59-.79-3.18-1.17-6.29-1.17-9.33,0-6.26.86-11.75,2.57-16.45,1.71-4.7,4.16-8.64,7.34-11.82,3.18-3.18,7-5.58,11.45-7.2,4.45-1.62,9.42-2.42,14.91-2.42,7.05,0,13.19.51,18.43,1.54,5.24,1.03,9.42,1.98,12.56,2.86v69.61h-78.27ZM1268.55,473.33c0,2.84-.86,5.07-2.57,6.68-1.71,1.62-3.79,2.42-6.24,2.42s-4.55-.81-6.31-2.42c-1.76-1.62-2.64-3.84-2.64-6.68s.88-4.92,2.64-6.54c1.76-1.62,3.87-2.42,6.31-2.42s4.53.81,6.24,2.42c1.71,1.62,2.57,3.8,2.57,6.54ZM1279.42,548.52v-36.57c-2.25-.39-4.21-.66-5.87-.81-1.67-.15-3.18-.22-4.55-.22-5.58,0-9.57,1.69-11.97,5.07-2.4,3.38-3.6,8.2-3.6,14.47,0,2.64.22,5.07.66,7.27.44,2.2,1.22,4.11,2.35,5.73,1.12,1.62,2.59,2.86,4.41,3.75,1.81.88,4.09,1.32,6.83,1.32h11.75ZM1289.26,473.33c0,2.84-.86,5.07-2.57,6.68-1.71,1.62-3.8,2.42-6.24,2.42s-4.55-.81-6.32-2.42c-1.76-1.62-2.64-3.84-2.64-6.68s.88-4.92,2.64-6.54c1.76-1.62,3.87-2.42,6.32-2.42s4.53.81,6.24,2.42c1.71,1.62,2.57,3.8,2.57,6.54Z"/>
      </g>
      <g>
        <path class="st6" d="M741.5,909.63c0-4.07.61-7.77,1.82-11.09,1.22-3.33,2.97-6.17,5.25-8.52,2.28-2.36,5.04-4.18,8.26-5.47,3.23-1.29,6.87-1.94,10.94-1.94,4.66,0,8.75.83,12.25,2.49,3.5,1.66,6.44,3.98,8.82,6.96l-7.59,5.21c-1.59-1.94-3.49-3.44-5.69-4.5-2.21-1.07-4.8-1.6-7.78-1.6-2.68,0-5.08.44-7.18,1.3-2.11.87-3.88,2.1-5.32,3.68-1.44,1.59-2.54,3.52-3.31,5.81-.77,2.28-1.15,4.84-1.15,7.67s.38,5.39,1.15,7.67c.77,2.28,1.87,4.22,3.31,5.81,1.44,1.59,3.21,2.82,5.32,3.68,2.11.87,4.5,1.3,7.18,1.3,2.98,0,5.57-.53,7.78-1.6,2.21-1.07,4.11-2.57,5.69-4.5l7.59,5.21c-2.38,2.98-5.32,5.3-8.82,6.96s-7.58,2.49-12.25,2.49c-4.07,0-7.72-.65-10.94-1.94-3.23-1.29-5.98-3.11-8.26-5.47-2.28-2.36-4.03-5.2-5.25-8.52-1.22-3.32-1.82-7.02-1.82-11.09Z"/>
        <path class="st6" d="M791.16,917.07c0-2.88.46-5.5,1.38-7.85.92-2.36,2.22-4.37,3.91-6.03,1.69-1.66,3.72-2.95,6.1-3.87,2.38-.92,5.01-1.38,7.89-1.38s5.5.46,7.85,1.38c2.36.92,4.38,2.21,6.07,3.87,1.69,1.66,2.99,3.67,3.91,6.03.92,2.36,1.38,4.98,1.38,7.85s-.46,5.51-1.38,7.89c-.92,2.38-2.22,4.42-3.91,6.11-1.69,1.69-3.71,2.99-6.07,3.91-2.36.92-4.98,1.38-7.85,1.38s-5.51-.46-7.89-1.38-4.42-2.22-6.1-3.91c-1.69-1.69-2.99-3.72-3.91-6.11-.92-2.38-1.38-5.01-1.38-7.89ZM800.09,917.15c0,3.47.93,6.18,2.79,8.11s4.35,2.9,7.48,2.9,5.63-.97,7.52-2.9c1.89-1.94,2.83-4.64,2.83-8.11s-.94-6.18-2.83-8.12c-1.89-1.94-4.39-2.9-7.52-2.9s-5.62.97-7.48,2.9c-1.86,1.94-2.79,4.64-2.79,8.12Z"/>
        <path class="st6" d="M850.19,897.79c3.08,0,5.6.51,7.56,1.53,1.96,1.02,3.52,2.31,4.69,3.87,1.17,1.56,2,3.26,2.49,5.1.5,1.84.79,3.57.89,5.21l1.49,22.19h-8.93v-21.96c0-1.34-.22-2.48-.67-3.42-.45-.94-1.04-1.74-1.79-2.38-.74-.64-1.61-1.12-2.61-1.41-.99-.3-2.04-.45-3.13-.45s-2.13.15-3.13.45c-.99.3-1.86.77-2.61,1.41-.74.65-1.34,1.44-1.79,2.38-.45.94-.67,2.08-.67,3.42v21.96h-8.93v-22.19c0-1.64.31-3.37.93-5.21.62-1.84,1.62-3.54,3.02-5.1,1.39-1.56,3.16-2.85,5.32-3.87,2.16-1.02,4.78-1.53,7.85-1.53ZM875.51,897.79c3.08,0,5.7.51,7.85,1.53,2.16,1.02,3.93,2.31,5.32,3.87,1.39,1.56,2.39,3.26,3.02,5.1.62,1.84.93,3.57.93,5.21v22.19h-8.93v-21.96c0-1.34-.22-2.48-.67-3.42-.45-.94-1.04-1.74-1.79-2.38-.74-.64-1.61-1.12-2.61-1.41-.99-.3-2.04-.45-3.13-.45s-2.13.15-3.13.45c-.99.3-1.86.77-2.61,1.41-.74.65-1.34,1.44-1.79,2.38-.45.94-.67,2.08-.67,3.42v21.96h-8.93l1.49-22.19c.1-1.64.4-3.37.89-5.21.5-1.84,1.33-3.54,2.49-5.1,1.17-1.56,2.73-2.85,4.69-3.87,1.96-1.02,4.48-1.53,7.56-1.53Z"/>
        <path class="st6" d="M896.65,887.67c0-1.34.47-2.49,1.41-3.46.94-.97,2.11-1.45,3.5-1.45s2.56.48,3.5,1.45c.94.97,1.41,2.12,1.41,3.46,0,1.44-.47,2.63-1.41,3.57s-2.11,1.41-3.5,1.41-2.56-.47-3.5-1.41c-.94-.94-1.41-2.13-1.41-3.57ZM897.1,898.46h8.93v37.22h-8.93v-37.22Z"/>
        <path class="st6" d="M927.25,897.79c3.08,0,5.7.51,7.85,1.53,2.16,1.02,3.93,2.31,5.32,3.87,1.39,1.56,2.39,3.26,3.01,5.1.62,1.84.93,3.57.93,5.21v22.19h-8.93v-21.96c0-1.34-.22-2.48-.67-3.42-.45-.94-1.04-1.74-1.79-2.38-.75-.64-1.61-1.12-2.61-1.41-.99-.3-2.04-.45-3.13-.45s-2.13.15-3.13.45c-.99.3-1.86.77-2.61,1.41-.75.65-1.34,1.44-1.79,2.38-.45.94-.67,2.08-.67,3.42v21.96h-8.93v-22.19c0-1.64.31-3.37.93-5.21.62-1.84,1.62-3.54,3.01-5.1s3.16-2.85,5.32-3.87c2.16-1.02,4.78-1.53,7.85-1.53Z"/>
        <path class="st6" d="M986.21,934.2c0,2.48-.45,4.75-1.34,6.81-.89,2.06-2.15,3.83-3.76,5.32-1.61,1.49-3.56,2.64-5.84,3.46-2.28.82-4.84,1.23-7.67,1.23-3.77,0-7.14-.73-10.09-2.2-2.95-1.46-5.4-3.44-7.33-5.92l7.3-5.14c.99,1.24,2.29,2.39,3.91,3.46,1.61,1.07,3.71,1.6,6.29,1.6,3.13,0,5.51-.81,7.15-2.42,1.64-1.61,2.46-3.69,2.46-6.22v-2.16c-.89,1.14-2.27,2.13-4.13,2.98-1.86.84-4.16,1.27-6.89,1.27s-5.16-.46-7.45-1.38c-2.28-.92-4.24-2.22-5.88-3.91-1.64-1.69-2.92-3.72-3.83-6.1-.92-2.38-1.38-5.01-1.38-7.89s.46-5.5,1.38-7.85c.92-2.36,2.22-4.37,3.91-6.03,1.69-1.66,3.71-2.95,6.07-3.87,2.36-.92,4.98-1.38,7.85-1.38s5.51.46,7.89,1.38c2.38.92,4.42,2.22,6.11,3.91,1.69,1.69,2.99,3.72,3.91,6.1.92,2.38,1.38,5.01,1.38,7.89v17.05ZM977.28,917.07c0-3.47-.93-6.18-2.79-8.12-1.86-1.94-4.35-2.9-7.48-2.9s-5.63.97-7.52,2.9c-1.89,1.94-2.83,4.64-2.83,8.12s.94,6.18,2.83,8.11c1.89,1.94,4.39,2.9,7.52,2.9s5.62-.97,7.48-2.9c1.86-1.94,2.79-4.64,2.79-8.11Z"/>
        <path class="st6" d="M1046.58,920.57c0,2.23-.37,4.33-1.12,6.29-.74,1.96-1.87,3.65-3.39,5.06-1.51,1.42-3.42,2.53-5.73,3.35-2.31.82-5.05,1.23-8.23,1.23-2.33,0-4.49-.21-6.48-.63-1.99-.42-3.81-.99-5.47-1.71-1.66-.72-3.16-1.54-4.5-2.46-1.34-.92-2.51-1.85-3.5-2.79l5.88-6.4c2.03,1.74,4.17,3.08,6.4,4.02,2.23.94,4.76,1.42,7.59,1.42,1.79,0,3.28-.2,4.47-.6,1.19-.4,2.15-.91,2.87-1.53.72-.62,1.22-1.34,1.49-2.16.27-.82.41-1.62.41-2.42,0-1.54-.41-2.8-1.23-3.8-.82-.99-1.91-1.82-3.28-2.49-1.37-.67-2.92-1.24-4.65-1.71-1.74-.47-3.51-.96-5.32-1.45-1.81-.5-3.59-1.08-5.32-1.75-1.74-.67-3.29-1.53-4.65-2.57-1.37-1.04-2.46-2.35-3.28-3.91-.82-1.56-1.23-3.51-1.23-5.84,0-2.18.4-4.19,1.19-6.03.79-1.84,1.95-3.41,3.46-4.73,1.51-1.31,3.4-2.34,5.66-3.09,2.26-.75,4.85-1.12,7.78-1.12,4.02,0,7.66.66,10.91,1.97,3.25,1.32,6.07,2.99,8.45,5.03l-5.43,6.77c-2.38-1.89-4.7-3.23-6.96-4.02-2.26-.79-4.55-1.19-6.89-1.19-3.13,0-5.39.55-6.77,1.64-1.39,1.09-2.08,2.43-2.08,4.02,0,1.29.41,2.36,1.23,3.2s1.91,1.55,3.28,2.12c1.36.57,2.92,1.07,4.65,1.49,1.74.42,3.51.89,5.32,1.41,1.81.52,3.58,1.14,5.32,1.86,1.74.72,3.29,1.66,4.65,2.83,1.36,1.17,2.46,2.62,3.28,4.36.82,1.74,1.23,3.85,1.23,6.33Z"/>
        <path class="st6" d="M1048.89,917.07c0-2.88.46-5.5,1.38-7.85.92-2.36,2.22-4.37,3.91-6.03,1.69-1.66,3.72-2.95,6.1-3.87,2.38-.92,5.01-1.38,7.89-1.38s5.5.46,7.85,1.38c2.36.92,4.38,2.21,6.07,3.87,1.69,1.66,2.99,3.67,3.91,6.03.92,2.36,1.38,4.98,1.38,7.85s-.46,5.51-1.38,7.89c-.92,2.38-2.22,4.42-3.91,6.11-1.69,1.69-3.71,2.99-6.07,3.91-2.36.92-4.98,1.38-7.85,1.38s-5.51-.46-7.89-1.38c-2.38-.92-4.42-2.22-6.1-3.91-1.69-1.69-2.99-3.72-3.91-6.11-.92-2.38-1.38-5.01-1.38-7.89ZM1057.83,917.15c0,3.47.93,6.18,2.79,8.11,1.86,1.94,4.36,2.9,7.48,2.9s5.63-.97,7.52-2.9c1.88-1.94,2.83-4.64,2.83-8.11s-.94-6.18-2.83-8.12c-1.89-1.94-4.39-2.9-7.52-2.9s-5.62.97-7.48,2.9c-1.86,1.94-2.79,4.64-2.79,8.12Z"/>
        <path class="st6" d="M1090.51,917.07c0-2.88.46-5.5,1.38-7.85.92-2.36,2.22-4.37,3.91-6.03,1.69-1.66,3.72-2.95,6.1-3.87,2.38-.92,5.01-1.38,7.89-1.38s5.5.46,7.85,1.38c2.36.92,4.38,2.21,6.07,3.87,1.69,1.66,2.99,3.67,3.91,6.03.92,2.36,1.38,4.98,1.38,7.85s-.46,5.51-1.38,7.89c-.92,2.38-2.22,4.42-3.91,6.11-1.69,1.69-3.71,2.99-6.07,3.91-2.36.92-4.98,1.38-7.85,1.38s-5.51-.46-7.89-1.38c-2.38-.92-4.42-2.22-6.1-3.91-1.69-1.69-2.99-3.72-3.91-6.11-.92-2.38-1.38-5.01-1.38-7.89ZM1099.44,917.15c0,3.47.93,6.18,2.79,8.11,1.86,1.94,4.36,2.9,7.48,2.9s5.63-.97,7.52-2.9c1.88-1.94,2.83-4.64,2.83-8.11s-.94-6.18-2.83-8.12c-1.89-1.94-4.39-2.9-7.52-2.9s-5.62.97-7.48,2.9c-1.86,1.94-2.79,4.64-2.79,8.12Z"/>
        <path class="st6" d="M1149.54,897.79c3.08,0,5.7.51,7.85,1.53,2.16,1.02,3.93,2.31,5.32,3.87,1.39,1.56,2.39,3.26,3.01,5.1.62,1.84.93,3.57.93,5.21v22.19h-8.93v-21.96c0-1.34-.22-2.48-.67-3.42-.45-.94-1.04-1.74-1.79-2.38-.75-.64-1.61-1.12-2.61-1.41-.99-.3-2.04-.45-3.13-.45s-2.13.15-3.13.45c-.99.3-1.86.77-2.61,1.41-.75.65-1.34,1.44-1.79,2.38-.45.94-.67,2.08-.67,3.42v21.96h-8.93v-22.19c0-1.64.31-3.37.93-5.21.62-1.84,1.62-3.54,3.01-5.1s3.16-2.85,5.32-3.87c2.16-1.02,4.78-1.53,7.85-1.53Z"/>
      </g>
      <g>
        <g>
          <path class="st6" d="M908.93,154.33c-2.18-2.19-3.28-4.88-3.28-8.09s1.09-5.75,3.28-7.94c2.19-2.19,4.88-3.28,8.09-3.28s5.75,1.09,7.94,3.28c2.19,2.19,3.28,4.83,3.28,7.94s-1.09,5.9-3.28,8.09c-2.18,2.19-4.83,3.28-7.94,3.28s-5.9-1.09-8.09-3.28ZM907.55,165.33h18.94v72.85h-18.94v-72.85Z"/>
          <path class="st6" d="M932.61,165.33h19.81l16.61,47.93,16.75-47.93h19.81l-27.1,72.85h-18.94l-26.95-72.85Z"/>
          <path class="st6" d="M1061.33,169.19c5.78,3.35,10.34,7.92,13.7,13.69,3.35,5.78,5.03,12.07,5.03,18.87s-1.68,13.09-5.03,18.87c-3.35,5.78-7.92,10.34-13.7,13.7-5.78,3.35-12.07,5.03-18.87,5.03s-13.09-1.68-18.87-5.03c-5.78-3.35-10.34-7.92-13.7-13.7-3.35-5.78-5.03-12.07-5.03-18.87s1.67-13.09,5.03-18.87c3.35-5.78,7.92-10.34,13.7-13.69,5.78-3.35,12.07-5.03,18.87-5.03s13.09,1.68,18.87,5.03ZM1029.2,188.13c-3.59,3.64-5.39,8.18-5.39,13.62s1.8,9.98,5.39,13.62c3.59,3.64,8.06,5.46,13.4,5.46s9.76-1.82,13.26-5.46c3.5-3.64,5.25-8.18,5.25-13.62s-1.75-9.98-5.25-13.62c-3.5-3.64-7.92-5.46-13.26-5.46s-9.81,1.82-13.4,5.46Z"/>
        </g>
        <g>
          <path class="st6" d="M1064.93,141.91c.97-1.67,2.28-2.99,3.93-3.95,1.65-.97,3.46-1.45,5.43-1.45s3.77.48,5.43,1.45c1.66.97,2.97,2.29,3.96,3.95.98,1.67,1.47,3.48,1.47,5.45s-.49,3.78-1.47,5.45c-.98,1.67-2.3,2.99-3.96,3.95-1.65.97-3.46,1.45-5.43,1.45s-3.81-.53-5.3-1.6v9.68h-5.51v-18.93c0-1.96.48-3.78,1.45-5.45ZM1078.16,151.29c1.01-1.05,1.51-2.36,1.51-3.93s-.5-2.88-1.51-3.93c-1.01-1.05-2.29-1.58-3.83-1.58s-2.83.53-3.87,1.58c-1.04,1.05-1.56,2.36-1.56,3.93s.52,2.88,1.56,3.93c1.04,1.05,2.33,1.58,3.87,1.58s2.82-.53,3.83-1.58Z"/>
          <path class="st6" d="M1092.67,156.76c-1.66-.97-2.97-2.29-3.95-3.95-.98-1.67-1.47-3.48-1.47-5.45s.49-3.78,1.47-5.45c.98-1.67,2.3-2.99,3.95-3.95,1.65-.97,3.46-1.45,5.43-1.45s3.77.48,5.43,1.45c1.65.97,2.97,2.29,3.93,3.95.97,1.67,1.45,3.48,1.45,5.45v10.52h-5.47v-2.23c-.31.7-.98,1.3-2.02,1.81-1.04.5-2.15.76-3.32.76-1.96,0-3.77-.48-5.43-1.45ZM1101.97,151.29c1.01-1.05,1.51-2.36,1.51-3.93s-.5-2.88-1.51-3.93c-1.01-1.05-2.29-1.58-3.83-1.58s-2.83.53-3.87,1.58c-1.04,1.05-1.56,2.36-1.56,3.93s.52,2.88,1.56,3.93c1.04,1.05,2.33,1.58,3.87,1.58s2.82-.53,3.83-1.58Z"/>
          <path class="st6" d="M1115.5,164.43c-1.58-1.23-2.76-2.9-3.51-5.01h6.1c.42.5.85.88,1.28,1.14.43.25,1.02.38,1.75.38,1.26,0,2.2-.3,2.82-.9.62-.6.92-1.42.92-2.46v-.13c-1.21.5-2.45.76-3.74.76-2.8,0-5.05-.86-6.73-2.59-1.68-1.73-2.52-4.3-2.52-7.72v-11.06h5.47v11.06c0,1.71.3,2.97.91,3.77.6.8,1.56,1.2,2.88,1.2s2.28-.4,2.88-1.2c.6-.8.9-2.05.9-3.77v-11.06h5.47v19.98c0,1.77-.4,3.37-1.2,4.82-.8,1.44-1.9,2.58-3.3,3.41-1.4.83-2.99,1.24-4.75,1.24-2.16,0-4.03-.62-5.62-1.85Z"/>
        </g>
        <g>
          <path class="st5" d="M826.99,120.64c26.3,0,47.62,21.32,47.62,47.62s-21.32,47.62-47.62,47.62-47.62-21.32-47.62-47.62,21.32-47.62,47.62-47.62M826.99,98.22c38.68,0,70.04,31.36,70.04,70.03s-31.36,70.04-70.04,70.04-70.03-31.36-70.03-70.04,31.36-70.03,70.03-70.03Z"/>
          <g class="st23">
            <rect class="st6" x="756.95" y="98.22" width="140.07" height="140.07"/>
          </g>
        </g>
        <g>
          <path class="st5" d="M826.99,168.26c38.68,0,70.04,31.36,70.04,70.04h-22.41c0-26.3-21.32-47.62-47.62-47.62v-22.41Z"/>
          <g class="st14">
            <rect class="st6" x="826.99" y="168.26" width="70.04" height="70.04"/>
          </g>
        </g>
      </g>
      <g class="st17">
        <path class="st10" d="M954.22,759.09c-159.95,203.52-401.88,298.63-602.01,236.67-29.6-9.16-180.2-61.63-238.63-195.19-14.53-33.22-21.64-67.33-23.1-101.11-42.9.35-85.9-5.79-127.09-20.27-80.21-28.2-142.34-79.08-174.94-143.27-59.52-117.2.41-228.3,13-249.4l79.58,43.59c-5.49,9.16-52.41,91.88-11.13,173.16,22.14,43.61,64.23,77.33,121.72,97.54,33.81,11.89,69.97,16,106.29,14.31,13.95-65.59,45.22-125.38,78.98-168.78,55.87-71.85,122.36-110.22,182.41-105.3,58.05,4.76,112.52,49.83,121.42,100.46,8.7,49.32-24.19,104.63-92.58,155.77-54.98,41.11-128.5,75.98-207.37,92.3-.1,28.41,4.86,56.51,16.35,82.78,42.47,97.1,157.17,136.85,179.73,143.83,163.21,50.53,365.5-33.39,503.38-208.83l73.98,51.72ZM197.46,597c50.19-15.63,96.39-39.66,131.87-66.18,49.07-36.69,64.17-68.45,62.17-79.85-1.78-10.12-19.72-24.94-35.62-26.24-21.71-1.78-63.75,20.31-104.75,73.02-21.77,28-40.89,62.36-53.67,99.26Z"/>
      </g>
      <g class="st16">
        <path class="st8" d="M1854.48-92.27c52.6,0,95.25,42.64,95.25,95.25s-42.64,95.25-95.25,95.25-95.25-42.65-95.25-95.25,42.64-95.25,95.25-95.25M1854.48-137.09c77.36,0,140.07,62.71,140.07,140.07s-62.71,140.07-140.07,140.07-140.07-62.71-140.07-140.07,62.71-140.07,140.07-140.07Z"/>
        <g class="st15">
          <rect class="st18" x="1714.42" y="-137.09" width="280.14" height="280.14"/>
        </g>
      </g>
    </g>
  </g>
</svg>