<?xml version="1.0" encoding="UTF-8"?>
<svg xmlns="http://www.w3.org/2000/svg" xmlns:xlink="http://www.w3.org/1999/xlink" version="1.1" viewBox="0 0 1080 1920">
  <!-- Generator: Adobe Illustrator 29.8.1, SVG Export Plug-In . SVG Version: 2.1.1 Build 2)  -->
  <defs>
    <style>
      .st0 {
        filter: url(#drop-shadow-3);
      }

      .st1 {
        filter: url(#drop-shadow-9);
      }

      .st2 {
        filter: url(#drop-shadow-7);
      }

      .st3 {
        filter: url(#drop-shadow-5);
      }

      .st4, .st5, .st6 {
        fill: #fff;
      }

      .st4, .st7 {
        clip-rule: evenodd;
      }

      .st5, .st8 {
        fill-rule: evenodd;
      }

      .st9 {
        fill: url(#Dégradé_sans_nom_4);
      }

      .st10 {
        fill: url(#Dégradé_sans_nom_2);
      }

      .st11 {
        fill: #6c00e0;
      }

      .st8 {
        fill: url(#Dégradé_sans_nom_21);
      }

      .st12 {
        isolation: isolate;
      }

      .st13 {
        clip-path: url(#clippath-1);
      }

      .st14 {
        clip-path: url(#clippath-2);
      }

      .st15 {
        opacity: .39;
      }

      .st16 {
        opacity: .1;
      }

      .st17 {
        fill: url(#Dégradé_sans_nom_23);
      }

      .st18 {
        fill: #ebedee;
      }

      .st19 {
        stroke: url(#Degradado_sin_nombre_2);
        stroke-width: .19px;
      }

      .st19, .st20 {
        fill: none;
        mix-blend-mode: luminosity;
        stroke-miterlimit: 10;
      }

      .st7 {
        fill: url(#Dégradé_sans_nom_22);
      }

      .st20 {
        stroke: url(#Degradado_sin_nombre_21);
        stroke-width: 4.59px;
      }

      .st21 {
        display: none;
      }

      .st22 {
        clip-path: url(#clippath);
      }
    </style>
    <linearGradient id="Dégradé_sans_nom_4" data-name="Dégradé sans nom 4" x1="-1045.91" y1="-194.54" x2="1156.54" y2="1409.11" gradientUnits="userSpaceOnUse">
      <stop offset=".25" stop-color="#51b7b0"/>
      <stop offset=".35" stop-color="#4b8b9d"/>
      <stop offset=".48" stop-color="#465a8a"/>
      <stop offset=".6" stop-color="#41347a"/>
      <stop offset=".71" stop-color="#3e196f"/>
      <stop offset=".8" stop-color="#3c0868"/>
      <stop offset=".88" stop-color="#3c0366"/>
    </linearGradient>
    <linearGradient id="Degradado_sin_nombre_2" data-name="Degradado sin nombre 2" x1="318" y1="922.07" x2="771.64" y2="922.07" gradientTransform="translate(1469 398.5) rotate(90)" gradientUnits="userSpaceOnUse">
      <stop offset="0" stop-color="#feffff"/>
      <stop offset=".5" stop-color="#000" stop-opacity="0"/>
      <stop offset="1" stop-color="#feffff"/>
    </linearGradient>
    <linearGradient id="Degradado_sin_nombre_21" data-name="Degradado sin nombre 2" x1="546.93" y1="1100.99" x2="546.93" y2="785.65" gradientTransform="matrix(1,0,0,1,0,0)" xlink:href="#Degradado_sin_nombre_2"/>
    <filter id="drop-shadow-1" filterUnits="userSpaceOnUse">
      <feOffset dx="1.15" dy="16.05"/>
      <feGaussianBlur result="blur" stdDeviation="10.32"/>
      <feFlood flood-color="#200393" flood-opacity=".74"/>
      <feComposite in2="blur" operator="in"/>
      <feComposite in="SourceGraphic"/>
    </filter>
    <filter id="drop-shadow-3" x="265.28" y="1227.28" width="126" height="95" filterUnits="userSpaceOnUse">
      <feOffset dx=".55" dy="7.63"/>
      <feGaussianBlur result="blur1" stdDeviation="4.91"/>
      <feFlood flood-color="#200393" flood-opacity=".74"/>
      <feComposite in2="blur1" operator="in"/>
      <feComposite in="SourceGraphic"/>
    </filter>
    <filter id="drop-shadow-5" x="421.28" y="1227.28" width="124" height="94" filterUnits="userSpaceOnUse">
      <feOffset dx=".55" dy="7.63"/>
      <feGaussianBlur result="blur2" stdDeviation="4.91"/>
      <feFlood flood-color="#200393" flood-opacity=".74"/>
      <feComposite in2="blur2" operator="in"/>
      <feComposite in="SourceGraphic"/>
    </filter>
    <filter id="drop-shadow-7" x="573.28" y="1227.28" width="105" height="95" filterUnits="userSpaceOnUse">
      <feOffset dx=".55" dy="7.63"/>
      <feGaussianBlur result="blur3" stdDeviation="4.91"/>
      <feFlood flood-color="#200393" flood-opacity=".74"/>
      <feComposite in2="blur3" operator="in"/>
      <feComposite in="SourceGraphic"/>
    </filter>
    <filter id="drop-shadow-9" x="710.28" y="1228.28" width="113" height="94" filterUnits="userSpaceOnUse">
      <feOffset dx=".55" dy="7.63"/>
      <feGaussianBlur result="blur4" stdDeviation="4.91"/>
      <feFlood flood-color="#200393" flood-opacity=".74"/>
      <feComposite in2="blur4" operator="in"/>
      <feComposite in="SourceGraphic"/>
    </filter>
    <clipPath id="clippath">
      <path class="st4" d="M399.77,192.48c31.61,0,57.24,25.63,57.24,57.24s-25.63,57.24-57.24,57.24-57.24-25.63-57.24-57.24,25.63-57.24,57.24-57.24M399.77,165.55c46.49,0,84.17,37.68,84.17,84.17s-37.68,84.17-84.17,84.17-84.17-37.69-84.17-84.17,37.68-84.17,84.17-84.17Z"/>
    </clipPath>
    <clipPath id="clippath-1">
      <path class="st4" d="M399.77,249.72c46.49,0,84.17,37.68,84.17,84.17h-26.94c0-31.61-25.63-57.24-57.24-57.24v-26.93Z"/>
    </clipPath>
    <linearGradient id="Dégradé_sans_nom_2" data-name="Dégradé sans nom 2" x1="235.66" y1="1704.24" x2="712.62" y2="1386.16" gradientTransform="translate(-1062.7 564) rotate(-46.85)" gradientUnits="userSpaceOnUse">
      <stop offset="0" stop-color="#fff"/>
      <stop offset="1" stop-color="#2d0691"/>
    </linearGradient>
    <linearGradient id="Dégradé_sans_nom_21" data-name="Dégradé sans nom 2" x1="896.45" y1="25.48" x2="1176.59" y2="25.48" gradientTransform="matrix(1,0,0,1,0,0)" xlink:href="#Dégradé_sans_nom_2"/>
    <linearGradient id="Dégradé_sans_nom_22" data-name="Dégradé sans nom 2" x1="896.45" y1="25.48" x2="1176.59" y2="25.48" gradientTransform="matrix(1,0,0,1,0,0)" xlink:href="#Dégradé_sans_nom_2"/>
    <clipPath id="clippath-2">
      <path class="st7" d="M1036.52-69.77c52.6,0,95.25,42.64,95.25,95.25s-42.64,95.25-95.25,95.25-95.25-42.65-95.25-95.25,42.64-95.25,95.25-95.25M1036.52-114.59c77.36,0,140.07,62.71,140.07,140.07s-62.71,140.07-140.07,140.07-140.07-62.71-140.07-140.07,62.71-140.07,140.07-140.07Z"/>
    </clipPath>
    <linearGradient id="Dégradé_sans_nom_23" data-name="Dégradé sans nom 2" x1="896.45" y1="25.48" x2="1176.59" y2="25.48" gradientTransform="matrix(1,0,0,1,0,0)" xlink:href="#Dégradé_sans_nom_2"/>
  </defs>
  <g class="st12">
    <g id="Layer_1">
      <rect class="st9" x="-416.56" width="1920" height="1925.4"/>
      <g>
        <g>
          <g>
            <g>
              <circle class="st19" cx="546.93" cy="943.32" r="226.72"/>
              <path class="st20" d="M1025.56,941.83c0,264.34-214.29,114.66-478.63,114.66s-478.63,149.67-478.63-114.66,214.29-107.95,478.63-107.95,478.63-156.38,478.63,107.95Z"/>
            </g>
            <text/>
          </g>
          <g class="st21">
            <g>
              <g>
                <g class="st0">
                  <path class="st18" d="M303.86,1297.8c-4.61,0-8.67-1.27-12.2-3.8-3.53-2.54-6.27-6.12-8.22-10.76-1.95-4.63-2.93-10.07-2.93-16.31s.98-11.68,2.93-16.31c1.95-4.63,4.69-8.22,8.22-10.76,3.53-2.54,7.59-3.8,12.2-3.8s8.75,1.27,12.25,3.8c3.5,2.54,6.22,6.12,8.18,10.76,1.95,4.64,2.93,10.07,2.93,16.31s-.98,11.68-2.93,16.31c-1.95,4.64-4.68,8.22-8.18,10.76-3.5,2.54-7.58,3.8-12.25,3.8ZM303.86,1296.13c4.31,0,8.09-1.19,11.33-3.59,3.24-2.39,5.76-5.77,7.57-10.15,1.81-4.37,2.71-9.53,2.71-15.48s-.9-11.18-2.71-15.52c-1.81-4.34-4.33-7.71-7.57-10.1-3.24-2.39-7.01-3.59-11.33-3.59s-8.02,1.2-11.28,3.59c-3.27,2.39-5.8,5.76-7.61,10.1-1.81,4.34-2.71,9.52-2.71,15.52s.9,11.11,2.71,15.48c1.81,4.37,4.34,7.75,7.61,10.15,3.26,2.39,7.03,3.59,11.28,3.59Z"/>
                  <path class="st18" d="M354.15,1297.8c-4.61,0-8.79-.82-12.55-2.45-3.76-1.63-6.57-3.7-8.44-6.21l1.14-1.14c1.69,2.27,4.3,4.2,7.83,5.77,3.53,1.57,7.54,2.36,12.03,2.36,6.06,0,10.66-1.4,13.78-4.2,3.12-2.8,4.68-6.53,4.68-11.2s-1.59-8.4-4.77-11.2c-3.18-2.8-8.12-4.2-14.83-4.2h-3.15v-1.31l20.29-26.68.17.61h-35.25v-1.66h37v1.31l-20.29,26.68-.17-.61h1.31c7.23,0,12.61,1.57,16.14,4.72,3.53,3.15,5.29,7.26,5.29,12.33,0,3.38-.77,6.36-2.32,8.92-1.55,2.57-3.82,4.56-6.82,5.99-3,1.43-6.69,2.14-11.06,2.14Z"/>
                </g>
                <g>
                  <rect class="st11" x="288.16" y="1324.32" width="87.15" height="25.28"/>
                  <g>
                    <path class="st18" d="M314.62,1342.12v-9.32h3.53c.99,0,1.85.2,2.58.61.74.4,1.31.96,1.72,1.66.41.7.61,1.5.61,2.4s-.2,1.7-.61,2.4c-.41.7-.98,1.25-1.72,1.66-.74.4-1.6.61-2.58.61h-3.53ZM314.88,1341.87h3.24c.95,0,1.78-.19,2.48-.57.7-.38,1.24-.9,1.62-1.56.38-.66.57-1.42.57-2.27s-.19-1.61-.57-2.27c-.38-.66-.92-1.18-1.62-1.57-.7-.38-1.53-.57-2.48-.57h-3.24v8.82Z"/>
                    <path class="st18" d="M323.84,1342.12l4.33-9.32h.27l4.33,9.32h-.31l-4.22-9.11h.13l-4.22,9.11h-.31ZM325.26,1339.31l.13-.25h5.79l.13.25h-6.06Z"/>
                    <path class="st18" d="M336.28,1342.12v-3.26l.07.2-3.86-6.26h.31l3.68,5.95h-.11l3.68-5.95h.31l-3.86,6.26.07-.2v3.26h-.27Z"/>
                    <path class="st18" d="M344.32,1342.16c-.68,0-1.31-.12-1.91-.37-.6-.25-1.05-.56-1.37-.95l.19-.17c.29.35.72.64,1.27.88.55.24,1.16.36,1.8.36s1.23-.09,1.66-.28.75-.44.96-.75c.21-.32.31-.66.31-1.05,0-.44-.11-.8-.32-1.07-.21-.27-.5-.48-.85-.64-.35-.16-.74-.28-1.16-.39-.42-.1-.84-.21-1.26-.31s-.81-.25-1.17-.42c-.35-.17-.64-.41-.85-.71-.21-.3-.32-.7-.32-1.19,0-.41.11-.79.33-1.15.22-.35.55-.64,1.01-.87.46-.22,1.05-.33,1.78-.33.5,0,.99.08,1.47.23s.89.36,1.23.62l-.15.21c-.37-.28-.79-.48-1.24-.61-.45-.13-.89-.2-1.31-.2-.65,0-1.19.1-1.61.29-.43.19-.74.44-.95.76-.2.32-.31.67-.31,1.06,0,.45.11.81.32,1.08.21.27.5.48.85.64.35.16.74.28,1.17.39.42.1.84.21,1.26.32s.8.25,1.16.43c.35.17.64.41.85.7.21.29.32.68.32,1.16,0,.41-.11.79-.33,1.15s-.57.64-1.04.86-1.07.33-1.81.33Z"/>
                  </g>
                </g>
              </g>
              <g>
                <g class="st3">
                  <path class="st18" d="M438.51,1297.53v-1.31l26.5-26.85c2.62-2.62,4.61-4.93,5.95-6.91,1.34-1.98,2.24-3.83,2.71-5.55.47-1.72.7-3.42.7-5.12,0-4.31-1.46-7.74-4.37-10.28-2.92-2.54-7.14-3.8-12.68-3.8-4.2,0-7.84.61-10.93,1.84-3.09,1.22-5.74,3.09-7.96,5.6l-1.22-1.22c2.27-2.57,5.09-4.52,8.44-5.86,3.35-1.34,7.24-2.01,11.68-2.01,3.85,0,7.19.63,10.01,1.88,2.83,1.25,5,3.05,6.52,5.38,1.52,2.33,2.27,5.13,2.27,8.4,0,1.92-.28,3.82-.83,5.69-.55,1.87-1.53,3.85-2.93,5.95-1.4,2.1-3.44,4.49-6.12,7.17l-25.71,26.06-1.05-.7h39.97v1.66h-40.93Z"/>
                  <path class="st18" d="M487.05,1297.53v-1.31l26.5-26.85c2.62-2.62,4.61-4.93,5.95-6.91,1.34-1.98,2.24-3.83,2.71-5.55.47-1.72.7-3.42.7-5.12,0-4.31-1.46-7.74-4.37-10.28s-7.14-3.8-12.68-3.8c-4.2,0-7.84.61-10.93,1.84-3.09,1.22-5.74,3.09-7.96,5.6l-1.22-1.22c2.27-2.57,5.09-4.52,8.44-5.86,3.35-1.34,7.24-2.01,11.68-2.01,3.85,0,7.19.63,10.01,1.88,2.83,1.25,5,3.05,6.52,5.38,1.52,2.33,2.27,5.13,2.27,8.4,0,1.92-.28,3.82-.83,5.69s-1.53,3.85-2.93,5.95c-1.4,2.1-3.44,4.49-6.12,7.17l-25.72,26.06-1.05-.7h39.97v1.66h-40.93Z"/>
                </g>
                <g>
                  <rect class="st11" x="438.91" y="1324.32" width="87.15" height="25.28"/>
                  <g>
                    <path class="st18" d="M459.11,1342.4v-9.32h.27v9.32h-.27ZM459.31,1337.79v-.25h6.93v.25h-6.93ZM466.17,1342.4v-9.32h.27v9.32h-.27Z"/>
                    <path class="st18" d="M473.78,1342.44c-.68,0-1.32-.12-1.9-.35-.58-.23-1.09-.57-1.52-.99-.43-.43-.77-.92-1.01-1.49s-.36-1.19-.36-1.87.12-1.3.36-1.86.57-1.07,1.01-1.49c.43-.43.94-.76,1.52-.99s1.21-.35,1.9-.35,1.32.12,1.9.35,1.09.57,1.52.99c.43.43.77.92,1.01,1.49s.36,1.19.36,1.86-.12,1.3-.36,1.87-.58,1.07-1.01,1.49c-.43.43-.94.76-1.52.99-.58.24-1.21.35-1.9.35ZM473.78,1342.19c.64,0,1.23-.11,1.79-.33.55-.22,1.03-.54,1.44-.94.41-.4.73-.87.95-1.41.23-.54.34-1.12.34-1.76s-.11-1.23-.34-1.76-.54-1.01-.95-1.41c-.41-.4-.89-.72-1.44-.94-.55-.22-1.15-.33-1.79-.33s-1.23.11-1.78.33c-.55.22-1.03.54-1.44.94-.41.4-.73.88-.95,1.41-.23.54-.34,1.13-.34,1.76s.11,1.23.34,1.76c.23.54.54,1.01.95,1.41.41.4.89.72,1.44.94.55.22,1.15.33,1.78.33Z"/>
                    <path class="st18" d="M484.63,1342.44c-1.11,0-1.99-.33-2.63-.99-.64-.66-.97-1.64-.97-2.96v-5.42h.27v5.41c0,1.24.29,2.17.87,2.78.58.61,1.4.92,2.46.92s1.88-.31,2.46-.92c.58-.61.87-1.54.87-2.78v-5.41h.27v5.42c0,1.31-.32,2.3-.97,2.96-.64.66-1.52.99-2.63.99Z"/>
                    <path class="st18" d="M491.69,1342.4v-9.32h3.16c1.15,0,2.04.27,2.69.81s.97,1.29.97,2.26c0,.64-.15,1.19-.44,1.64s-.71.81-1.26,1.05c-.55.25-1.2.37-1.96.37h-3.01l.12-.12v3.32h-.27ZM491.96,1339.06l-.12-.11h3.04c1.09,0,1.93-.25,2.5-.74.58-.49.87-1.18.87-2.07s-.29-1.59-.87-2.08-1.41-.73-2.5-.73h-3.04l.12-.11v5.83ZM498.31,1342.4l-2.44-3.38h.33l2.44,3.38h-.33Z"/>
                    <path class="st18" d="M503.51,1342.44c-.68,0-1.31-.12-1.91-.37-.6-.25-1.05-.56-1.37-.95l.19-.17c.29.35.72.64,1.27.88.55.24,1.16.36,1.8.36s1.23-.09,1.66-.28.75-.44.96-.75c.21-.32.31-.66.31-1.05,0-.44-.11-.8-.32-1.07-.21-.27-.5-.48-.85-.64-.35-.16-.74-.28-1.16-.39-.42-.1-.84-.21-1.26-.31s-.81-.25-1.17-.42c-.35-.17-.64-.41-.85-.71-.21-.3-.32-.7-.32-1.19,0-.41.11-.79.33-1.15.22-.35.55-.64,1.01-.87.46-.22,1.05-.33,1.78-.33.5,0,.99.08,1.47.23s.89.36,1.23.62l-.15.21c-.37-.28-.79-.48-1.24-.61-.45-.13-.89-.2-1.31-.2-.65,0-1.19.1-1.61.29-.43.19-.74.44-.95.76-.2.32-.31.67-.31,1.06,0,.45.11.81.32,1.08.21.27.5.48.85.64.35.16.74.28,1.17.39.42.1.84.21,1.26.32s.8.25,1.16.43c.35.17.64.41.85.7.21.29.32.68.32,1.16,0,.41-.11.79-.33,1.15s-.57.64-1.04.86-1.07.33-1.81.33Z"/>
                  </g>
                </g>
              </g>
              <g>
                <g class="st2">
                  <path class="st18" d="M604.11,1297.53v-60.26l.79.7h-16.53v-1.66h17.41v61.22h-1.66Z"/>
                  <path class="st18" d="M641.02,1297.8c-4.49,0-8.62-.82-12.38-2.45-3.76-1.63-6.58-3.7-8.44-6.21l1.14-1.14c1.69,2.27,4.29,4.2,7.78,5.77,3.5,1.57,7.46,2.36,11.9,2.36,6.3,0,10.98-1.49,14.04-4.46s4.59-6.73,4.59-11.28c0-3.32-.74-6.18-2.23-8.57-1.49-2.39-3.98-4.21-7.48-5.47-3.5-1.25-8.28-1.88-14.34-1.88h-11.54l3.24-28.16h31.05v1.66h-30.09l.61-.7-3.06,26.41-.52-.87h10.67c6.3,0,11.3.71,15,2.14,3.7,1.43,6.37,3.46,8,6.08,1.63,2.62,2.45,5.74,2.45,9.36,0,3.27-.76,6.22-2.27,8.88-1.52,2.65-3.78,4.74-6.78,6.25-3,1.52-6.78,2.27-11.33,2.27Z"/>
                </g>
                <g>
                  <rect class="st11" x="589.44" y="1324.32" width="87.15" height="25.28"/>
                  <g>
                    <path class="st18" d="M605.42,1342.12v-9.32h.23l4.44,7.75h-.12l4.42-7.75h.23v9.32h-.27v-8.94h.11l-4.36,7.62h-.16l-4.37-7.62h.12v8.94h-.27Z"/>
                    <path class="st18" d="M618.16,1342.12v-9.32h.27v9.32h-.27Z"/>
                    <path class="st18" d="M621.97,1342.12v-9.32h.23l6.98,9.02h-.15v-9.02h.27v9.32h-.23l-6.98-9.02h.15v9.02h-.27Z"/>
                    <path class="st18" d="M636.35,1342.16c-1.11,0-1.99-.33-2.63-.99s-.97-1.64-.97-2.96v-5.42h.27v5.41c0,1.24.29,2.17.87,2.78.58.61,1.4.92,2.46.92s1.88-.31,2.46-.92c.58-.61.87-1.54.87-2.78v-5.41h.27v5.42c0,1.31-.32,2.3-.97,2.96-.64.66-1.52.99-2.63.99Z"/>
                    <path class="st18" d="M644.95,1342.12v-9.07h-3.46v-.25h7.19v.25h-3.46v9.07h-.27Z"/>
                    <path class="st18" d="M650.51,1342.12v-9.32h6.01v.25h-5.74v8.82h5.94v.25h-6.21ZM650.71,1337.51v-.25h5.21v.25h-5.21Z"/>
                    <path class="st18" d="M661.68,1342.16c-.67,0-1.31-.12-1.91-.37-.6-.25-1.05-.56-1.37-.95l.19-.17c.29.35.72.64,1.27.88.55.24,1.16.36,1.8.36s1.23-.09,1.66-.28.75-.44.96-.75c.21-.32.31-.66.31-1.05,0-.44-.11-.8-.32-1.07-.21-.27-.5-.48-.85-.64-.36-.16-.74-.28-1.16-.39-.42-.1-.84-.21-1.26-.31-.42-.11-.81-.25-1.17-.42-.36-.17-.64-.41-.85-.71s-.32-.7-.32-1.19c0-.41.11-.79.33-1.15.22-.35.55-.64,1.01-.87.46-.22,1.05-.33,1.78-.33.5,0,.99.08,1.47.23.48.16.89.36,1.23.62l-.15.21c-.37-.28-.79-.48-1.24-.61-.45-.13-.89-.2-1.31-.2-.65,0-1.19.1-1.61.29-.43.19-.74.44-.95.76-.2.32-.31.67-.31,1.06,0,.45.11.81.32,1.08.21.27.5.48.85.64.35.16.74.28,1.17.39.42.1.84.21,1.26.32s.8.25,1.16.43c.35.17.64.41.85.7.21.29.32.68.32,1.16,0,.41-.11.79-.33,1.15s-.57.64-1.04.86-1.07.33-1.81.33Z"/>
                  </g>
                </g>
              </g>
              <g>
                <g class="st1">
                  <path class="st18" d="M741.2,1297.81v-60.26l.79.7h-16.53v-1.66h17.41v61.22h-1.66Z"/>
                  <path class="st18" d="M783.01,1298.07c-4.61,0-8.67-1.27-12.2-3.8-3.53-2.54-6.27-6.12-8.22-10.76-1.96-4.63-2.93-10.07-2.93-16.31s.98-11.68,2.93-16.31c1.95-4.63,4.69-8.22,8.22-10.76,3.53-2.54,7.59-3.8,12.2-3.8s8.75,1.27,12.24,3.8c3.5,2.54,6.22,6.12,8.18,10.76,1.95,4.64,2.93,10.07,2.93,16.31s-.98,11.68-2.93,16.31c-1.95,4.64-4.68,8.22-8.18,10.76-3.5,2.54-7.58,3.8-12.24,3.8ZM783.01,1296.41c4.31,0,8.09-1.19,11.33-3.59,3.24-2.39,5.76-5.77,7.57-10.15,1.81-4.37,2.71-9.53,2.71-15.48s-.91-11.18-2.71-15.52c-1.81-4.34-4.33-7.71-7.57-10.1-3.24-2.39-7.01-3.59-11.33-3.59s-8.02,1.2-11.28,3.59c-3.27,2.39-5.8,5.76-7.61,10.1-1.81,4.34-2.71,9.52-2.71,15.52s.9,11.11,2.71,15.48c1.81,4.37,4.34,7.75,7.61,10.15,3.26,2.39,7.03,3.59,11.28,3.59Z"/>
                </g>
                <g>
                  <rect class="st11" x="725.69" y="1324.32" width="87.15" height="25.28"/>
                  <g>
                    <path class="st18" d="M740.54,1342.16c-.67,0-1.31-.12-1.91-.37-.6-.25-1.05-.56-1.37-.95l.19-.17c.29.35.72.64,1.27.88.55.24,1.16.36,1.8.36s1.23-.09,1.66-.28.75-.44.96-.75c.21-.32.31-.66.31-1.05,0-.44-.11-.8-.32-1.07-.21-.27-.5-.48-.85-.64-.36-.16-.74-.28-1.16-.39-.42-.1-.84-.21-1.26-.31-.42-.11-.81-.25-1.17-.42-.36-.17-.64-.41-.85-.71s-.32-.7-.32-1.19c0-.41.11-.79.33-1.15.22-.35.55-.64,1.01-.87.46-.22,1.05-.33,1.78-.33.5,0,.99.08,1.47.23.48.16.89.36,1.23.62l-.15.21c-.37-.28-.79-.48-1.24-.61-.45-.13-.89-.2-1.31-.2-.65,0-1.19.1-1.61.29-.43.19-.74.44-.95.76-.2.32-.31.67-.31,1.06,0,.45.11.81.32,1.08.21.27.5.48.85.64.35.16.74.28,1.17.39.42.1.84.21,1.26.32s.8.25,1.16.43c.35.17.64.41.85.7.21.29.32.68.32,1.16,0,.41-.11.79-.33,1.15s-.57.64-1.04.86-1.07.33-1.81.33Z"/>
                    <path class="st18" d="M746.27,1342.12v-9.32h6.01v.25h-5.74v8.82h5.94v.25h-6.21ZM746.47,1337.51v-.25h5.21v.25h-5.21Z"/>
                    <path class="st18" d="M758.9,1342.16c-.68,0-1.32-.12-1.9-.35-.58-.23-1.09-.57-1.52-.99-.43-.43-.77-.92-1.01-1.49-.24-.57-.36-1.19-.36-1.87s.12-1.3.36-1.86c.24-.57.58-1.07,1.01-1.49.43-.43.94-.76,1.52-.99.58-.24,1.21-.35,1.9-.35.61,0,1.19.1,1.75.29s1.03.49,1.42.89l-.16.19c-.43-.41-.89-.7-1.4-.87-.51-.17-1.04-.25-1.61-.25-.64,0-1.23.11-1.78.34-.55.23-1.03.54-1.44.95-.41.4-.73.88-.95,1.41s-.34,1.12-.34,1.75.11,1.21.34,1.75.54,1.01.95,1.41c.41.4.89.72,1.44.95.55.23,1.14.34,1.78.34.57,0,1.11-.09,1.61-.26.51-.17.97-.46,1.4-.87l.16.19c-.4.4-.87.7-1.42.9s-1.13.3-1.75.3Z"/>
                    <path class="st18" d="M767.77,1342.16c-.68,0-1.32-.12-1.9-.35-.58-.23-1.09-.57-1.52-.99-.43-.43-.77-.92-1.01-1.49-.24-.57-.36-1.19-.36-1.87s.12-1.3.36-1.86c.24-.57.58-1.07,1.01-1.49.43-.43.94-.76,1.52-.99.58-.24,1.21-.35,1.9-.35s1.32.12,1.9.35c.58.24,1.09.57,1.52.99.43.43.77.92,1,1.49.24.57.36,1.19.36,1.86s-.12,1.3-.36,1.87c-.24.57-.57,1.07-1,1.49-.43.43-.94.76-1.52.99-.58.24-1.21.35-1.9.35ZM767.77,1341.91c.64,0,1.23-.11,1.79-.33.55-.22,1.03-.54,1.44-.94.41-.4.73-.87.95-1.41.23-.54.34-1.12.34-1.76s-.11-1.23-.34-1.76-.54-1.01-.95-1.41c-.41-.4-.89-.72-1.44-.94-.55-.22-1.15-.33-1.79-.33s-1.23.11-1.78.33c-.55.22-1.03.54-1.44.94-.41.4-.73.88-.95,1.41s-.34,1.13-.34,1.76.11,1.23.34,1.76c.23.54.54,1.01.95,1.41.41.4.89.72,1.44.94.55.22,1.14.33,1.78.33Z"/>
                    <path class="st18" d="M775.11,1342.12v-9.32h.23l6.98,9.02h-.15v-9.02h.27v9.32h-.23l-6.98-9.02h.15v9.02h-.27Z"/>
                    <path class="st18" d="M785.98,1342.12v-9.32h3.53c.99,0,1.85.2,2.58.61.74.4,1.31.96,1.72,1.66.41.7.61,1.5.61,2.4s-.2,1.7-.61,2.4c-.41.7-.98,1.25-1.72,1.66-.74.4-1.6.61-2.58.61h-3.53ZM786.24,1341.87h3.24c.95,0,1.78-.19,2.48-.57.7-.38,1.24-.9,1.62-1.56.38-.66.57-1.42.57-2.27s-.19-1.61-.57-2.27c-.38-.66-.92-1.18-1.62-1.57s-1.53-.57-2.48-.57h-3.24v8.82Z"/>
                    <path class="st18" d="M799.26,1342.16c-.67,0-1.31-.12-1.91-.37-.6-.25-1.05-.56-1.37-.95l.19-.17c.29.35.72.64,1.27.88.55.24,1.16.36,1.8.36s1.23-.09,1.66-.28.75-.44.96-.75c.21-.32.31-.66.31-1.05,0-.44-.11-.8-.32-1.07-.21-.27-.5-.48-.85-.64-.36-.16-.74-.28-1.16-.39-.42-.1-.84-.21-1.26-.31-.42-.11-.81-.25-1.17-.42-.36-.17-.64-.41-.85-.71s-.32-.7-.32-1.19c0-.41.11-.79.33-1.15.22-.35.55-.64,1.01-.87.46-.22,1.05-.33,1.78-.33.5,0,.99.08,1.47.23.48.16.89.36,1.23.62l-.15.21c-.37-.28-.79-.48-1.24-.61-.45-.13-.89-.2-1.31-.2-.65,0-1.19.1-1.61.29-.43.19-.74.44-.95.76-.2.32-.31.67-.31,1.06,0,.45.11.81.32,1.08.21.27.5.48.85.64.35.16.74.28,1.17.39.42.1.84.21,1.26.32s.8.25,1.16.43c.35.17.64.41.85.7.21.29.32.68.32,1.16,0,.41-.11.79-.33,1.15s-.57.64-1.04.86-1.07.33-1.81.33Z"/>
                  </g>
                </g>
              </g>
            </g>
            <g>
              <path class="st6" d="M299.74,1397.29v-7.77h.22v7.55h4.63v.21h-4.85Z"/>
              <path class="st6" d="M309.17,1397.33c-.57,0-1.1-.1-1.58-.29s-.91-.47-1.26-.83c-.36-.36-.64-.77-.84-1.24-.2-.47-.3-.99-.3-1.55s.1-1.08.3-1.55c.2-.47.48-.89.84-1.24.36-.35.78-.63,1.26-.83.48-.2,1.01-.29,1.58-.29s1.1.1,1.58.29c.48.2.91.47,1.26.83.36.36.64.77.84,1.24.2.47.3.99.3,1.55s-.1,1.08-.3,1.55c-.2.47-.48.89-.84,1.24-.36.35-.78.63-1.26.83s-1.01.29-1.58.29ZM309.17,1397.11c.53,0,1.03-.09,1.49-.28.46-.18.86-.45,1.2-.78.34-.34.6-.73.79-1.18.19-.45.28-.94.28-1.47s-.09-1.02-.28-1.47-.45-.84-.79-1.18c-.34-.34-.74-.6-1.2-.78s-.95-.28-1.49-.28-1.03.09-1.49.28-.86.45-1.2.78c-.34.34-.6.73-.79,1.18s-.28.94-.28,1.47.09,1.02.28,1.47c.19.45.45.84.79,1.18.34.34.74.6,1.2.78.46.19.95.28,1.49.28Z"/>
              <path class="st6" d="M315.28,1397.29v-7.77h2.63c.95,0,1.7.22,2.24.67.54.45.81,1.08.81,1.88,0,.53-.12.99-.37,1.37s-.59.67-1.05.88c-.45.2-1,.31-1.64.31h-2.51l.1-.1v2.76h-.22ZM315.5,1394.51l-.1-.09h2.53c.91,0,1.6-.21,2.09-.62.48-.41.72-.99.72-1.72s-.24-1.32-.72-1.73c-.48-.41-1.18-.61-2.09-.61h-2.53l.1-.09v4.86ZM320.8,1397.29l-2.03-2.82h.28l2.03,2.82h-.28Z"/>
              <path class="st6" d="M323.23,1397.29v-7.77h5v.21h-4.78v7.34h4.95v.21h-5.17ZM323.39,1393.45v-.21h4.34v.21h-4.34Z"/>
              <path class="st6" d="M330.64,1397.29v-7.77h.19l3.69,6.46h-.1l3.68-6.46h.19v7.77h-.22v-7.44h.09l-3.63,6.34h-.13l-3.64-6.34h.1v7.44h-.22Z"/>
              <path class="st6" d="M344.02,1397.29v-7.77h.22v7.77h-.22Z"/>
              <path class="st6" d="M347.19,1397.29v-7.77h2.63c.64,0,1.18.1,1.64.31.46.2.8.49,1.05.87.24.38.37.84.37,1.38s-.12.99-.37,1.37-.59.67-1.05.88c-.45.2-1,.31-1.64.31h-2.51l.1-.1v2.76h-.22ZM347.41,1394.51l-.1-.09h2.53c.91,0,1.6-.21,2.09-.62.48-.41.72-.99.72-1.72s-.24-1.32-.72-1.73c-.48-.41-1.18-.61-2.09-.61h-2.53l.1-.09v4.86Z"/>
              <path class="st6" d="M356.96,1397.33c-.56,0-1.09-.1-1.59-.31-.5-.21-.88-.47-1.14-.79l.16-.14c.24.29.6.53,1.06.73.46.2.96.3,1.5.3s1.02-.08,1.38-.23c.36-.16.62-.36.8-.63s.26-.55.26-.87c0-.37-.09-.67-.27-.89s-.41-.4-.71-.53c-.3-.13-.62-.24-.97-.32s-.7-.17-1.05-.26c-.35-.09-.67-.21-.97-.35-.3-.14-.53-.34-.71-.59-.18-.25-.27-.58-.27-.99,0-.34.09-.66.27-.95.18-.29.46-.54.84-.72.38-.18.87-.28,1.48-.28.41,0,.82.07,1.23.19.4.13.75.3,1.03.52l-.12.18c-.31-.23-.65-.4-1.03-.51-.38-.11-.74-.17-1.09-.17-.54,0-.99.08-1.34.24s-.62.37-.79.63c-.17.26-.25.56-.25.88,0,.38.09.68.27.9.18.23.41.4.71.53.3.13.62.24.97.32.35.08.7.17,1.05.27s.67.21.96.35c.3.14.53.34.71.58.18.24.27.57.27.96,0,.34-.09.66-.28.95-.19.3-.47.53-.87.72-.39.18-.9.27-1.51.27Z"/>
              <path class="st6" d="M364.66,1397.33c-.92,0-1.65-.27-2.19-.82-.54-.55-.8-1.37-.8-2.46v-4.52h.22v4.5c0,1.04.24,1.81.73,2.32.48.51,1.17.77,2.05.77s1.56-.25,2.05-.77c.48-.51.73-1.28.73-2.32v-4.5h.22v4.52c0,1.09-.27,1.92-.8,2.46-.54.55-1.27.82-2.19.82Z"/>
              <path class="st6" d="M370.54,1397.29v-7.77h.19l3.69,6.46h-.1l3.68-6.46h.19v7.77h-.22v-7.44h.09l-3.63,6.34h-.13l-3.64-6.34h.1v7.44h-.22Z"/>
              <path class="st6" d="M383.92,1397.29v-7.77h2.94c.82,0,1.54.17,2.15.5.61.34,1.09.8,1.43,1.38.34.58.51,1.25.51,2s-.17,1.41-.51,2c-.34.58-.82,1.04-1.43,1.38-.61.34-1.33.5-2.15.5h-2.94ZM384.14,1397.08h2.7c.79,0,1.48-.16,2.06-.48.58-.32,1.04-.75,1.35-1.3.32-.55.48-1.18.48-1.89s-.16-1.34-.48-1.89c-.32-.55-.77-.99-1.35-1.3-.58-.32-1.27-.48-2.06-.48h-2.7v7.34Z"/>
              <path class="st6" d="M396.24,1397.33c-.57,0-1.1-.1-1.58-.29s-.91-.47-1.26-.83c-.36-.36-.64-.77-.84-1.24-.2-.47-.3-.99-.3-1.55s.1-1.08.3-1.55c.2-.47.48-.89.84-1.24.36-.35.78-.63,1.26-.83.48-.2,1.01-.29,1.58-.29s1.1.1,1.58.29c.48.2.91.47,1.26.83.36.36.64.77.84,1.24.2.47.3.99.3,1.55s-.1,1.08-.3,1.55c-.2.47-.48.89-.84,1.24-.36.35-.78.63-1.26.83s-1.01.29-1.58.29ZM396.24,1397.11c.53,0,1.03-.09,1.49-.28.46-.18.86-.45,1.2-.78.34-.34.6-.73.79-1.18.19-.45.28-.94.28-1.47s-.09-1.02-.28-1.47-.45-.84-.79-1.18c-.34-.34-.74-.6-1.2-.78s-.95-.28-1.49-.28-1.03.09-1.49.28-.86.45-1.2.78c-.34.34-.6.73-.79,1.18s-.28.94-.28,1.47.09,1.02.28,1.47c.19.45.45.84.79,1.18.34.34.74.6,1.2.78.46.19.95.28,1.49.28Z"/>
              <path class="st6" d="M402.36,1397.29v-7.77h.22v7.55h4.63v.21h-4.85Z"/>
              <path class="st6" d="M411.79,1397.33c-.57,0-1.1-.1-1.58-.29s-.91-.47-1.26-.83c-.36-.36-.64-.77-.84-1.24-.2-.47-.3-.99-.3-1.55s.1-1.08.3-1.55c.2-.47.48-.89.84-1.24.36-.35.78-.63,1.26-.83.48-.2,1.01-.29,1.58-.29s1.1.1,1.58.29c.48.2.91.47,1.26.83.36.36.64.77.84,1.24.2.47.3.99.3,1.55s-.1,1.08-.3,1.55c-.2.47-.48.89-.84,1.24-.36.35-.78.63-1.26.83s-1.01.29-1.58.29ZM411.79,1397.11c.53,0,1.03-.09,1.49-.28.46-.18.86-.45,1.2-.78.34-.34.6-.73.79-1.18.19-.45.28-.94.28-1.47s-.09-1.02-.28-1.47-.45-.84-.79-1.18c-.34-.34-.74-.6-1.2-.78s-.95-.28-1.49-.28-1.03.09-1.49.28-.86.45-1.2.78c-.34.34-.6.73-.79,1.18s-.28.94-.28,1.47.09,1.02.28,1.47c.19.45.45.84.79,1.18.34.34.74.6,1.2.78.46.19.95.28,1.49.28Z"/>
              <path class="st6" d="M417.9,1397.29v-7.77h2.63c.95,0,1.7.22,2.24.67.54.45.81,1.08.81,1.88,0,.53-.12.99-.37,1.37s-.59.67-1.05.88c-.45.2-1,.31-1.64.31h-2.51l.1-.1v2.76h-.22ZM418.12,1394.51l-.1-.09h2.53c.91,0,1.6-.21,2.09-.62.48-.41.72-.99.72-1.72s-.24-1.32-.72-1.73c-.48-.41-1.18-.61-2.09-.61h-2.53l.1-.09v4.86ZM423.41,1397.29l-2.03-2.82h.28l2.03,2.82h-.28Z"/>
              <path class="st6" d="M430.51,1397.33c-.56,0-1.09-.1-1.59-.31-.5-.21-.88-.47-1.14-.79l.16-.14c.24.29.6.53,1.06.73.46.2.96.3,1.5.3s1.02-.08,1.38-.23c.36-.16.62-.36.8-.63s.26-.55.26-.87c0-.37-.09-.67-.27-.89s-.41-.4-.71-.53c-.3-.13-.62-.24-.97-.32s-.7-.17-1.05-.26c-.35-.09-.67-.21-.97-.35-.3-.14-.53-.34-.71-.59-.18-.25-.27-.58-.27-.99,0-.34.09-.66.27-.95.18-.29.46-.54.84-.72.38-.18.87-.28,1.48-.28.41,0,.82.07,1.23.19.4.13.75.3,1.03.52l-.12.18c-.31-.23-.65-.4-1.03-.51-.38-.11-.74-.17-1.09-.17-.54,0-.99.08-1.34.24s-.62.37-.79.63c-.17.26-.25.56-.25.88,0,.38.09.68.27.9.18.23.41.4.71.53.3.13.62.24.97.32.35.08.7.17,1.05.27s.67.21.96.35c.3.14.53.34.71.58.18.24.27.57.27.96,0,.34-.09.66-.28.95-.19.3-.47.53-.87.72-.39.18-.9.27-1.51.27Z"/>
              <path class="st6" d="M435.28,1397.29v-7.77h.22v7.77h-.22Z"/>
              <path class="st6" d="M439.91,1397.29v-7.55h-2.88v-.21h5.99v.21h-2.88v7.55h-.22Z"/>
              <path class="st6" d="M445.93,1397.29l3.61-7.77h.22l3.6,7.77h-.25l-3.52-7.59h.11l-3.52,7.59h-.26ZM447.12,1394.95l.11-.21h4.83l.11.21h-5.05Z"/>
              <path class="st6" d="M454.94,1397.29v-7.77h.19l3.69,6.46h-.1l3.68-6.46h.19v7.77h-.22v-7.44h.09l-3.63,6.34h-.13l-3.64-6.34h.1v7.44h-.22Z"/>
              <path class="st6" d="M465.54,1397.29v-7.77h5v.21h-4.78v7.34h4.95v.21h-5.17ZM465.71,1393.45v-.21h4.34v.21h-4.34Z"/>
              <path class="st6" d="M474.41,1397.29v-7.55h-2.88v-.21h5.99v.21h-2.88v7.55h-.22Z"/>
              <path class="st6" d="M477.91,1398.84l.34-1.64v.12c-.09,0-.16-.03-.22-.09-.06-.06-.09-.12-.09-.2,0-.08.03-.15.08-.21.06-.06.12-.08.21-.08.09,0,.16.03.21.09s.08.13.08.19c0,.04,0,.07,0,.11,0,.04,0,.07-.02.1,0,.03-.02.07-.02.11l-.37,1.49h-.2Z"/>
              <path class="st6" d="M486.66,1397.33c-.57,0-1.1-.1-1.58-.29s-.91-.47-1.26-.83c-.36-.36-.64-.77-.84-1.24-.2-.47-.3-.99-.3-1.55s.1-1.08.3-1.55c.2-.47.48-.89.84-1.24.36-.35.78-.63,1.26-.83.48-.2,1.01-.29,1.58-.29.51,0,.99.08,1.45.24.46.16.85.41,1.19.74l-.13.16c-.35-.34-.74-.58-1.16-.72-.42-.14-.87-.21-1.34-.21-.53,0-1.03.09-1.49.28s-.86.45-1.2.79c-.34.34-.6.73-.79,1.18-.19.45-.28.93-.28,1.46s.09,1.01.28,1.46.45.84.79,1.18c.34.34.74.6,1.2.79.46.19.95.28,1.49.28.47,0,.92-.07,1.34-.22.42-.14.81-.39,1.16-.73l.13.16c-.33.33-.73.58-1.19.75-.46.17-.94.25-1.45.25Z"/>
              <path class="st6" d="M494.04,1397.33c-.57,0-1.1-.1-1.58-.29s-.91-.47-1.26-.83c-.36-.36-.64-.77-.84-1.24-.2-.47-.3-.99-.3-1.55s.1-1.08.3-1.55c.2-.47.48-.89.84-1.24.36-.35.78-.63,1.26-.83.48-.2,1.01-.29,1.58-.29s1.1.1,1.58.29c.48.2.91.47,1.26.83.36.36.64.77.84,1.24.2.47.3.99.3,1.55s-.1,1.08-.3,1.55c-.2.47-.48.89-.84,1.24-.36.35-.78.63-1.26.83s-1.01.29-1.58.29ZM494.04,1397.11c.53,0,1.03-.09,1.49-.28.46-.18.86-.45,1.2-.78.34-.34.6-.73.79-1.18.19-.45.28-.94.28-1.47s-.09-1.02-.28-1.47-.45-.84-.79-1.18c-.34-.34-.74-.6-1.2-.78s-.95-.28-1.49-.28-1.03.09-1.49.28-.86.45-1.2.78c-.34.34-.6.73-.79,1.18s-.28.94-.28,1.47.09,1.02.28,1.47c.19.45.45.84.79,1.18.34.34.74.6,1.2.78.46.19.95.28,1.49.28Z"/>
              <path class="st6" d="M500.16,1397.29v-7.77h.19l5.81,7.51h-.12v-7.51h.22v7.77h-.19l-5.81-7.51h.12v7.51h-.22Z"/>
              <path class="st6" d="M511.1,1397.33c-.56,0-1.09-.1-1.59-.31-.5-.21-.88-.47-1.14-.79l.16-.14c.24.29.6.53,1.06.73.46.2.96.3,1.5.3s1.02-.08,1.38-.23.62-.36.8-.63.26-.55.26-.87c0-.37-.09-.67-.27-.89-.18-.23-.41-.4-.71-.53-.3-.13-.62-.24-.97-.32s-.7-.17-1.05-.26c-.35-.09-.67-.21-.97-.35-.3-.14-.53-.34-.71-.59-.18-.25-.27-.58-.27-.99,0-.34.09-.66.27-.95.18-.29.46-.54.84-.72.38-.18.87-.28,1.48-.28.41,0,.82.07,1.23.19.4.13.74.3,1.03.52l-.12.18c-.31-.23-.65-.4-1.03-.51-.38-.11-.74-.17-1.09-.17-.54,0-.99.08-1.34.24s-.62.37-.79.63c-.17.26-.25.56-.25.88,0,.38.09.68.27.9.18.23.41.4.71.53.3.13.62.24.97.32.35.08.7.17,1.05.27s.67.21.97.35c.29.14.53.34.71.58.18.24.27.57.27.96,0,.34-.09.66-.28.95-.18.3-.47.53-.87.72-.39.18-.89.27-1.51.27Z"/>
              <path class="st6" d="M515.88,1397.29v-7.77h5v.21h-4.78v7.34h4.95v.21h-5.17ZM516.04,1393.45v-.21h4.34v.21h-4.34Z"/>
              <path class="st6" d="M526.39,1397.33c-.57,0-1.1-.1-1.58-.29s-.91-.47-1.26-.83c-.36-.36-.64-.77-.84-1.24-.2-.47-.3-.99-.3-1.55s.1-1.08.3-1.55c.2-.47.48-.89.84-1.24.36-.35.78-.63,1.26-.83.48-.2,1.01-.29,1.58-.29.51,0,1,.08,1.45.24.46.16.85.41,1.19.74l-.13.16c-.36-.34-.74-.58-1.17-.72s-.87-.21-1.34-.21c-.53,0-1.03.09-1.49.28-.46.19-.86.45-1.2.79-.34.34-.6.73-.79,1.18-.19.45-.28.93-.28,1.46s.09,1.01.28,1.46.45.84.79,1.18c.34.34.74.6,1.2.79.46.19.95.28,1.49.28.47,0,.92-.07,1.34-.22.42-.14.81-.39,1.17-.73l.13.16c-.33.33-.73.58-1.19.75-.46.17-.94.25-1.45.25Z"/>
              <path class="st6" d="M532.35,1397.29v-7.55h-2.88v-.21h5.99v.21h-2.88v7.55h-.22Z"/>
              <path class="st6" d="M536.97,1397.29v-7.77h5v.21h-4.78v7.34h4.95v.21h-5.17ZM537.14,1393.45v-.21h4.34v.21h-4.34Z"/>
              <path class="st6" d="M545.84,1397.29v-7.55h-2.88v-.21h5.99v.21h-2.88v7.55h-.22Z"/>
              <path class="st6" d="M553.23,1397.33c-.92,0-1.66-.27-2.19-.82-.54-.55-.8-1.37-.8-2.46v-4.52h.22v4.5c0,1.04.24,1.81.73,2.32.48.51,1.17.77,2.05.77s1.56-.25,2.05-.77c.48-.51.73-1.28.73-2.32v-4.5h.22v4.52c0,1.09-.27,1.92-.8,2.46-.54.55-1.27.82-2.19.82Z"/>
              <path class="st6" d="M559.11,1397.29v-7.77h5v.21h-4.78v7.34h4.95v.21h-5.17ZM559.27,1393.45v-.21h4.34v.21h-4.34Z"/>
              <path class="st6" d="M566.52,1397.29v-7.77h2.63c.95,0,1.7.22,2.24.67.54.45.81,1.08.81,1.88,0,.53-.12.99-.37,1.37s-.59.67-1.05.88c-.46.2-1,.31-1.64.31h-2.51l.1-.1v2.76h-.22ZM566.74,1394.51l-.1-.09h2.53c.91,0,1.6-.21,2.08-.62.48-.41.72-.99.72-1.72s-.24-1.32-.72-1.73c-.48-.41-1.18-.61-2.08-.61h-2.53l.1-.09v4.86ZM572.03,1397.29l-2.03-2.82h.28l2.03,2.82h-.28Z"/>
              <path class="st6" d="M575.86,1397.29l3.61-7.77h.22l3.61,7.77h-.25l-3.52-7.59h.11l-3.52,7.59h-.26ZM577.04,1394.95l.11-.21h4.83l.11.21h-5.05Z"/>
              <path class="st6" d="M584.86,1397.29v-7.77h2.94c.82,0,1.54.17,2.15.5.61.34,1.09.8,1.43,1.38.34.58.51,1.25.51,2s-.17,1.41-.51,2c-.34.58-.82,1.04-1.43,1.38-.61.34-1.33.5-2.15.5h-2.94ZM585.08,1397.08h2.7c.79,0,1.48-.16,2.06-.48.58-.32,1.04-.75,1.35-1.3.32-.55.48-1.18.48-1.89s-.16-1.34-.48-1.89c-.32-.55-.77-.99-1.35-1.3-.58-.32-1.27-.48-2.06-.48h-2.7v7.34Z"/>
              <path class="st6" d="M594.03,1397.29v-7.77h.22v7.77h-.22Z"/>
              <path class="st6" d="M597.2,1397.29v-7.77h2.63c.64,0,1.18.1,1.64.31.45.2.8.49,1.05.87.24.38.37.84.37,1.38s-.12.99-.37,1.37-.59.67-1.05.88c-.46.2-1,.31-1.64.31h-2.51l.1-.1v2.76h-.22ZM597.42,1394.51l-.1-.09h2.53c.91,0,1.6-.21,2.08-.62.48-.41.72-.99.72-1.72s-.24-1.32-.72-1.73c-.48-.41-1.18-.61-2.08-.61h-2.53l.1-.09v4.86Z"/>
              <path class="st6" d="M604.96,1397.29v-7.77h.22v7.77h-.22Z"/>
              <path class="st6" d="M610.03,1397.33c-.56,0-1.09-.1-1.59-.31s-.88-.47-1.14-.79l.16-.14c.24.29.6.53,1.06.73.46.2.96.3,1.5.3s1.02-.08,1.38-.23c.36-.16.62-.36.8-.63s.26-.55.26-.87c0-.37-.09-.67-.27-.89-.18-.23-.41-.4-.71-.53-.3-.13-.62-.24-.96-.32s-.7-.17-1.05-.26c-.35-.09-.67-.21-.97-.35-.3-.14-.53-.34-.71-.59-.18-.25-.27-.58-.27-.99,0-.34.09-.66.27-.95.18-.29.46-.54.84-.72.38-.18.87-.28,1.48-.28.41,0,.82.07,1.23.19.4.13.75.3,1.03.52l-.12.18c-.31-.23-.65-.4-1.03-.51-.38-.11-.74-.17-1.09-.17-.54,0-.99.08-1.34.24-.35.16-.62.37-.79.63-.17.26-.26.56-.26.88,0,.38.09.68.27.9s.41.4.71.53c.3.13.62.24.97.32.35.08.7.17,1.05.27s.67.21.97.35c.29.14.53.34.71.58.18.24.27.57.27.96,0,.34-.09.66-.28.95-.18.3-.47.53-.87.72-.39.18-.89.27-1.51.27Z"/>
              <path class="st6" d="M617.97,1397.33c-.57,0-1.1-.1-1.58-.29s-.91-.47-1.26-.83c-.36-.36-.64-.77-.84-1.24-.2-.47-.3-.99-.3-1.55s.1-1.08.3-1.55c.2-.47.48-.89.84-1.24.36-.35.78-.63,1.26-.83.48-.2,1.01-.29,1.58-.29.51,0,1,.08,1.45.24.46.16.85.41,1.19.74l-.13.16c-.36-.34-.74-.58-1.17-.72s-.87-.21-1.34-.21c-.53,0-1.03.09-1.49.28-.46.19-.86.45-1.2.79-.34.34-.6.73-.79,1.18-.19.45-.28.93-.28,1.46s.09,1.01.28,1.46.45.84.79,1.18c.34.34.74.6,1.2.79.46.19.95.28,1.49.28.47,0,.92-.07,1.34-.22.42-.14.81-.39,1.17-.73l.13.16c-.33.33-.73.58-1.19.75-.46.17-.94.25-1.45.25Z"/>
              <path class="st6" d="M622.58,1397.29v-7.77h.22v7.77h-.22Z"/>
              <path class="st6" d="M625.75,1397.29v-7.77h.19l5.81,7.51h-.12v-7.51h.22v7.77h-.19l-5.81-7.51h.12v7.51h-.22Z"/>
              <path class="st6" d="M638,1397.33c-.58,0-1.11-.1-1.6-.29-.49-.2-.91-.47-1.28-.83-.36-.36-.64-.77-.84-1.24-.2-.47-.3-.99-.3-1.55s.1-1.08.3-1.55c.2-.47.48-.89.84-1.24.36-.35.79-.63,1.28-.83.49-.2,1.02-.29,1.6-.29.53,0,1.02.08,1.48.24.46.16.86.41,1.19.74l-.13.16c-.36-.34-.75-.58-1.17-.72-.42-.14-.88-.21-1.37-.21-.54,0-1.04.09-1.5.28s-.87.45-1.21.79c-.34.34-.61.73-.8,1.18-.19.45-.28.93-.28,1.46s.09,1.01.28,1.46.46.84.8,1.18c.34.34.75.6,1.21.79.46.19.96.28,1.5.28.49,0,.95-.07,1.38-.22.43-.15.82-.39,1.16-.73l.13.17c-.33.33-.73.58-1.19.75-.46.17-.96.25-1.48.25ZM640.67,1396.33l-.21-.02v-2.82h.21v2.84Z"/>
              <path class="st6" d="M646.17,1397.29v-7.77h5v.21h-4.78v7.34h4.95v.21h-5.17ZM646.33,1393.45v-.21h4.34v.21h-4.34Z"/>
              <path class="st6" d="M653.58,1397.29v-7.77h.22v7.55h4.63v.21h-4.85Z"/>
              <path class="st6" d="M660.01,1397.29v-7.77h.22v7.77h-.22Z"/>
              <path class="st6" d="M664.63,1397.29v-7.55h-2.88v-.21h5.99v.21h-2.88v7.55h-.22Z"/>
              <path class="st6" d="M668.14,1398.84l.34-1.64v.12c-.09,0-.16-.03-.22-.09s-.09-.12-.09-.2c0-.08.03-.15.08-.21.05-.06.12-.08.21-.08.09,0,.16.03.21.09.05.06.08.13.08.19,0,.04,0,.07,0,.11,0,.04,0,.07-.02.1,0,.03-.01.07-.02.11l-.37,1.49h-.2Z"/>
              <path class="st6" d="M675.62,1397.33c-.56,0-1.09-.1-1.59-.31s-.88-.47-1.14-.79l.16-.14c.24.29.6.53,1.06.73.46.2.96.3,1.5.3s1.02-.08,1.38-.23c.36-.16.62-.36.8-.63s.26-.55.26-.87c0-.37-.09-.67-.27-.89-.18-.23-.41-.4-.71-.53-.3-.13-.62-.24-.96-.32s-.7-.17-1.05-.26c-.35-.09-.67-.21-.97-.35-.3-.14-.53-.34-.71-.59-.18-.25-.27-.58-.27-.99,0-.34.09-.66.27-.95.18-.29.46-.54.84-.72.38-.18.87-.28,1.48-.28.41,0,.82.07,1.23.19.4.13.75.3,1.03.52l-.12.18c-.31-.23-.65-.4-1.03-.51-.38-.11-.74-.17-1.09-.17-.54,0-.99.08-1.34.24-.35.16-.62.37-.79.63-.17.26-.26.56-.26.88,0,.38.09.68.27.9s.41.4.71.53c.3.13.62.24.97.32.35.08.7.17,1.05.27s.67.21.97.35c.29.14.53.34.71.58.18.24.27.57.27.96,0,.34-.09.66-.28.95-.18.3-.47.53-.87.72-.39.18-.89.27-1.51.27Z"/>
              <path class="st6" d="M680.39,1397.29v-7.77h5v.21h-4.78v7.34h4.95v.21h-5.17ZM680.55,1393.45v-.21h4.34v.21h-4.34Z"/>
              <path class="st6" d="M687.8,1397.29v-7.77h2.94c.82,0,1.54.17,2.15.5.61.34,1.09.8,1.43,1.38.34.58.51,1.25.51,2s-.17,1.41-.51,2c-.34.58-.82,1.04-1.43,1.38-.61.34-1.33.5-2.15.5h-2.94ZM688.02,1397.08h2.7c.79,0,1.48-.16,2.06-.48.58-.32,1.04-.75,1.35-1.3.32-.55.48-1.18.48-1.89s-.16-1.34-.48-1.89c-.32-.55-.77-.99-1.35-1.3-.58-.32-1.27-.48-2.06-.48h-2.7v7.34Z"/>
              <path class="st6" d="M699.73,1397.29v-7.77h2.94c.82,0,1.54.17,2.15.5.61.34,1.09.8,1.43,1.38.34.58.51,1.25.51,2s-.17,1.41-.51,2c-.34.58-.82,1.04-1.43,1.38-.61.34-1.33.5-2.15.5h-2.94ZM699.96,1397.08h2.7c.79,0,1.48-.16,2.06-.48.58-.32,1.04-.75,1.35-1.3.32-.55.48-1.18.48-1.89s-.16-1.34-.48-1.89c-.32-.55-.77-.99-1.35-1.3-.58-.32-1.27-.48-2.06-.48h-2.7v7.34Z"/>
              <path class="st6" d="M708.9,1397.29v-7.77h.22v7.77h-.22Z"/>
              <path class="st6" d="M710.69,1397.29l3.61-7.77h.22l3.61,7.77h-.25l-3.52-7.59h.11l-3.52,7.59h-.26ZM711.88,1394.95l.11-.21h4.83l.11.21h-5.05Z"/>
              <path class="st6" d="M719.7,1397.29v-7.77h.19l3.69,6.46h-.1l3.68-6.46h.19v7.77h-.22v-7.44h.09l-3.63,6.34h-.13l-3.64-6.34h.1v7.44h-.22Z"/>
              <path class="st6" d="M733.08,1397.29v-7.77h.19l5.81,7.51h-.12v-7.51h.22v7.77h-.19l-5.81-7.51h.12v7.51h-.22Z"/>
              <path class="st6" d="M745.29,1397.33c-.57,0-1.1-.1-1.58-.29s-.91-.47-1.26-.83c-.36-.36-.64-.77-.84-1.24-.2-.47-.3-.99-.3-1.55s.1-1.08.3-1.55c.2-.47.48-.89.84-1.24.36-.35.78-.63,1.26-.83.48-.2,1.01-.29,1.58-.29s1.1.1,1.58.29c.48.2.91.47,1.26.83.36.36.64.77.84,1.24.2.47.3.99.3,1.55s-.1,1.08-.3,1.55c-.2.47-.48.89-.84,1.24-.36.35-.78.63-1.26.83s-1.01.29-1.58.29ZM745.29,1397.11c.53,0,1.03-.09,1.49-.28.46-.18.86-.45,1.2-.78.34-.34.61-.73.79-1.18.19-.45.28-.94.28-1.47s-.09-1.02-.28-1.47-.45-.84-.79-1.18c-.34-.34-.74-.6-1.2-.78-.46-.18-.95-.28-1.49-.28s-1.03.09-1.49.28c-.46.18-.86.45-1.2.78-.34.34-.6.73-.79,1.18s-.28.94-.28,1.47.09,1.02.28,1.47c.19.45.45.84.79,1.18.34.34.74.6,1.2.78.46.19.95.28,1.49.28Z"/>
              <path class="st6" d="M751.41,1397.29v-7.77h.19l5.81,7.51h-.12v-7.51h.22v7.77h-.19l-5.81-7.51h.12v7.51h-.22Z"/>
              <path class="st6" d="M763.39,1397.33c-.92,0-1.66-.27-2.19-.82-.54-.55-.8-1.37-.8-2.46v-4.52h.22v4.5c0,1.04.24,1.81.73,2.32.48.51,1.17.77,2.05.77s1.56-.25,2.05-.77c.48-.51.73-1.28.73-2.32v-4.5h.22v4.52c0,1.09-.27,1.92-.8,2.46-.54.55-1.27.82-2.19.82Z"/>
              <path class="st6" d="M769.27,1397.29v-7.77h.19l3.69,6.46h-.1l3.68-6.46h.19v7.77h-.22v-7.44h.09l-3.63,6.34h-.13l-3.64-6.34h.1v7.44h-.22Z"/>
              <path class="st6" d="M779.87,1397.29v-7.77h.19l3.69,6.46h-.1l3.68-6.46h.19v7.77h-.22v-7.44h.09l-3.63,6.34h-.13l-3.64-6.34h.1v7.44h-.22Z"/>
              <path class="st6" d="M792.11,1397.29v-2.72l.06.17-3.22-5.21h.25l3.06,4.96h-.09l3.06-4.96h.25l-3.22,5.21.05-.17v2.72h-.22Z"/>
              <path class="st6" d="M408.83,1419.48v-7.77h.19l5.81,7.51h-.12v-7.51h.22v7.77h-.19l-5.81-7.51h.12v7.51h-.22Z"/>
              <path class="st6" d="M417.89,1419.48v-7.77h.22v7.77h-.22Z"/>
              <path class="st6" d="M421.06,1419.48v-7.77h3.07c.8,0,1.43.17,1.9.49s.7.82.7,1.47c0,.43-.1.79-.31,1.07-.21.29-.5.5-.87.64-.37.14-.8.21-1.28.21l.19-.14c.6,0,1.1.08,1.49.23.4.15.69.38.89.67s.3.66.3,1.1c0,.65-.23,1.15-.69,1.5-.46.35-1.17.53-2.11.53h-3.29ZM421.28,1419.27h3.12c.83,0,1.46-.15,1.89-.44.43-.29.65-.75.65-1.38s-.22-1.09-.65-1.38c-.43-.29-1.06-.43-1.89-.43h-3.17v-.21h2.95c.74,0,1.31-.15,1.73-.44.41-.29.62-.73.62-1.31s-.21-1.01-.62-1.31c-.41-.29-.99-.44-1.73-.44h-2.9v7.34Z"/>
              <path class="st6" d="M429.36,1419.48v-7.77h.22v7.77h-.22ZM429.52,1415.64v-.21h5.77v.21h-5.77ZM435.24,1419.48v-7.77h.22v7.77h-.22Z"/>
              <path class="st6" d="M441.18,1419.48v-7.77h5v.21h-4.78v7.34h4.95v.21h-5.17ZM441.35,1415.64v-.21h4.34v.21h-4.34Z"/>
              <path class="st6" d="M451.52,1419.51c-.92,0-1.65-.27-2.19-.82-.54-.55-.8-1.37-.8-2.46v-4.52h.22v4.5c0,1.04.24,1.81.73,2.32.48.51,1.17.77,2.05.77s1.56-.25,2.05-.77c.48-.51.73-1.28.73-2.32v-4.5h.22v4.52c0,1.09-.27,1.92-.8,2.46-.54.55-1.27.82-2.19.82Z"/>
              <path class="st6" d="M457.4,1419.48v-7.77h.22v7.77h-.22Z"/>
              <path class="st6" d="M462.47,1419.51c-.56,0-1.09-.1-1.59-.31-.5-.21-.88-.47-1.14-.79l.16-.14c.24.29.6.53,1.06.73.46.2.96.3,1.5.3s1.02-.08,1.38-.23c.36-.16.62-.36.8-.63s.26-.55.26-.87c0-.37-.09-.67-.27-.89s-.41-.4-.71-.53c-.3-.13-.62-.24-.97-.32s-.7-.17-1.05-.26c-.35-.09-.67-.21-.97-.35-.3-.14-.53-.34-.71-.59-.18-.25-.27-.58-.27-.99,0-.34.09-.66.27-.95.18-.29.46-.54.84-.72.38-.18.87-.28,1.48-.28.41,0,.82.07,1.23.19.4.13.75.3,1.03.52l-.12.18c-.31-.23-.65-.4-1.03-.51-.38-.11-.74-.17-1.09-.17-.54,0-.99.08-1.34.24s-.62.37-.79.63c-.17.26-.25.56-.25.88,0,.38.09.68.27.9.18.23.41.4.71.53.3.13.62.24.97.32.35.08.7.17,1.05.27s.67.21.96.35c.3.14.53.34.71.58.18.24.27.57.27.96,0,.34-.09.66-.28.95-.19.3-.47.53-.87.72-.39.18-.9.27-1.51.27Z"/>
              <path class="st6" d="M467.24,1419.48v-7.77h.19l3.69,6.46h-.1l3.68-6.46h.19v7.77h-.22v-7.44h.09l-3.63,6.34h-.13l-3.64-6.34h.1v7.44h-.22Z"/>
              <path class="st6" d="M481.01,1419.51c-.57,0-1.1-.1-1.58-.29s-.91-.47-1.26-.83c-.36-.36-.64-.77-.84-1.24-.2-.47-.3-.99-.3-1.55s.1-1.08.3-1.55c.2-.47.48-.89.84-1.24.36-.35.78-.63,1.26-.83.48-.2,1.01-.29,1.58-.29s1.1.1,1.58.29c.48.2.91.47,1.26.83.36.36.64.77.84,1.24.2.47.3.99.3,1.55s-.1,1.08-.3,1.55c-.2.47-.48.89-.84,1.24-.36.35-.78.63-1.26.83s-1.01.29-1.58.29ZM481.01,1419.3c.53,0,1.03-.09,1.49-.28.46-.18.86-.45,1.2-.78.34-.34.6-.73.79-1.18.19-.45.28-.94.28-1.47s-.09-1.02-.28-1.47-.45-.84-.79-1.18c-.34-.34-.74-.6-1.2-.78s-.95-.28-1.49-.28-1.03.09-1.49.28-.86.45-1.2.78c-.34.34-.6.73-.79,1.18s-.28.94-.28,1.47.09,1.02.28,1.47c.19.45.45.84.79,1.18.34.34.74.6,1.2.78.46.19.95.28,1.49.28Z"/>
              <path class="st6" d="M487.12,1419.48v-7.77h2.94c.82,0,1.54.17,2.15.5.61.34,1.09.8,1.43,1.38.34.58.51,1.25.51,2s-.17,1.41-.51,2c-.34.58-.82,1.04-1.43,1.38-.61.34-1.33.5-2.15.5h-2.94ZM487.34,1419.27h2.7c.79,0,1.48-.16,2.06-.48.58-.32,1.04-.75,1.35-1.3.32-.55.48-1.18.48-1.89s-.16-1.34-.48-1.89c-.32-.55-.77-.99-1.35-1.3-.58-.32-1.27-.48-2.06-.48h-2.7v7.34Z"/>
              <path class="st6" d="M500.51,1419.48v-7.55h-2.88v-.21h5.99v.21h-2.88v7.55h-.22Z"/>
              <path class="st6" d="M505.14,1419.48v-7.77h.22v7.77h-.22Z"/>
              <path class="st6" d="M508.31,1419.48v-7.77h.19l5.81,7.51h-.12v-7.51h.22v7.77h-.19l-5.81-7.51h.12v7.51h-.22Z"/>
              <path class="st6" d="M520.52,1419.51c-.57,0-1.1-.1-1.58-.29s-.91-.47-1.26-.83c-.36-.36-.64-.77-.84-1.24-.2-.47-.3-.99-.3-1.55s.1-1.08.3-1.55c.2-.47.48-.89.84-1.24.36-.35.78-.63,1.26-.83.48-.2,1.01-.29,1.58-.29.51,0,1,.08,1.45.24.46.16.85.41,1.19.74l-.13.16c-.36-.34-.74-.58-1.17-.72s-.87-.21-1.34-.21c-.53,0-1.03.09-1.49.28-.46.19-.86.45-1.2.79-.34.34-.6.73-.79,1.18-.19.45-.28.93-.28,1.46s.09,1.01.28,1.46.45.84.79,1.18c.34.34.74.6,1.2.79.46.19.95.28,1.49.28.47,0,.92-.07,1.34-.22.42-.14.81-.39,1.17-.73l.13.16c-.33.33-.73.58-1.19.75-.46.17-.94.25-1.45.25Z"/>
              <path class="st6" d="M525.14,1419.48v-7.77h.22v7.77h-.22Z"/>
              <path class="st6" d="M528.31,1419.48v-7.77h2.94c.82,0,1.54.17,2.15.5.61.34,1.09.8,1.43,1.38.34.58.51,1.25.51,2s-.17,1.41-.51,2c-.34.58-.82,1.04-1.43,1.38-.61.34-1.33.5-2.15.5h-2.94ZM528.53,1419.27h2.7c.79,0,1.48-.16,2.06-.48.58-.32,1.04-.75,1.35-1.3.32-.55.48-1.18.48-1.89s-.16-1.34-.48-1.89c-.32-.55-.77-.99-1.35-1.3-.58-.32-1.27-.48-2.06-.48h-2.7v7.34Z"/>
              <path class="st6" d="M540.4,1419.51c-.92,0-1.66-.27-2.19-.82-.54-.55-.8-1.37-.8-2.46v-4.52h.22v4.5c0,1.04.24,1.81.73,2.32.48.51,1.17.77,2.05.77s1.56-.25,2.05-.77c.48-.51.73-1.28.73-2.32v-4.5h.22v4.52c0,1.09-.27,1.92-.8,2.46-.54.55-1.27.82-2.19.82Z"/>
              <path class="st6" d="M546.28,1419.48v-7.77h.19l5.81,7.51h-.12v-7.51h.22v7.77h-.19l-5.81-7.51h.12v7.51h-.22Z"/>
              <path class="st6" d="M556.79,1419.48v-7.55h-2.88v-.21h5.99v.21h-2.88v7.55h-.22Z"/>
              <path class="st6" d="M567.12,1419.51c-.92,0-1.66-.27-2.19-.82-.54-.55-.8-1.37-.8-2.46v-4.52h.22v4.5c0,1.04.24,1.81.73,2.32.48.51,1.17.77,2.05.77s1.56-.25,2.05-.77c.48-.51.73-1.28.73-2.32v-4.5h.22v4.52c0,1.09-.27,1.92-.8,2.46-.54.55-1.27.82-2.19.82Z"/>
              <path class="st6" d="M574.28,1419.48v-7.55h-2.88v-.21h5.99v.21h-2.88v7.55h-.22Z"/>
              <path class="st6" d="M581.68,1419.48v-7.77h.22v7.55h4.63v.21h-4.85Z"/>
              <path class="st6" d="M586.74,1419.48l3.61-7.77h.22l3.61,7.77h-.25l-3.52-7.59h.11l-3.52,7.59h-.26ZM587.93,1417.14l.11-.21h4.83l.11.21h-5.05Z"/>
              <path class="st6" d="M598.8,1419.51c-.57,0-1.1-.1-1.58-.29s-.91-.47-1.26-.83c-.36-.36-.64-.77-.84-1.24-.2-.47-.3-.99-.3-1.55s.1-1.08.3-1.55c.2-.47.48-.89.84-1.24.36-.35.78-.63,1.26-.83.48-.2,1.01-.29,1.58-.29s1.1.1,1.58.29c.48.2.91.47,1.26.83.36.36.64.77.84,1.24.2.47.3.99.3,1.55s-.1,1.08-.3,1.55c-.2.47-.48.89-.84,1.24-.36.35-.78.63-1.26.83s-1.01.29-1.58.29ZM598.8,1419.3c.53,0,1.03-.09,1.49-.28.46-.18.86-.45,1.2-.78.34-.34.61-.73.79-1.18.19-.45.28-.94.28-1.47s-.09-1.02-.28-1.47-.45-.84-.79-1.18c-.34-.34-.74-.6-1.2-.78-.46-.18-.95-.28-1.49-.28s-1.03.09-1.49.28c-.46.18-.86.45-1.2.78-.34.34-.6.73-.79,1.18s-.28.94-.28,1.47.09,1.02.28,1.47c.19.45.45.84.79,1.18.34.34.74.6,1.2.78.46.19.95.28,1.49.28Z"/>
              <path class="st6" d="M604.91,1419.48v-7.77h2.63c.95,0,1.7.22,2.24.67.54.45.81,1.08.81,1.88,0,.53-.12.99-.37,1.37s-.59.67-1.05.88c-.46.2-1,.31-1.64.31h-2.51l.1-.1v2.76h-.22ZM605.13,1416.69l-.1-.09h2.53c.91,0,1.6-.21,2.08-.62.48-.41.72-.99.72-1.72s-.24-1.32-.72-1.73c-.48-.41-1.18-.61-2.08-.61h-2.53l.1-.09v4.86ZM610.42,1419.48l-2.03-2.82h.28l2.03,2.82h-.28Z"/>
              <path class="st6" d="M612.85,1419.48v-7.77h5v.21h-4.78v7.34h4.95v.21h-5.17ZM613.02,1415.64v-.21h4.34v.21h-4.34Z"/>
              <path class="st6" d="M620.26,1419.48v-7.77h5v.21h-4.78v7.34h4.95v.21h-5.17ZM620.43,1415.64v-.21h4.34v.21h-4.34Z"/>
              <path class="st6" d="M629.13,1419.48v-7.55h-2.88v-.21h5.99v.21h-2.88v7.55h-.22Z"/>
              <path class="st6" d="M636.53,1419.48v-7.77h2.94c.82,0,1.54.17,2.15.5.61.34,1.09.8,1.43,1.38.34.58.51,1.25.51,2s-.17,1.41-.51,2c-.34.58-.82,1.04-1.43,1.38-.61.34-1.33.5-2.15.5h-2.94ZM636.75,1419.27h2.7c.79,0,1.48-.16,2.06-.48.58-.32,1.04-.75,1.35-1.3.32-.55.48-1.18.48-1.89s-.16-1.34-.48-1.89c-.32-.55-.77-.99-1.35-1.3-.58-.32-1.27-.48-2.06-.48h-2.7v7.34Z"/>
              <path class="st6" d="M648.85,1419.51c-.57,0-1.1-.1-1.58-.29s-.91-.47-1.26-.83c-.36-.36-.64-.77-.84-1.24-.2-.47-.3-.99-.3-1.55s.1-1.08.3-1.55c.2-.47.48-.89.84-1.24.36-.35.78-.63,1.26-.83.48-.2,1.01-.29,1.58-.29s1.1.1,1.58.29c.48.2.91.47,1.26.83.36.36.64.77.84,1.24.2.47.3.99.3,1.55s-.1,1.08-.3,1.55c-.2.47-.48.89-.84,1.24-.36.35-.78.63-1.26.83s-1.01.29-1.58.29ZM648.85,1419.3c.53,0,1.03-.09,1.49-.28.46-.18.86-.45,1.2-.78.34-.34.61-.73.79-1.18.19-.45.28-.94.28-1.47s-.09-1.02-.28-1.47-.45-.84-.79-1.18c-.34-.34-.74-.6-1.2-.78-.46-.18-.95-.28-1.49-.28s-1.03.09-1.49.28c-.46.18-.86.45-1.2.78-.34.34-.6.73-.79,1.18s-.28.94-.28,1.47.09,1.02.28,1.47c.19.45.45.84.79,1.18.34.34.74.6,1.2.78.46.19.95.28,1.49.28Z"/>
              <path class="st6" d="M654.96,1419.48v-7.77h.22v7.55h4.63v.21h-4.85Z"/>
              <path class="st6" d="M664.39,1419.51c-.57,0-1.1-.1-1.58-.29s-.91-.47-1.26-.83c-.36-.36-.64-.77-.84-1.24-.2-.47-.3-.99-.3-1.55s.1-1.08.3-1.55c.2-.47.48-.89.84-1.24.36-.35.78-.63,1.26-.83.48-.2,1.01-.29,1.58-.29s1.1.1,1.58.29c.48.2.91.47,1.26.83.36.36.64.77.84,1.24.2.47.3.99.3,1.55s-.1,1.08-.3,1.55c-.2.47-.48.89-.84,1.24-.36.35-.78.63-1.26.83s-1.01.29-1.58.29ZM664.39,1419.3c.53,0,1.03-.09,1.49-.28.46-.18.86-.45,1.2-.78.34-.34.61-.73.79-1.18.19-.45.28-.94.28-1.47s-.09-1.02-.28-1.47-.45-.84-.79-1.18c-.34-.34-.74-.6-1.2-.78-.46-.18-.95-.28-1.49-.28s-1.03.09-1.49.28c-.46.18-.86.45-1.2.78-.34.34-.6.73-.79,1.18s-.28.94-.28,1.47.09,1.02.28,1.47c.19.45.45.84.79,1.18.34.34.74.6,1.2.78.46.19.95.28,1.49.28Z"/>
              <path class="st6" d="M670.5,1419.48v-7.77h2.63c.95,0,1.7.22,2.24.67.54.45.81,1.08.81,1.88,0,.53-.12.99-.37,1.37s-.59.67-1.05.88c-.46.2-1,.31-1.64.31h-2.51l.1-.1v2.76h-.22ZM670.73,1416.69l-.1-.09h2.53c.91,0,1.6-.21,2.08-.62.48-.41.72-.99.72-1.72s-.24-1.32-.72-1.73c-.48-.41-1.18-.61-2.08-.61h-2.53l.1-.09v4.86ZM676.02,1419.48l-2.03-2.82h.28l2.03,2.82h-.28Z"/>
              <path class="st6" d="M678.45,1419.48v-7.77h5v.21h-4.78v7.34h4.95v.21h-5.17ZM678.61,1415.64v-.21h4.34v.21h-4.34Z"/>
              <path class="st6" d="M685.5,1419.51c-.07,0-.14-.03-.2-.09s-.09-.12-.09-.2c0-.08.03-.15.09-.21.06-.06.13-.08.2-.08.08,0,.15.03.21.08.06.05.08.12.08.21,0,.07-.03.14-.08.2-.06.06-.12.09-.21.09Z"/>
            </g>
          </g>
        </g>
        <g>
          <path class="st6" d="M92.87,971.21c0,5.67-1.8,9.99-5.39,12.95-3.59,2.96-7.66,4.44-12.2,4.44s-8.6-1.48-12.2-4.44c-3.59-2.96-5.39-7.28-5.39-12.95s1.8-9.99,5.39-12.95c3.59-2.96,7.66-4.44,12.2-4.44s8.6,1.48,12.2,4.44c3.59,2.96,5.39,7.28,5.39,12.95Z"/>
          <path class="st6" d="M139.38,971.21c0,5.67-1.8,9.99-5.39,12.95-3.59,2.96-7.66,4.44-12.2,4.44s-8.6-1.48-12.2-4.44c-3.59-2.96-5.39-7.28-5.39-12.95s1.8-9.99,5.39-12.95c3.59-2.96,7.66-4.44,12.2-4.44s8.6,1.48,12.2,4.44c3.59,2.96,5.39,7.28,5.39,12.95Z"/>
          <path class="st6" d="M185.89,971.21c0,5.67-1.8,9.99-5.39,12.95-3.59,2.96-7.66,4.44-12.2,4.44s-8.6-1.48-12.2-4.44c-3.59-2.96-5.39-7.28-5.39-12.95s1.8-9.99,5.39-12.95c3.59-2.96,7.66-4.44,12.2-4.44s8.6,1.48,12.2,4.44c3.59,2.96,5.39,7.28,5.39,12.95Z"/>
          <path class="st6" d="M202.91,844.34l26.47-4.92v121.01c1.76.51,4.03,1.01,6.81,1.51,2.77.51,5.61.76,8.51.76h1.89v23.45h-6.62c-4.41,0-8.6-.19-12.57-.57s-7.56-.85-10.78-1.42c-3.21-.57-6.02-1.13-8.41-1.7-2.4-.57-4.16-1.04-5.29-1.42v-136.71Z"/>
          <path class="st6" d="M240.92,986.15v-23.45h81.3v23.45h-81.3Z"/>
          <path class="st6" d="M316.55,986.15v-23.45h81.3v23.45h-81.3Z"/>
          <path class="st6" d="M392.18,986.15v-23.45h81.3v23.45h-81.3Z"/>
          <path class="st6" d="M467.81,986.15v-23.45h81.3v23.45h-81.3Z"/>
          <path class="st6" d="M543.44,986.15v-23.45h81.31v23.45h-81.31Z"/>
          <path class="st6" d="M619.07,986.15v-23.45h81.3v23.45h-81.3Z"/>
          <path class="st6" d="M711.91,894.63l26.47-4.92v70.72c1.76.51,4.03,1.01,6.81,1.51,2.77.51,5.61.76,8.51.76h1.89v23.45h-6.62c-5.04,0-9.55-.47-13.52-1.42s-7.41-1.99-10.3-3.12c-2.65,1.13-6.18,2.17-10.59,3.12-4.41.95-8.82,1.42-13.23,1.42h-6.62v-23.45h1.89c2.9,0,5.73-.25,8.51-.76,2.77-.5,5.04-1.01,6.81-1.51v-65.8ZM737.25,1011.11c0,3.78-1.2,6.77-3.59,8.98-2.4,2.2-5.23,3.31-8.51,3.31s-6.12-1.11-8.51-3.31c-2.4-2.21-3.59-5.2-3.59-8.98s1.2-6.78,3.59-8.98c2.39-2.21,5.23-3.31,8.51-3.31s6.11,1.1,8.51,3.31c2.39,2.2,3.59,5.2,3.59,8.98Z"/>
          <path class="st6" d="M793.6,981.04c-4.41,1.26-9.93,2.43-16.54,3.5-6.62,1.07-13.46,1.61-20.51,1.61h-6.62v-23.45h1.89c2.9,0,5.73-.25,8.51-.76,2.77-.5,5.04-1.01,6.81-1.51v-65.8l26.47-4.92v91.33ZM776.77,1010.35c0,3.65-1.1,6.52-3.31,8.6-2.21,2.08-4.89,3.12-8.04,3.12s-5.86-1.04-8.13-3.12c-2.27-2.08-3.4-4.95-3.4-8.6s1.14-6.33,3.4-8.41c2.27-2.08,4.98-3.12,8.13-3.12s5.83,1.04,8.04,3.12c2.2,2.08,3.31,4.88,3.31,8.41ZM803.43,1010.35c0,3.65-1.11,6.52-3.31,8.6-2.21,2.08-4.89,3.12-8.04,3.12s-5.86-1.04-8.13-3.12c-2.27-2.08-3.4-4.95-3.4-8.6s1.13-6.33,3.4-8.41c2.27-2.08,4.98-3.12,8.13-3.12s5.83,1.04,8.04,3.12c2.2,2.08,3.31,4.88,3.31,8.41Z"/>
          <path class="st6" d="M816.66,1001.09c2.9.5,5.86.95,8.89,1.32s5.92.57,8.7.57,5.07-.28,7.28-.85c2.2-.57,4.16-1.58,5.86-3.03,1.7-1.45,3.03-3.44,3.97-5.96.95-2.52,1.42-5.8,1.42-9.83v-88.68l26.47-4.92v70.72c1.76.51,4.03,1.01,6.81,1.51,2.77.51,5.61.76,8.51.76h1.89v23.45h-4.73c-2.14,0-4.25-.06-6.33-.19-2.08-.12-4.13-.38-6.15-.76-.25,7.94-1.67,14.53-4.25,19.76-2.59,5.23-5.89,9.36-9.93,12.38-4.04,3.03-8.57,5.17-13.61,6.43-5.04,1.26-10.09,1.89-15.13,1.89-4.04,0-7.97-.25-11.82-.76-3.85-.51-7.6-1.2-11.25-2.08l3.4-21.74Z"/>
          <path class="st6" d="M890.78,986.15v-23.45h20.04c-1.89-3.28-3.34-6.96-4.35-11.06-1.01-4.09-1.51-8.1-1.51-12.01,0-8.07,1.1-15.13,3.31-21.18,2.2-6.05,5.36-11.12,9.45-15.22,4.09-4.1,9.01-7.19,14.75-9.26,5.73-2.08,12.13-3.12,19.19-3.12,9.08,0,16.98.66,23.73,1.99,6.74,1.32,12.13,2.55,16.17,3.69v89.62h-100.78ZM951.1,865.89c0,3.66-1.11,6.52-3.31,8.6-2.21,2.08-4.89,3.12-8.04,3.12s-5.86-1.04-8.13-3.12c-2.27-2.08-3.4-4.95-3.4-8.6s1.13-6.33,3.4-8.41c2.27-2.08,4.98-3.12,8.13-3.12s5.83,1.04,8.04,3.12c2.2,2.08,3.31,4.89,3.31,8.41ZM965.09,962.7v-47.08c-2.9-.5-5.42-.85-7.56-1.04-2.15-.19-4.1-.28-5.86-.28-7.19,0-12.32,2.17-15.41,6.52-3.09,4.35-4.63,10.56-4.63,18.62,0,3.4.28,6.52.85,9.36.57,2.84,1.58,5.29,3.03,7.37,1.45,2.08,3.34,3.69,5.67,4.82,2.33,1.14,5.26,1.7,8.79,1.7h15.13ZM977.76,865.89c0,3.66-1.11,6.52-3.31,8.6-2.21,2.08-4.89,3.12-8.04,3.12s-5.86-1.04-8.13-3.12c-2.27-2.08-3.4-4.95-3.4-8.6s1.14-6.33,3.4-8.41c2.27-2.08,4.98-3.12,8.13-3.12s5.83,1.04,8.04,3.12c2.2,2.08,3.31,4.89,3.31,8.41Z"/>
        </g>
      </g>
      <g>
        <path class="st6" d="M328.41,1724.03c0-4.05.6-7.73,1.82-11.04,1.21-3.31,2.95-6.14,5.22-8.48,2.27-2.35,5.01-4.16,8.23-5.45,3.21-1.28,6.84-1.93,10.89-1.93,4.64,0,8.71.83,12.19,2.48,3.48,1.66,6.41,3.96,8.78,6.93l-7.56,5.19c-1.58-1.93-3.47-3.42-5.67-4.48-2.2-1.06-4.78-1.59-7.74-1.59-2.67,0-5.05.43-7.15,1.3-2.1.86-3.87,2.09-5.3,3.67-1.43,1.58-2.53,3.51-3.3,5.78-.77,2.27-1.15,4.82-1.15,7.63s.38,5.36,1.15,7.63c.76,2.27,1.86,4.2,3.3,5.78,1.43,1.58,3.2,2.8,5.3,3.67,2.1.87,4.48,1.3,7.15,1.3,2.96,0,5.54-.53,7.74-1.59,2.2-1.06,4.09-2.56,5.67-4.48l7.56,5.19c-2.37,2.96-5.3,5.27-8.78,6.93s-7.55,2.48-12.19,2.48c-4.05,0-7.68-.64-10.89-1.93-3.21-1.28-5.95-3.1-8.23-5.45-2.27-2.35-4.01-5.17-5.22-8.48-1.21-3.31-1.82-6.99-1.82-11.04Z"/>
        <path class="st6" d="M377.84,1731.44c0-2.86.46-5.47,1.37-7.82.91-2.35,2.21-4.35,3.89-6,1.68-1.65,3.7-2.94,6.08-3.85,2.37-.91,4.99-1.37,7.85-1.37s5.47.46,7.82,1.37c2.35.91,4.36,2.2,6.04,3.85,1.68,1.66,2.98,3.66,3.89,6,.91,2.35,1.37,4.95,1.37,7.82s-.46,5.48-1.37,7.85c-.91,2.37-2.21,4.4-3.89,6.08-1.68,1.68-3.69,2.98-6.04,3.89-2.35.91-4.95,1.37-7.82,1.37s-5.48-.46-7.85-1.37-4.4-2.21-6.08-3.89c-1.68-1.68-2.98-3.71-3.89-6.08-.91-2.37-1.37-4.99-1.37-7.85ZM386.73,1731.51c0,3.46.93,6.15,2.78,8.08s4.33,2.89,7.45,2.89,5.61-.96,7.48-2.89c1.88-1.93,2.82-4.62,2.82-8.08s-.94-6.15-2.82-8.08c-1.88-1.93-4.37-2.89-7.48-2.89s-5.59.96-7.45,2.89c-1.85,1.93-2.78,4.62-2.78,8.08Z"/>
        <path class="st6" d="M436.6,1712.25c3.06,0,5.57.51,7.52,1.52,1.95,1.01,3.51,2.3,4.67,3.85,1.16,1.56,1.99,3.25,2.48,5.08.49,1.83.79,3.56.89,5.19l1.48,22.08h-8.89v-21.86c0-1.33-.22-2.47-.67-3.41-.44-.94-1.04-1.73-1.78-2.37-.74-.64-1.61-1.11-2.59-1.41-.99-.3-2.03-.45-3.11-.45s-2.12.15-3.11.45c-.99.3-1.85.77-2.59,1.41-.74.64-1.33,1.43-1.78,2.37-.44.94-.67,2.08-.67,3.41v21.86h-8.89v-22.08c0-1.63.31-3.36.93-5.19.62-1.83,1.62-3.52,3-5.08,1.38-1.56,3.15-2.84,5.3-3.85,2.15-1.01,4.75-1.52,7.82-1.52ZM461.79,1712.25c3.06,0,5.67.51,7.82,1.52,2.15,1.01,3.92,2.3,5.3,3.85,1.38,1.56,2.38,3.25,3,5.08.62,1.83.93,3.56.93,5.19v22.08h-8.89v-21.86c0-1.33-.22-2.47-.67-3.41-.45-.94-1.04-1.73-1.78-2.37-.74-.64-1.61-1.11-2.59-1.41-.99-.3-2.03-.45-3.11-.45s-2.12.15-3.11.45c-.99.3-1.85.77-2.59,1.41-.74.64-1.33,1.43-1.78,2.37-.44.94-.67,2.08-.67,3.41v21.86h-8.89l1.48-22.08c.1-1.63.39-3.36.89-5.19.49-1.83,1.32-3.52,2.48-5.08,1.16-1.56,2.72-2.84,4.67-3.85,1.95-1.01,4.46-1.52,7.52-1.52Z"/>
        <path class="st6" d="M482.83,1702.17c0-1.33.47-2.48,1.41-3.44.94-.96,2.1-1.45,3.48-1.45s2.54.48,3.48,1.45c.94.96,1.41,2.11,1.41,3.44,0,1.43-.47,2.62-1.41,3.56s-2.1,1.41-3.48,1.41-2.54-.47-3.48-1.41c-.94-.94-1.41-2.12-1.41-3.56ZM483.28,1712.92h8.89v37.05h-8.89v-37.05Z"/>
        <path class="st6" d="M513.29,1712.25c3.06,0,5.67.51,7.82,1.52,2.15,1.01,3.92,2.3,5.3,3.85,1.38,1.56,2.38,3.25,3,5.08.62,1.83.93,3.56.93,5.19v22.08h-8.89v-21.86c0-1.33-.22-2.47-.67-3.41-.44-.94-1.04-1.73-1.78-2.37-.74-.64-1.61-1.11-2.59-1.41-.99-.3-2.03-.45-3.11-.45s-2.12.15-3.11.45c-.99.3-1.85.77-2.59,1.41-.74.64-1.33,1.43-1.78,2.37-.44.94-.67,2.08-.67,3.41v21.86h-8.89v-22.08c0-1.63.31-3.36.93-5.19.62-1.83,1.62-3.52,3-5.08s3.15-2.84,5.3-3.85c2.15-1.01,4.75-1.52,7.82-1.52Z"/>
        <path class="st6" d="M571.97,1748.48c0,2.47-.44,4.73-1.33,6.78-.89,2.05-2.14,3.82-3.74,5.3-1.61,1.48-3.54,2.63-5.82,3.45-2.27.82-4.82,1.22-7.63,1.22-3.75,0-7.1-.73-10.04-2.19-2.94-1.46-5.37-3.42-7.3-5.89l7.26-5.11c.99,1.23,2.28,2.38,3.89,3.44,1.6,1.06,3.69,1.59,6.26,1.59,3.11,0,5.48-.8,7.11-2.41,1.63-1.61,2.45-3.67,2.45-6.19v-2.15c-.89,1.14-2.26,2.12-4.11,2.96-1.85.84-4.14,1.26-6.85,1.26s-5.14-.46-7.41-1.37c-2.27-.91-4.22-2.21-5.85-3.89-1.63-1.68-2.9-3.7-3.82-6.08-.91-2.37-1.37-4.99-1.37-7.85s.46-5.47,1.37-7.82c.91-2.35,2.21-4.35,3.89-6,1.68-1.65,3.69-2.94,6.04-3.85,2.35-.91,4.95-1.37,7.82-1.37s5.48.46,7.85,1.37c2.37.91,4.4,2.21,6.08,3.89,1.68,1.68,2.98,3.71,3.89,6.08.91,2.37,1.37,4.99,1.37,7.85v16.97ZM563.08,1731.44c0-3.46-.93-6.15-2.78-8.08-1.85-1.93-4.33-2.89-7.45-2.89s-5.61.96-7.48,2.89c-1.88,1.93-2.81,4.62-2.81,8.08s.94,6.15,2.81,8.08c1.88,1.93,4.37,2.89,7.48,2.89s5.59-.96,7.45-2.89c1.85-1.93,2.78-4.62,2.78-8.08Z"/>
        <path class="st6" d="M632.07,1734.92c0,2.22-.37,4.31-1.11,6.26-.74,1.95-1.86,3.63-3.37,5.04-1.51,1.41-3.41,2.52-5.71,3.33-2.3.81-5.03,1.22-8.19,1.22-2.32,0-4.47-.21-6.45-.63-1.98-.42-3.79-.99-5.45-1.7-1.66-.72-3.15-1.53-4.48-2.44-1.33-.91-2.49-1.84-3.48-2.78l5.85-6.37c2.02,1.73,4.15,3.06,6.37,4,2.22.94,4.74,1.41,7.56,1.41,1.78,0,3.26-.2,4.45-.59,1.19-.39,2.14-.9,2.85-1.52.72-.62,1.21-1.33,1.48-2.15.27-.81.41-1.62.41-2.41,0-1.53-.41-2.79-1.22-3.78-.82-.99-1.9-1.82-3.26-2.48-1.36-.67-2.9-1.23-4.63-1.7-1.73-.47-3.5-.95-5.3-1.45-1.8-.49-3.57-1.07-5.3-1.74-1.73-.67-3.27-1.52-4.63-2.56-1.36-1.04-2.45-2.33-3.26-3.89-.82-1.56-1.22-3.49-1.22-5.82,0-2.17.39-4.17,1.19-6,.79-1.83,1.94-3.4,3.45-4.71,1.51-1.31,3.38-2.33,5.63-3.07,2.25-.74,4.83-1.11,7.74-1.11,4,0,7.62.66,10.86,1.96,3.23,1.31,6.04,2.98,8.41,5l-5.41,6.74c-2.37-1.88-4.68-3.21-6.93-4-2.25-.79-4.53-1.19-6.85-1.19-3.11,0-5.36.54-6.74,1.63-1.38,1.09-2.08,2.42-2.08,4,0,1.28.41,2.35,1.22,3.19s1.9,1.54,3.26,2.11c1.36.57,2.9,1.06,4.63,1.48,1.73.42,3.49.89,5.3,1.41,1.8.52,3.57,1.14,5.3,1.85,1.73.72,3.27,1.66,4.63,2.82,1.36,1.16,2.45,2.61,3.26,4.34.82,1.73,1.22,3.83,1.22,6.3Z"/>
        <path class="st6" d="M634.37,1731.44c0-2.86.46-5.47,1.37-7.82.91-2.35,2.21-4.35,3.89-6,1.68-1.65,3.71-2.94,6.08-3.85,2.37-.91,4.99-1.37,7.85-1.37s5.47.46,7.82,1.37c2.35.91,4.36,2.2,6.04,3.85,1.68,1.66,2.98,3.66,3.89,6,.91,2.35,1.37,4.95,1.37,7.82s-.46,5.48-1.37,7.85c-.91,2.37-2.21,4.4-3.89,6.08-1.68,1.68-3.69,2.98-6.04,3.89-2.35.91-4.95,1.37-7.82,1.37s-5.48-.46-7.85-1.37c-2.37-.91-4.4-2.21-6.08-3.89-1.68-1.68-2.98-3.71-3.89-6.08-.91-2.37-1.37-4.99-1.37-7.85ZM643.26,1731.51c0,3.46.93,6.15,2.78,8.08,1.85,1.93,4.34,2.89,7.45,2.89s5.61-.96,7.48-2.89c1.88-1.93,2.81-4.62,2.81-8.08s-.94-6.15-2.81-8.08c-1.88-1.93-4.37-2.89-7.48-2.89s-5.59.96-7.45,2.89c-1.85,1.93-2.78,4.62-2.78,8.08Z"/>
        <path class="st6" d="M675.79,1731.44c0-2.86.46-5.47,1.37-7.82.91-2.35,2.21-4.35,3.89-6,1.68-1.65,3.71-2.94,6.08-3.85,2.37-.91,4.99-1.37,7.85-1.37s5.47.46,7.82,1.37c2.35.91,4.36,2.2,6.04,3.85,1.68,1.66,2.98,3.66,3.89,6,.91,2.35,1.37,4.95,1.37,7.82s-.46,5.48-1.37,7.85c-.91,2.37-2.21,4.4-3.89,6.08-1.68,1.68-3.69,2.98-6.04,3.89-2.35.91-4.95,1.37-7.82,1.37s-5.48-.46-7.85-1.37c-2.37-.91-4.4-2.21-6.08-3.89-1.68-1.68-2.98-3.71-3.89-6.08-.91-2.37-1.37-4.99-1.37-7.85ZM684.68,1731.51c0,3.46.93,6.15,2.78,8.08,1.85,1.93,4.34,2.89,7.45,2.89s5.61-.96,7.48-2.89c1.88-1.93,2.81-4.62,2.81-8.08s-.94-6.15-2.81-8.08c-1.88-1.93-4.37-2.89-7.48-2.89s-5.59.96-7.45,2.89c-1.85,1.93-2.78,4.62-2.78,8.08Z"/>
        <path class="st6" d="M734.55,1712.25c3.06,0,5.67.51,7.82,1.52,2.15,1.01,3.92,2.3,5.3,3.85,1.38,1.56,2.38,3.25,3,5.08.62,1.83.93,3.56.93,5.19v22.08h-8.89v-21.86c0-1.33-.22-2.47-.67-3.41-.44-.94-1.04-1.73-1.78-2.37-.74-.64-1.61-1.11-2.59-1.41-.99-.3-2.03-.45-3.11-.45s-2.12.15-3.11.45c-.99.3-1.85.77-2.59,1.41-.74.64-1.33,1.43-1.78,2.37-.44.94-.67,2.08-.67,3.41v21.86h-8.89v-22.08c0-1.63.31-3.36.93-5.19.62-1.83,1.62-3.52,3-5.08s3.15-2.84,5.3-3.85c2.15-1.01,4.75-1.52,7.82-1.52Z"/>
      </g>
      <g>
        <g>
          <path class="st6" d="M498.26,232.98c-2.63-2.63-3.94-5.87-3.94-9.72s1.31-6.92,3.94-9.54c2.63-2.63,5.87-3.94,9.72-3.94s6.92,1.31,9.54,3.94c2.63,2.63,3.94,5.81,3.94,9.54s-1.31,7.09-3.94,9.72c-2.63,2.63-5.81,3.94-9.54,3.94s-7.09-1.31-9.72-3.94ZM496.6,246.2h22.76v87.55h-22.76v-87.55Z"/>
          <path class="st6" d="M526.72,246.2h23.81l19.96,57.61,20.14-57.61h23.81l-32.57,87.55h-22.76l-32.39-87.55Z"/>
          <path class="st6" d="M681.42,250.84c6.94,4.03,12.43,9.52,16.46,16.46,4.03,6.95,6.04,14.51,6.04,22.68s-2.01,15.73-6.04,22.68c-4.03,6.95-9.52,12.43-16.46,16.46-6.95,4.03-14.51,6.04-22.68,6.04s-15.73-2.01-22.68-6.04c-6.95-4.03-12.43-9.51-16.46-16.46-4.03-6.94-6.04-14.5-6.04-22.68s2.01-15.73,6.04-22.68c4.03-6.94,9.51-12.43,16.46-16.46,6.94-4.03,14.5-6.04,22.68-6.04s15.73,2.01,22.68,6.04ZM642.81,273.6c-4.32,4.38-6.48,9.84-6.48,16.37s2.16,11.99,6.48,16.37c4.32,4.38,9.69,6.57,16.11,6.57s11.73-2.19,15.93-6.57c4.2-4.38,6.3-9.83,6.3-16.37s-2.1-11.99-6.3-16.37c-4.2-4.38-9.52-6.57-15.93-6.57s-11.79,2.19-16.11,6.57Z"/>
        </g>
        <g>
          <path class="st6" d="M685.75,218.05c1.16-2.01,2.74-3.59,4.73-4.75,1.99-1.16,4.16-1.74,6.52-1.74s4.53.58,6.52,1.74c1.99,1.16,3.57,2.75,4.75,4.75,1.18,2.01,1.77,4.19,1.77,6.55s-.59,4.54-1.77,6.55c-1.18,2.01-2.76,3.59-4.75,4.75-1.99,1.16-4.16,1.74-6.52,1.74s-4.58-.64-6.37-1.92v11.63h-6.62v-22.75c0-2.36.58-4.54,1.75-6.55ZM701.65,229.32c1.21-1.26,1.82-2.84,1.82-4.73s-.61-3.46-1.82-4.73c-1.21-1.26-2.75-1.9-4.6-1.9s-3.4.63-4.65,1.9c-1.25,1.26-1.87,2.84-1.87,4.73s.62,3.46,1.87,4.73c1.25,1.26,2.8,1.9,4.65,1.9s3.39-.63,4.6-1.9Z"/>
          <path class="st6" d="M719.09,235.89c-1.99-1.16-3.57-2.75-4.75-4.75-1.18-2-1.77-4.19-1.77-6.55s.59-4.54,1.77-6.55c1.18-2.01,2.76-3.59,4.75-4.75,1.99-1.16,4.16-1.74,6.52-1.74s4.53.58,6.52,1.74c1.99,1.16,3.56,2.75,4.73,4.75,1.16,2.01,1.74,4.19,1.74,6.55v12.64h-6.57v-2.68c-.37.84-1.18,1.57-2.43,2.17-1.25.61-2.58.91-3.99.91-2.36,0-4.53-.58-6.52-1.74ZM730.27,229.32c1.21-1.26,1.82-2.84,1.82-4.73s-.61-3.46-1.82-4.73c-1.21-1.26-2.75-1.9-4.6-1.9s-3.4.63-4.65,1.9c-1.25,1.26-1.87,2.84-1.87,4.73s.62,3.46,1.87,4.73c1.25,1.26,2.8,1.9,4.65,1.9s3.39-.63,4.6-1.9Z"/>
          <path class="st6" d="M746.52,245.12c-1.9-1.48-3.31-3.49-4.22-6.02h7.33c.51.61,1.02,1.06,1.54,1.36.52.3,1.22.45,2.1.45,1.52,0,2.65-.36,3.39-1.09.74-.73,1.11-1.71,1.11-2.96v-.15c-1.45.61-2.95.91-4.5.91-3.37,0-6.07-1.04-8.09-3.11-2.02-2.07-3.03-5.17-3.03-9.28v-13.3h6.57v13.3c0,2.06.36,3.56,1.09,4.53.72.96,1.88,1.44,3.46,1.44s2.74-.48,3.46-1.44c.72-.96,1.09-2.47,1.09-4.53v-13.3h6.57v24.02c0,2.12-.48,4.05-1.44,5.79-.96,1.74-2.28,3.1-3.97,4.1-1.69.99-3.59,1.49-5.71,1.49-2.6,0-4.84-.74-6.75-2.22Z"/>
        </g>
        <g>
          <path class="st5" d="M399.77,192.48c31.61,0,57.24,25.63,57.24,57.24s-25.63,57.24-57.24,57.24-57.24-25.63-57.24-57.24,25.63-57.24,57.24-57.24M399.77,165.55c46.49,0,84.17,37.68,84.17,84.17s-37.68,84.17-84.17,84.17-84.17-37.69-84.17-84.17,37.68-84.17,84.17-84.17Z"/>
          <g class="st22">
            <rect class="st6" x="315.6" y="165.55" width="168.34" height="168.34"/>
          </g>
        </g>
        <g>
          <path class="st5" d="M399.77,249.72c46.49,0,84.17,37.68,84.17,84.17h-26.94c0-31.61-25.63-57.24-57.24-57.24v-26.93Z"/>
          <g class="st13">
            <rect class="st6" x="399.77" y="249.72" width="84.17" height="84.17"/>
          </g>
        </g>
      </g>
      <g class="st16">
        <path class="st10" d="M829.42,1069.48c31.44,205.95-45.89,400.34-192.43,483.75-21.67,12.34-135.38,71.88-245.96,32.66-27.5-9.76-51.45-24.36-72.08-42.09-23.41,25.38-50.69,47.25-81.86,63.46-60.71,31.57-124.79,40.04-180.42,23.85-101.58-29.57-133.82-125.92-139.27-144.92l69.4-22.73c2.36,8.26,25.1,81.35,95.54,101.85,37.79,11,80.76,4.86,124.27-17.77,25.59-13.31,47.91-32.27,66.91-54.53-30.83-44.3-48.72-95.56-55.62-139.28-11.43-72.35,2.64-132.52,38.59-165.06,34.75-31.46,91.2-38.63,125.83-15.99,33.75,22.04,48.12,71.8,40.5,140.11-6.13,54.91-26.12,117.27-59.96,172.56,16.62,15.7,35.85,28.25,57.6,35.97,80.39,28.51,166.87-16.95,183.38-26.35,119.51-68.01,181.59-232.98,154.48-410.51l71.09-14.97ZM317.68,1424.58c18.45-38.07,29.78-78.43,33.73-113.86,5.47-49.01-4.87-75.36-12.66-80.46-6.92-4.52-25.5-2.15-35.02,6.47-13,11.77-23.17,48.61-14.79,101.7,4.45,28.2,14.11,58.33,28.73,86.15Z"/>
      </g>
      <g class="st15">
        <path class="st8" d="M1036.52-69.77c52.6,0,95.25,42.64,95.25,95.25s-42.64,95.25-95.25,95.25-95.25-42.65-95.25-95.25,42.64-95.25,95.25-95.25M1036.52-114.59c77.36,0,140.07,62.71,140.07,140.07s-62.71,140.07-140.07,140.07-140.07-62.71-140.07-140.07,62.71-140.07,140.07-140.07Z"/>
        <g class="st14">
          <rect class="st17" x="896.45" y="-114.59" width="280.14" height="280.14"/>
        </g>
      </g>
    </g>
  </g>
</svg>